<svg width="1002" height="212" viewBox="0 0 1002 212" version="1.1" xmlns="http://www.w3.org/2000/svg" xmlns:xlink="http://www.w3.org/1999/xlink">
<title>Group</title>
<desc>Created using Figma</desc>
<g id="Canvas" transform="translate(2869 -636)">
<g id="Group">
<g id="Vector">
<use xlink:href="#path0_fill" transform="translate(-2868.54 637)" fill="#FFFFFF"/>
</g>
<g id="Vector">
<use xlink:href="#path1_fill" transform="translate(-2638.04 638.008)" fill="#FFFFFF"/>
</g>
<g id="Vector">
<use xlink:href="#path2_fill" transform="translate(-2381.34 637.707)" fill="#FFFFFF"/>
</g>
<g id="Group">
<g id="Vector">
<use xlink:href="#path3_fill" transform="matrix(-1 0 0 1 -2102.4 636)" fill="#FFFFFF"/>
</g>
</g>
<g id="Vector">
<use xlink:href="#path4_fill" transform="translate(-2078.19 637.358)" fill="#FFFFFF"/>
</g>
<g id="Vector">
<use xlink:href="#path5_fill" transform="translate(-2381.34 733.708)" fill="#FFFFFF"/>
</g>
</g>
</g>
<defs>
<path id="path0_fill" d="M 188.1 0.00769592C 175.7 0.00769592 165.6 10.1077 165.6 22.5077L 165.6 133.808L 38.4 6.60779C 32 0.207794 22.3 -1.79235 13.9 1.70765C 5.5 5.20765 -1.52588e-06 13.4077 -1.52588e-06 22.5077L -1.52588e-06 188.108C -1.52588e-06 200.508 10.1 210.608 22.5 210.608C 34.9 210.608 45 200.508 45 188.108L 45 76.8077L 172.2 204.008C 176.5 208.308 182.3 210.608 188.1 210.608C 191 210.608 193.9 210.008 196.7 208.908C 205.1 205.408 210.6 197.208 210.6 188.108L 210.6 22.5077C 210.6 10.1077 200.5 0.00769592 188.1 0.00769592Z"/>
<path id="path1_fill" d="M 58.1 0L 52.1 11.1001L 6.00001 95L 6.10352e-06 105.6L 6.00001 116.2L 52.1 197.4L 58.3 208.5L 71.1 208.5L 165.6 208.5L 179.2 208.5L 185.2 196.3L 219.7 126.8L 235.2 95.3L 200.2 95.3L 112 95.6001C 100.5 95.4001 90 105.8 90 117.3C 90 128.8 100.6 139.2 112 139L 165.2 138.7L 152.2 165L 83.8 165L 49.9 105.3L 84.1 43.3999L 156.9 43.3999L 173.9 78.2L 217.4 78.2L 189.8 12.2L 183.8 0L 170.2 0L 71.1 0L 58.1 0Z"/>
<path id="path2_fill" d="M 21.4029 0.00065311C 10.0029 0.100653 -0.197119 10.6007 0.00288064 22.0007L 0.00288064 78.6008L 43.4029 78.6008L 43.4029 22.0007C 43.6029 10.5007 33.0029 -0.0993469 21.4029 0.00065311Z"/>
<path id="path3_fill" d="M 22.5 210.608C 19.6 210.608 16.7 210.008 13.9 208.908C 5.49999 205.408 2.44141e-05 197.208 2.44141e-05 188.108L 2.44141e-05 22.5076C 2.44141e-05 10.1076 10.1 0.00759826 22.5 0.00759826C 34.9 0.00759826 45 10.1076 45 22.5076L 45 133.808L 172.2 6.6077C 178.6 0.207696 188.3 -1.79221 196.7 1.70779C 205.1 5.20779 210.6 13.4076 210.6 22.5076L 210.6 188.108C 210.6 200.508 200.5 210.608 188.1 210.608C 175.7 210.608 165.6 200.508 165.6 188.108L 165.6 76.8076L 38.4 204.008C 34.1 208.308 28.3 210.608 22.5 210.608Z"/>
<path id="path4_fill" d="M 137.25 105.25L 204.25 38.4503C 213.05 29.6503 213.05 15.4502 204.35 6.65021C 195.55 -2.14979 181.35 -2.14988 172.55 6.55012L 105.45 73.4503L 38.3502 6.55012C 29.5502 -2.24988 15.3502 -2.14979 6.55021 6.65021C -2.24979 15.4502 -2.14981 29.6503 6.65019 38.4503L 73.6502 105.25L 6.8502 171.85C -1.9498 180.65 -1.94977 194.85 6.75023 203.65C 11.1502 208.05 16.9502 210.25 22.6502 210.25C 28.3502 210.25 34.1502 208.05 38.5502 203.65L 105.45 136.95L 172.35 203.65C 176.75 208.05 182.45 210.25 188.25 210.25C 194.05 210.25 199.75 208.05 204.15 203.65C 212.95 194.85 212.85 180.65 204.05 171.85L 137.25 105.25Z"/>
<path id="path5_fill" d="M 21.4029 112.9C 10.0029 112.8 -0.197119 102.3 0.00288064 90.9001L 0.00288064 -4.88281e-05L 43.4029 -4.88281e-05L 43.4029 90.9001C 43.6029 102.5 33.0029 113.1 21.4029 112.9Z"/>
</defs>
</svg>
