<svg width="256" height="257" viewBox="0 0 256 257" version="1.1" xmlns="http://www.w3.org/2000/svg" xmlns:xlink="http://www.w3.org/1999/xlink">
<g id="Canvas" transform="translate(53 2467)">
<g id="Vector">
<use xlink:href="#path0_fill" transform="translate(-53 -2466.2)" fill="#FFFFFF"/>
</g>
</g>
<defs>
<path id="path0_fill" d="M -9.76563e-05 6.10352e-06L -9.76563e-05 256L 256 256L 256 6.10352e-06L -9.76563e-05 6.10352e-06ZM 139.3 199.7C 139.3 224.6 124.7 236 103.4 236C 84.2 236 72.9999 226 67.2999 214L 86.9 202.1C 90.7001 208.8 94.1 214.5 102.4 214.5C 110.3 214.5 115.3 211.4 115.3 199.4L 115.3 117.6L 139.4 117.6L 139.4 199.7L 139.3 199.7ZM 196.2 235.9C 173.9 235.9 159.4 225.2 152.4 211.3L 172 200C 177.2 208.4 183.9 214.6 195.7 214.6C 205.7 214.6 212 209.6 212 202.7C 212 194.5 205.5 191.5 194.5 186.7L 188.5 184.1C 171.1 176.7 159.6 167.4 159.6 147.8C 159.6 129.8 173.3 116 194.8 116C 210.1 116 221.1 121.3 229 135.2L 210.3 147.2C 206.2 139.8 201.7 136.9 194.8 136.9C 187.8 136.9 183.3 141.4 183.3 147.2C 183.3 154.4 187.8 157.3 198.1 161.8L 204.1 164.4C 224.5 173.2 236.1 182.1 236.1 202.2C 236.1 224.1 219.1 235.9 196.2 235.9Z"/>
</defs>
</svg>
