<svg width="1062" height="706" viewBox="0 0 1062 706" version="1.1" xmlns="http://www.w3.org/2000/svg" xmlns:xlink="http://www.w3.org/1999/xlink">
<title>Vector</title>
<desc>Created using Figma</desc>
<g id="Canvas" transform="translate(1501 -2470)">
<g id="Vector">
<use xlink:href="#path0_fill" transform="translate(-1501 2470.09)" fill="#FFFFFF"/>
</g>
</g>
<defs>
<path id="path0_fill" d="M 1061.5 24.0131C 1061.3 8.31311 1053.2 -0.386888 1038.2 0.0131115C 1021.8 0.513112 1027 5.31311 991.5 14.0131C 955.7 22.8131 912 20.1134 873.4 36.3134C 758.3 84.6134 735.3 249.513 630.7 308.613C 552.5 352.813 473.6 356.313 402.7 378.513C 356.1 393.113 305.1 423.113 262.9 459.513C 230.1 487.813 229.3 512.613 195 548.013C 158.4 585.913 49.4 548.613 2.44141e-05 606.713C 15.9 622.813 22.9 627.313 54.2 623.113C 47.7 635.413 9.50005 645.813 16.9 663.913C 24.8 682.913 117.3 695.813 201.4 645.113C 240.6 621.513 271.7 587.413 332.7 579.213C 411.6 568.713 502.5 585.913 593.9 599.113C 580.4 639.513 553.2 666.413 531.4 698.513C 524.7 705.813 545 706.613 568.1 702.213C 609.8 691.913 639.8 683.613 671.2 665.313C 709.8 642.813 715.7 585.213 763.1 572.713C 789.5 613.313 861.3 622.913 905.9 590.413C 866.8 579.313 856 496.113 869.2 459.413C 881.7 424.713 894.1 369.213 906.6 323.313C 920.1 274.013 925.1 211.913 941.5 186.813C 966.1 149.013 993.3 136.113 1016.9 114.813C 1040.6 93.4134 1062.2 72.7131 1061.5 24.0131ZM 880.7 95.2133C 885.8 73.3133 902.8 63.3134 932.2 65.8134C 939.3 98.5134 899.6 111.613 880.7 95.2133ZM 956.2 104.113C 954.7 108.513 950.5 110.413 952.6 103.613C 960.9 78.7132 983.9 51.9131 995.5 40.0131C 1000.6 35.2131 1001.8 38.313 998.7 41.913C 990.7 50.413 964.5 78.5132 956.2 104.113ZM 965.9 105.913C 970.7 80.113 989.6 59.813 999.4 46.413C 1003.8 41.013 1005.4 43.8134 1002.8 47.8134C 996 57.3134 974.1 79.4134 969.5 105.813C 968.7 110.413 964.7 112.913 965.9 105.913ZM 981.3 108.613C 983.9 82.5132 995.3 66.113 1004 51.913C 1007.9 46.113 1009.8 48.8132 1007.5 53.1132C 1001.6 63.2132 987.3 81.5134 984.9 108.313C 984.5 112.813 980.7 115.713 981.3 108.613ZM 1012.6 57.1132C 1007.6 67.6132 997.9 81.2132 997.9 108.113C 997.9 112.713 994.4 115.913 994.3 108.813C 994.6 82.6134 1001.5 71.2134 1008.9 56.3134C 1012.4 50.1134 1014.4 52.6132 1012.6 57.1132Z"/>
</defs>
</svg>
