<svg width="651" height="263" viewBox="0 0 651 263" version="1.1" xmlns="http://www.w3.org/2000/svg" xmlns:xlink="http://www.w3.org/1999/xlink">
<title>Group</title>
<desc>Created using Figma</desc>
<g id="Canvas" transform="translate(514 -2007)">
<g id="Group">
<g id="Group">
<g id="Vector">
<use xlink:href="#path0_fill" transform="translate(-513.3 2011.3)" fill="#FFFFFF"/>
</g>
<g id="Vector">
<use xlink:href="#path1_fill" transform="translate(-451.5 2027.4)" fill="#FFFFFF"/>
</g>
<g id="Vector">
<use xlink:href="#path2_fill" transform="translate(-452.7 2009.3)" fill="#FFFFFF"/>
</g>
<g id="Vector">
<use xlink:href="#path3_fill" transform="translate(-437.7 2024.2)" fill="#FFFFFF"/>
</g>
<g id="Vector">
<use xlink:href="#path4_fill" transform="translate(-403.4 2024.6)" fill="#FFFFFF"/>
</g>
<g id="Vector">
<use xlink:href="#path5_fill" transform="translate(-382.7 2024.3)" fill="#FFFFFF"/>
</g>
<g id="Vector">
<use xlink:href="#path6_fill" transform="translate(-342.3 2024.5)" fill="#FFFFFF"/>
</g>
<g id="Vector">
<use xlink:href="#path7_fill" transform="translate(-315.6 2024.2)" fill="#FFFFFF"/>
</g>
<g id="Vector">
<use xlink:href="#path8_fill" transform="translate(-278.2 2007.9)" fill="#FFFFFF"/>
</g>
<g id="Vector">
<use xlink:href="#path9_fill" transform="translate(-255.6 2014.9)" fill="#FFFFFF"/>
</g>
</g>
<g id="Group">
<g id="Vector">
<use xlink:href="#path10_fill" transform="translate(-512.9 2084.8)" fill="#FFFFFF"/>
</g>
<g id="Vector">
<use xlink:href="#path11_fill" transform="translate(-396.1 2124.1)" fill="#FFFFFF"/>
</g>
<g id="Vector">
<use xlink:href="#path12_fill" transform="translate(-289.6 2122.1)" fill="#FFFFFF"/>
</g>
<g id="Vector">
<use xlink:href="#path13_fill" transform="translate(-181.2 2122)" fill="#FFFFFF"/>
</g>
<g id="Vector">
<use xlink:href="#path14_fill" transform="translate(-76.0001 2122.2)" fill="#FFFFFF"/>
</g>
<g id="Vector">
<use xlink:href="#path15_fill" transform="translate(-28.6 2161.8)" fill="#FFFFFF"/>
</g>
<g id="Vector">
<use xlink:href="#path16_fill" transform="translate(21.2999 2084.8)" fill="#FFFFFF"/>
</g>
</g>
</g>
</g>
<defs>
<path id="path0_fill" d="M 5.49998 16.0001C 5.49998 11.7001 5.40002 8.5002 5.30002 6.6002L 5.4 6.6002C 5.8 8.8002 6.40002 10.5002 6.80002 11.6002L 23.3 48.6002L 26.1 48.6002L 42.6 11.2999C 43 10.2999 43.5001 8.8002 44.0001 6.6002L 44.1 6.6002C 43.8 10.3002 43.7001 13.5002 43.7001 16.1002L 43.7001 48.6998L 49.4 48.6998L 49.4 0.199805L 42.3 0.199805L 27.1 33.9C 26.5 35.2 25.8 37.2 24.8 39.9L 24.6 39.9C 24.3 38.6 23.5 36.6002 22.4 34.1002L 7.49998 9.76563e-05L -2.44141e-05 9.76563e-05L -2.44141e-05 48.5001L 5.4 48.5001L 5.49998 16.0001Z"/>
<path id="path1_fill" d="M 4.90005 0.000195313L -9.76563e-05 0.000195313L -9.76563e-05 30.1999L 4.90005 30.1999L 4.90005 0.000195313Z"/>
<path id="path2_fill" d="M 3.6999 7.0001C 4.6999 7.0001 5.5999 6.7001 6.1999 6.0001C 6.8999 5.3001 7.3 4.5001 7.3 3.5001C 7.3 2.5001 6.9999 1.6001 6.1999 1.0001C 5.4999 0.300098 4.60005 9.76563e-05 3.60005 9.76563e-05C 2.60005 9.76563e-05 1.70005 0.300098 1.10005 1.0001C 0.400049 1.7001 -4.88281e-05 2.6001 -4.88281e-05 3.5001C -4.88281e-05 4.6001 0.300049 5.4001 1.10005 6.0001C 1.90005 6.7001 2.6999 7.0001 3.6999 7.0001Z"/>
<path id="path3_fill" d="M 26 34L 26 28.7002C 23.2999 30.7002 20.5 31.7002 17.5 31.7002C 13.9 31.7002 11.0001 30.5001 8.9001 28.1001C 6.8001 25.8001 5.6999 22.6001 5.6999 18.6001C 5.6999 14.4001 6.80005 11.1 9.10005 8.5C 11.3 6.1 14.2 4.7998 17.8 4.7998C 20.7 4.7998 23.5 5.7 26 7.5L 26 1.7998C 23.7 0.599805 21 9.09495e-13 18 9.09495e-13C 12.5 9.09495e-13 8.1001 1.8002 4.9001 5.2002C 1.7001 8.60019 -4.88281e-05 13.2999 -4.88281e-05 18.8999C -4.88281e-05 23.8999 1.4001 28.0998 4.4001 31.2998C 7.5001 34.5998 11.5001 36.2998 16.4001 36.2998C 20.2001 36.3998 23.2999 35.6 26 34Z"/>
<path id="path4_fill" d="M 5.6001 17.4999C 5.6001 13.4999 6.5001 10.3 8.1001 8.1C 9.7001 6.1 11.5 5.1 13.8 5.1C 15.7 5.1 17 5.4001 18 6.2001L 18 0.399805C 17.2 0.0998047 16.1 -9.76563e-05 14.7 -9.76563e-05C 12.7 -9.76563e-05 10.8999 0.699805 9.3999 1.8998C 7.6999 3.1998 6.4001 5.2002 5.6001 7.8002L 5.5 7.8002L 5.5 0.700098L 9.09495e-13 0.700098L 9.09495e-13 35.3002L 5.5 35.3002L 5.5 17.4999L 5.6001 17.4999Z"/>
<path id="path5_fill" d="M 29.6999 4.7999C 26.7999 1.5999 22.8 9.76563e-05 17.6 9.76563e-05C 12.4 9.76563e-05 8.20005 1.6002 5.10005 4.6002C 1.80005 7.9002 -4.88281e-05 12.6002 -4.88281e-05 18.6002C -4.88281e-05 23.8002 1.4001 28.1 4.4001 31.4C 7.5001 34.7 11.6 36.4 16.8 36.4C 22 36.4 26.2 34.7 29.3 31.4C 32.4 28.1 34 23.6002 34 18.1002C 34 12.3002 32.5999 7.9999 29.6999 4.7999ZM 25.6999 28.0001C 23.7999 30.3001 21.0001 31.6002 17.4001 31.6002C 13.8001 31.6002 11.1 30.4001 8.99995 28.0001C 6.89995 25.7001 5.9001 22.4998 5.9001 18.1998C 5.7001 13.9998 6.79995 10.6002 8.99995 8.10019C 11.1 5.9002 13.9 4.7999 17.3 4.7999C 20.9 4.7999 23.5 5.9002 25.5 8.10019C 27.5 10.4002 28.5 13.7998 28.5 18.1998C 28.4 22.3998 27.5999 25.7001 25.6999 28.0001Z"/>
<path id="path6_fill" d="M 17.9 33.0999C 20 31.1999 21.1 28.8998 21.1 25.9998C 21.1 23.4998 20.2 21.3 18.6 19.7C 17.3 18.4 15.2 17.2002 12.1 15.9002C 9.39995 14.8002 7.8 13.7998 6.9 12.9998C 6 12.0998 5.5001 11.0002 5.5001 9.4002C 5.5001 8.0002 6.10005 6.8998 7.20005 5.9998C 8.30005 5.0998 9.70005 4.7 11.7 4.7C 14.7 4.7 17.2 5.5 19.6 7.2L 19.6 1.7C 17.4 0.6 14.9 -0.000195313 12.2 -0.000195313C 8.60005 -0.000195313 5.6 1.0002 3.4 2.9002C 1.1 4.8002 9.76563e-05 7.1999 9.76563e-05 10.0999C 9.76563e-05 12.5999 0.800049 14.8001 2.20005 16.3001C 3.40005 17.6001 5.5 19 8.4 20.2C 11.2 21.4 13.1 22.5002 14.1 23.4002C 15.1 24.3002 15.5001 25.4 15.5001 26.7C 15.5001 29.9 13.3001 31.5999 9.0001 31.5999C 5.7001 31.5999 2.7001 30.5001 9.76563e-05 28.3001L 9.76563e-05 34.3001C 2.4001 35.8001 5.3001 36.4002 8.5001 36.4002C 12.4001 36.1002 15.6 35.0999 17.9 33.0999Z"/>
<path id="path7_fill" d="M 29.7 4.7998C 26.7 1.5998 22.6999 0 17.5999 0C 12.3999 0 8.1999 1.6001 5.0999 4.6001C 1.7999 7.9001 4.88281e-05 12.6001 4.88281e-05 18.6001C 4.88281e-05 23.8001 1.39995 28.0999 4.39995 31.3999C 7.49995 34.6999 11.6001 36.3999 16.8001 36.3999C 22.1001 36.3999 26.2001 34.6999 29.3001 31.3999C 32.4001 28.0999 34 23.6001 34 18.1001C 34.1 12.4001 32.6 8.0998 29.7 4.7998ZM 25.5999 28.1001C 23.6999 30.4001 20.9001 31.7002 17.3001 31.7002C 13.7001 31.7002 11 30.5001 8.89995 28.1001C 6.79995 25.8001 5.8001 22.5998 5.8001 18.2998C 5.8001 13.7998 6.8999 10.4001 9.0999 8.1001C 11.1999 5.9001 14 4.7998 17.4 4.7998C 20.8 4.7998 23.5999 5.9001 25.5999 8.1001C 27.3999 10.5001 28.4 13.8998 28.4 18.2998C 28.4 22.4998 27.4999 25.8001 25.5999 28.1001Z"/>
<path id="path8_fill" d="M 5.99995 51.9001L 11.5 51.9001L 11.5 21.9001L 19.6 21.9001L 19.6 17.1999L 11.5 17.1999L 11.5 11.9001C 11.5 7.0001 13.4 4.5998 17.3 4.5998C 18.6 4.5998 19.9001 4.9002 20.9001 5.5002L 20.9001 0.500195C 19.9001 0.100195 18.6001 0.000195313 16.9001 0.000195313C 13.9001 0.000195313 11.5 0.9 9.49995 2.8C 7.19995 5 5.9001 7.9 5.9001 11.8L 5.9001 17.5002L -4.88281e-05 17.5002L -4.88281e-05 22.1999L 5.9001 22.1999L 5.99995 51.9001Z"/>
<path id="path9_fill" d="M 6.0999 35.5002C 6.0999 42.3002 9.1 45.6999 15.2 45.6999C 17.4 45.6999 19.1 45.2998 20.4 44.5998L 20.4 39.8C 19.4 40.6 18.2001 40.9001 16.8001 40.9001C 14.9001 40.9001 13.6001 40.5001 12.8001 39.4001C 12.0001 38.4001 11.5999 36.7001 11.5999 34.4001L 11.5999 14.9001L 20.4 14.9001L 20.4 10.1999L 11.5999 10.1999L 11.5999 0.000195313C 9.6999 0.700195 7.80005 1.2 6.00005 1.8L 6.00005 10.1999L 4.88281e-05 10.1999L 4.88281e-05 14.9001L 6.00005 14.9001L 6.0999 35.5002Z"/>
<path id="path10_fill" d="M 18.2 9.76563e-05L 18.2 58.4L 85.7 58.4L 85.7 9.76563e-05L 103.9 9.76563e-05L 103.9 139.5L 85.7 139.5L 85.7 74.1002L 18.2 74.1002L 18.2 139.5L 0 139.5L 0 9.76563e-05L 18.2 9.76563e-05Z"/>
<path id="path11_fill" d="M 19.9 -9.76563e-05L 41.5999 59.2001C 44.0999 65.8001 46.6 73.7001 48.2 79.7001L 48.5999 79.7001C 50.4999 73.7001 52.5 66.0002 55 58.8002L 74.8999 -9.76563e-05L 94.0999 -9.76563e-05L 66.8001 71.3998C 53.8001 105.7 44.9 123.1 32.5 134.1C 23.4 141.8 14.7 144.9 10.2 145.7L 5.5999 130.6C 10.1999 129.2 16.2001 126.3 21.5 121.7C 26.5 117.8 32.5001 110.7 36.8001 101.4C 37.6001 99.4998 38.2 98.1 38.2 97.1C 38.2 96.1 37.8001 94.6002 36.8001 92.3002L 4.88281e-05 -9.76563e-05L 19.9 -9.76563e-05Z"/>
<path id="path12_fill" d="M 0.800098 34.7001C 0.800098 21.9001 0.400049 11.4999 4.88281e-05 1.9999L 16.0999 1.9999L 17.0999 19.2001L 17.5 19.2001C 24.7001 7.0001 36.6999 -9.76563e-05 53.0999 -9.76563e-05C 77.4999 -9.76563e-05 95.7 20.5001 95.7 50.7001C 95.7 86.7001 73.6001 104.5 50 104.5C 36.8 104.5 25.2 98.7002 19.2 88.8002L 18.8001 88.8002L 18.8001 143.2L 0.800098 143.2L 0.800098 34.7001ZM 18.8001 61.3998C 18.8001 64.0998 18.9999 66.6002 19.5999 68.8002C 22.8999 81.4002 33.9 90.1 46.9 90.1C 66.1 90.1 77.3001 74.3998 77.3001 51.3998C 77.3001 31.4998 66.7001 14.3998 47.5 14.3998C 35.1001 14.3998 23.3 23.1001 20 36.7001C 19.4 39.0001 18.8001 41.6998 18.8001 43.8998L 18.8001 61.3998Z"/>
<path id="path13_fill" d="M 17.4001 55.4998C 17.8001 80.0998 33.2999 90.3001 51.6999 90.3001C 64.6999 90.3001 72.8001 87.9999 79.4001 85.0999L 82.6999 98.0999C 76.2999 101 65.0999 104.5 49.1999 104.5C 18.3999 104.5 -4.88281e-05 84.0001 -4.88281e-05 53.8001C -4.88281e-05 23.6001 17.7999 -0.000195313 47 -0.000195313C 79.8999 -0.000195313 88.4001 28.5998 88.4001 46.9998C 88.4001 50.6998 88.2 53.3998 87.8 55.4998L 17.4001 55.4998ZM 70.8 42.4998C 71 31.0998 66 13.0999 45.6 13.0999C 27 13.0999 19.0999 29.8998 17.6999 42.4998L 70.8 42.4998Z"/>
<path id="path14_fill" d="M 0.799951 33.2002C 0.799951 21.4002 0.599902 11.3 -9.76563e-05 2L 15.9 2L 16.7001 21.8999L 17.3 21.8999C 21.9 8.4999 33.0001 0 45.2001 0C 47.1001 0 48.5001 0.199902 50.2001 0.399902L 50.2001 17.6001C 48.3001 17.2001 46.4999 17.2002 43.9999 17.2002C 31.1999 17.2002 22.1 26.6999 19.6 40.3999C 19.2 42.8999 18.9999 45.9999 18.9999 48.8999L 18.9999 102.3L 0.799951 102.3L 0.799951 33.2002Z"/>
<path id="path15_fill" d="M 51.0999 9.76563e-05L 51.0999 13.1998L 4.88281e-05 13.1998L 4.88281e-05 9.76563e-05L 51.0999 9.76563e-05Z"/>
<path id="path16_fill" d="M 45.6999 139.5L -4.88281e-05 9.76563e-05L 19.6999 9.76563e-05L 41.4001 68.6998C 47.2001 87.4998 52.4 104.5 56.3 120.8L 56.6999 120.8C 60.5999 104.7 66.2001 87.1 72.6001 68.9L 96.1999 9.76563e-05L 115.4 9.76563e-05L 65.5 139.5L 45.6999 139.5Z"/>
</defs>
</svg>
