<svg width="741" height="741" viewBox="0 0 741 741" version="1.1" xmlns="http://www.w3.org/2000/svg" xmlns:xlink="http://www.w3.org/1999/xlink">
<title>Vector</title>
<desc>Created using Figma</desc>
<g id="Canvas" transform="translate(1335 -905)">
<g id="Vector">
<use xlink:href="#path0_fill" transform="translate(-1334.45 905.35)" fill="#FFFFFF"/>
</g>
</g>
<defs>
<path id="path0_fill" d="M 726.05 337.05L 402.95 13.9501C 384.35 -4.6499 354.15 -4.6499 335.55 13.9501L 268.45 81.0499L 353.55 166.15C 373.35 159.45 396.05 163.95 411.75 179.75C 427.55 195.65 432.05 218.45 425.15 238.35L 507.15 320.35C 526.95 313.55 549.85 317.95 565.75 333.85C 587.85 355.95 587.85 391.85 565.75 414.05C 543.55 436.25 507.75 436.25 485.55 414.05C 468.85 397.35 464.75 372.95 473.25 352.35L 396.75 275.85L 396.75 477.15C 402.25 479.85 407.35 483.55 411.75 487.85C 433.95 509.95 433.95 545.85 411.75 568.05C 389.55 590.15 353.65 590.15 331.55 568.05C 309.45 545.85 309.45 509.95 331.55 487.85C 336.85 482.55 343.15 478.35 350.15 475.45L 350.15 272.25C 343.15 269.45 336.85 265.25 331.55 259.85C 314.75 243.05 310.75 218.45 319.35 197.85L 235.45 113.95L 13.95 335.45C -4.64998 354.05 -4.64998 384.25 13.95 402.85L 337.05 725.95C 355.65 744.55 385.85 744.55 404.45 725.95L 726.05 404.35C 744.65 385.85 744.65 355.65 726.05 337.05Z"/>
</defs>
</svg>
