<svg width="395" height="395" viewBox="0 0 395 395" version="1.1" xmlns="http://www.w3.org/2000/svg" xmlns:xlink="http://www.w3.org/1999/xlink">
<title>Vector</title>
<desc>Created using Figma</desc>
<g id="Canvas" transform="translate(971 -412)">
<g id="Vector">
<use xlink:href="#path0_fill" transform="translate(-970.2 412.6)" fill="#FFFFFF"/>
</g>
</g>
<defs>
<path id="path0_fill" d="M 197.1 -9.76563e-05C 88.3 -9.76563e-05 -4.88281e-05 88.2 -4.88281e-05 197.1C -4.88281e-05 305.9 88.2001 394.2 197.1 394.2C 305.9 394.2 394.2 306 394.2 197.1C 394.2 88.3 305.9 -9.76563e-05 197.1 -9.76563e-05ZM 303.4 114.1C 294.3 114.4 288 109 287.7 100.7C 287.6 97.7001 288.4 95 290.5 91.9C 292.5 87.9 293 87.5001 292.9 85.7001C 292.7 80.5001 284.8 80.3 282.7 80.4C 253.1 81.4 245.3 121.3 239 153.8L 235.9 170.9C 252.9 173.4 265 170.3 271.8 166C 281.3 159.8 269.1 153.5 270.7 146.5C 272.3 139.4 278.8 135.9 283.9 135.8C 291.1 135.6 296.3 143.1 296.1 150.7C 295.8 163.3 279.1 180.6 245.7 179.9C 241.6 179.8 237.9 179.5 234.4 179.1L 228.1 213.9C 222.5 240.2 215 276.2 188.2 307.6C 165.2 335 141.8 339.2 131.3 339.6C 111.7 340.3 98.7 329.8 98.3 315.9C 97.9 302.4 109.8 295 117.6 294.8C 128 294.5 135.3 302 135.6 310.8C 135.9 318.2 132 320.5 129.5 321.9C 127.8 323.3 125.2 324.7 125.3 327.7C 125.4 329 126.8 332 131.1 331.9C 139.4 331.6 144.9 327.5 148.7 324.8C 167.8 308.9 175.1 281.2 184.7 230.8L 186.7 218.6C 190 202.2 193.6 183.9 199.2 165.7C 185.8 155.6 177.7 143 159.6 138.1C 147.2 134.7 139.6 137.6 134.3 144.3C 128 152.3 130.1 162.6 136.2 168.7L 146.2 179.8C 158.5 194 165.3 205.1 162.7 220C 158.7 243.8 130.3 262 96.8 251.7C 68.2 242.9 62.9 222.6 66.3 211.5C 69.3 201.7 77.1 199.8 84.8 202.2C 93 204.7 96.2 214.7 93.8 222.3C 93.5 223.1 93.1 224.5 92.3 226.3C 91.3 228.4 89.6 230.2 88.8 232.7C 87 238.7 95.2 242.9 100.9 244.7C 113.7 248.6 126.2 241.9 129.3 231.6C 132.2 222.1 126.2 215.4 123.7 212.9L 111.6 199.9C 106.1 193.7 93.9 176.5 99.8 157.2C 102.1 149.8 106.9 141.8 113.9 136.6C 128.7 125.6 144.8 123.8 160.1 128.2C 179.9 133.9 189.4 147 201.8 157.1C 208.7 136.8 218.3 117 232.7 100.2C 245.7 84.9001 263.2 73.9001 283.2 73.2001C 303.2 72.5001 318.3 81.5999 318.8 95.9999C 319.1 101.8 315.6 113.7 303.4 114.1Z"/>
</defs>
</svg>
