<svg width="1425" height="324" viewBox="0 0 1425 324" version="1.1" xmlns="http://www.w3.org/2000/svg" xmlns:xlink="http://www.w3.org/1999/xlink">
<title>Group</title>
<desc>Created using Figma</desc>
<g id="Canvas" transform="translate(31 -1083)">
<g id="Group">
<g id="Group">
<g id="Vector">
<use xlink:href="#path0_fill" transform="translate(-30.4214 1147.2)" fill="#FFFFFF"/>
</g>
<g id="Vector">
<use xlink:href="#path1_fill" transform="translate(107.9 1109.3)" fill="#FFFFFF"/>
</g>
<g id="Vector">
<use xlink:href="#path2_fill" transform="translate(43.3093 1121.2)" fill="#FFFFFF"/>
</g>
</g>
<g id="Group">
<g id="Vector">
<use xlink:href="#path3_fill" transform="translate(1184.3 1107.1)" fill="#FFFFFF"/>
</g>
<g id="Vector">
<use xlink:href="#path4_fill" transform="translate(1038.8 1134.14)" fill="#FFFFFF"/>
</g>
<g id="Vector">
<use xlink:href="#path5_fill" transform="translate(847.459 1131.96)" fill="#FFFFFF"/>
</g>
<g id="Vector">
<use xlink:href="#path6_fill" transform="translate(658.107 1134.3)" fill="#FFFFFF"/>
</g>
<g id="Vector">
<use xlink:href="#path7_fill" transform="translate(407.565 1083.12)" fill="#FFFFFF"/>
</g>
<g id="Vector">
<use xlink:href="#path8_fill" transform="translate(338.7 1134.6)" fill="#FFFFFF"/>
</g>
<g id="Vector">
<use xlink:href="#path9_fill" transform="translate(251.6 1194.8)" fill="#FFFFFF"/>
</g>
</g>
</g>
</g>
<defs>
<path id="path0_fill" d="M 26.9215 12.3999L 28.0216 8.69995C 27.4216 8.69995 33.0215 -4.54747e-13 32.4215 -4.54747e-13C -9.17851 40.2 -5.57852 94.0999 14.4215 132.9C 28.3215 159.9 53.9215 185.2 84.2215 198.8C 98.3215 205.1 119.821 210.9 142.421 210.4C 190.721 209.4 224.622 186.5 243.722 149.3L 244.822 146.4C 227.922 163.4 200.421 175.2 178.921 177.4C 89.3215 186.6 -2.97852 106.2 26.9215 12.3999Z"/>
<path id="path1_fill" d="M 7.70047 64.1C 19.6005 83.2 42.2005 99.9 77.5005 92.4C 86.4005 90.5 106.6 75.3 110.1 67.2001C 79.8004 87.8 61.0004 80.8999 52.1004 78.2999C 50.1004 77.6999 45.6004 75.7001 41.4004 73.2001C 32.0004 67.6001 27.4004 64.9999 20.1004 54.2999C 16.1004 48.4999 12.1006 39.2 10.8006 33.9C 8.60057 25.1 9.20042 11.6001 13.4004 9.76563e-05C -0.299578 12.2001 -2.39953 35.9001 2.20047 51.5001C 2.70047 53.4001 6.00047 61.2 7.70047 64.1Z"/>
<path id="path2_fill" d="M 81.9908 153C 129.391 159.3 164.791 139.4 176.991 108.4C 162.991 123.2 139.391 133.8 116.891 133.6C 66.3909 133.3 9.69079 88 15.9908 25C 16.4908 19.6 18.6908 11.1 24.4908 0C 7.79079 21.1 -2.40921 38.5 0.490787 67.7C 4.49079 107.7 42.2908 147.7 81.9908 153Z"/>
<path id="path3_fill" d="M 149.7 -9.76563e-05L 64 118.6L 56.1999 87.6L -4.88281e-05 87.6C -4.88281e-05 87.6 5.5999 115.8 9.6999 130.3C 13.7999 144.6 21 158.8 21.3 173C 21.7 189.3 13.1 219.8 13.1 219.8L 67.8 219.5C 67.8 219.5 73.7001 190.2 79.4001 176.8C 81.7001 171.5 86.1001 167.2 89.1001 163.2C 98.2001 150.9 209.4 0.299951 209.4 0.299951L 149.7 -9.76563e-05Z"/>
<path id="path4_fill" d="M 182 4.7636C 170 -2.4364 141.4 0.663742 116.9 0.663742L 79 0.663742C 55.3 0.663742 41.2 -0.936404 38.8 8.2636C 31.4 36.5636 -4.88281e-05 192.564 -4.88281e-05 192.564L 50.4001 192.564L 83.4001 49.0636L 110.6 49.0636C 142 49.0636 199.8 48.1637 199.8 48.1637C 199.8 48.1637 193 11.3636 182 4.7636Z"/>
<path id="path5_fill" d="M 180.241 22.1413C 169.641 7.44132 148.041 2.24151 133.741 0.841515C 95.6409 -3.05849 63.9408 7.14142 46.4408 20.2414C 41.1408 24.2414 36.7407 27.3415 32.8407 31.8415C 31.4407 33.4415 29.9408 35.3413 28.6408 37.1413C 27.5408 38.7413 26.1407 39.8415 25.0407 41.5415C 23.4407 43.9415 21.7409 48.6414 19.7409 52.7414C 18.1409 56.0414 16.6407 59.8414 15.3407 62.9414C 4.84074 89.2414 -5.85912 138.242 3.74088 163.842C 5.14088 167.642 8.34083 172.442 9.44083 173.842C 10.8408 175.642 12.0408 177.742 13.4408 179.342C 18.7408 185.042 26.4409 189.041 34.7409 190.941C 76.7409 200.941 160.841 196.741 160.841 196.741L 171.141 151.141C 171.141 151.141 111.641 153.841 83.2409 150.241C 78.9409 149.741 67.1407 149.141 61.0407 143.741C 55.7407 139.141 49.5408 128.241 54.1408 121.141C 57.3408 116.041 70.4407 117.541 81.3407 117.241C 116.341 116.141 180.241 117.241 180.241 117.241C 180.241 117.241 192.441 62.8413 186.041 39.6413C 184.441 33.9413 183.041 26.1413 180.241 22.1413ZM 138.541 76.8415L 63.3407 76.3415C 63.3407 76.3415 62.5407 43.8414 106.341 45.2414C 121.841 45.7414 127.341 47.8414 133.241 56.9414C 140.141 67.5414 138.541 76.8415 138.541 76.8415Z"/>
<path id="path6_fill" d="M 144.093 0.299902L 109.193 145.8C 109.193 145.8 89.8928 145.9 83.9928 145.8C 65.3928 145.4 59.2927 144.8 54.8927 136.1C 50.2927 127 54.6929 115.4 56.7929 103.1C 62.7929 68.8 77.0929 9.76563e-05 77.0929 9.76563e-05L 26.3927 0.500098C 26.3927 0.500098 16.7928 44.6999 12.1928 66.2999C 5.69278 96.7999 -8.10727 141.8 6.39273 169.1C 21.2927 197.2 56.2929 192.4 95.5929 192.4L 151.793 192.4C 165.693 129.4 192.893 0.0999512 192.893 0.0999512L 144.093 0.299902Z"/>
<path id="path7_fill" d="M 233.735 72.7808C 230.735 51.0808 216.635 27.5809 201.135 17.6809C 200.535 17.2809 197.734 15.0808 196.934 14.5808C 185.434 7.88082 167.035 2.28072 154.235 0.980717C 88.2345 -5.81928 48.8345 23.5808 26.2345 63.0808C 17.3345 78.5808 11.4346 95.5807 6.83462 113.481C 1.73462 133.381 -1.86542 157.481 1.03458 179.381C 2.73458 192.481 10.0345 211.181 20.4345 222.081C 46.1345 248.881 96.5346 245.381 150.335 245.381C 166.835 245.381 206.435 245.081 218.335 244.781C 222.235 244.681 233.235 199.581 232.235 198.181C 231.235 197.081 218.135 198.581 203.035 197.281C 217.835 158.181 239.235 113.381 233.735 72.7808ZM 165.835 144.581C 160.935 161.881 156.135 179.381 150.335 194.981C 111.135 194.781 74.7346 200.081 63.0346 175.581C 56.4346 161.681 59.4346 142.981 63.0346 125.181C 67.9346 101.181 72.5346 83.7807 86.3346 68.9807C 96.9346 57.4807 123.735 43.3807 152.235 53.4807C 161.735 56.8807 176.434 72.7808 177.434 90.2808C 178.434 106.581 170.935 126.381 165.835 144.581Z"/>
<path id="path8_fill" d="M 9.76563e-05 46.4999L 54.2999 46.4999C 57.6999 31.7999 60.9999 15.0001 64.2999 0.200098C 45.1999 0.200098 29.1 -9.76563e-05 11.7 -9.76563e-05C 7.40005 14.0999 4.2001 30.2999 9.76563e-05 46.4999Z"/>
<path id="path9_fill" d="M 63.8 89.1C 55.8 126.8 54.6999 165.9 13.3999 160.9C 9.3999 175.4 4.4 194.9 0 211.2C 17 211.6 32.5999 212.8 46.3999 211.4C 54.8999 210.5 70.2001 206.8 73.6001 203.6C 74.9001 202.3 75.9 202.9 77.5 201.7C 95.5 187.6 99.9001 168.2 106.6 141.6C 117.2 98.9999 130.8 37.9001 137.6 9.76563e-05L 85.2 9.76563e-05C 82.5 8.6001 68.5 67.3999 63.8 89.1Z"/>
</defs>
</svg>
