<svg width="554" height="291" viewBox="0 0 554 291" version="1.1" xmlns="http://www.w3.org/2000/svg" xmlns:xlink="http://www.w3.org/1999/xlink">
<title>Group</title>
<desc>Created using Figma</desc>
<g id="Canvas" transform="translate(-328 2427)">
<g id="Group">
<g id="Vector">
<use xlink:href="#path0_fill" transform="translate(328.9 -2426.8)" fill="#FFFFFF"/>
</g>
<g id="Vector">
<use xlink:href="#path1_fill" transform="translate(704.6 -2322.7)" fill="#FFFFFF"/>
</g>
<g id="Vector">
<use xlink:href="#path2_fill" transform="translate(456.7 -2322.7)" fill="#FFFFFF"/>
</g>
</g>
</g>
<defs>
<path id="path0_fill" d="M 276.5 0C 123.8 0 4.88281e-05 65.1 4.88281e-05 145.4C 4.88281e-05 225.7 123.8 290.8 276.5 290.8C 429.2 290.8 553 225.7 553 145.4C 553 65.1 429.2 0 276.5 0ZM 201.4 171.6C 195.1 177.5 188 181.8 180.3 184.3C 172.5 186.8 162.7 188.1 150.7 188.1L 123.5 188.1L 116 226.9L 84.2 226.9L 112.5 81.1L 173.6 81.1C 192 81.1 205.4 85.9 213.8 95.6C 222.2 105.3 224.8 118.7 221.4 136C 220 143.1 217.7 149.6 214.4 155.5C 211 161.3 206.7 166.7 201.4 171.6ZM 294.1 188.1L 306.6 123.6C 308 116.3 307.5 111.3 305 108.6C 302.5 105.9 297.3 104.6 289.2 104.6L 264 104.6L 247.8 188.1L 216.3 188.1L 244.6 42.4L 276.1 42.4L 268.6 81.1L 296.7 81.1C 314.4 81.1 326.5 84.2 333.2 90.3C 339.9 96.5 341.9 106.4 339.2 120.2L 326 188L 294.1 188L 294.1 188.1ZM 469.2 135.9C 467.8 143 465.5 149.5 462.2 155.4C 458.9 161.3 454.6 166.7 449.3 171.6C 443 177.5 435.9 181.8 428.2 184.3C 420.4 186.8 410.6 188.1 398.6 188.1L 371.4 188.1L 363.9 226.9L 332.1 226.9L 360.4 81.1L 421.5 81.1C 439.9 81.1 453.3 85.9 461.7 95.6C 470 105.2 472.5 118.7 469.2 135.9Z"/>
<path id="path1_fill" d="M 33.7 6.10352e-06L 11.8999 6.10352e-06L 4.54747e-13 61L 19.3 61C 32.1 61 41.5999 58.6 47.8999 53.8C 54.1999 49 58.4001 40.9 60.6001 29.6C 62.7001 18.8 61.7 11.1 57.7 6.69999C 53.7999 2.19999 45.7 6.10352e-06 33.7 6.10352e-06Z"/>
<path id="path2_fill" d="M 33.7001 6.10352e-06L 11.9 6.10352e-06L 9.76563e-05 61L 19.2999 61C 32.0999 61 41.6 58.6 47.9 53.8C 54.2 49 58.4 40.9 60.6 29.6C 62.7 18.8 61.7001 11.1 57.7001 6.69999C 53.8 2.19999 45.8 6.10352e-06 33.7001 6.10352e-06Z"/>
</defs>
</svg>
