<svg width="489" height="551" viewBox="0 0 489 551" version="1.1" xmlns="http://www.w3.org/2000/svg" xmlns:xlink="http://www.w3.org/1999/xlink">
<title>Group</title>
<desc>Created using Figma</desc>
<g id="Canvas" transform="translate(-261 1797)">
<g id="Group">
<g id="Vector">
<use xlink:href="#path0_fill" transform="translate(261.5 -1796.8)" fill="#FFFFFF"/>
</g>
<g id="Vector">
<use xlink:href="#path1_fill" transform="translate(470.098 -1548.1)" fill="#FFFFFF"/>
</g>
</g>
</g>
<defs>
<path id="path0_fill" d="M 457 197L 443.8 197L 443.8 133.2C 443.8 132.8 443.7 132.4 443.7 132C 443.7 129.5 442.9 127 441.1 125L 334.9 3.70001C 334.9 3.70001 334.8 3.69998 334.8 3.59998C 334.2 2.89998 333.4 2.29999 332.6 1.79999C 332.4 1.59999 332.1 1.50002 331.9 1.40002C 331.2 1.00002 330.5 0.7 329.8 0.5C 329.6 0.4 329.4 0.399988 329.2 0.299988C 328.4 0.0999878 327.6 -1.13687e-13 326.7 -1.13687e-13L 65.7001 -1.13687e-13C 53.8001 -1.13687e-13 44.1 9.69998 44.1 21.6L 44.1 197L 30.9 197C 13.9 197 -9.76563e-05 210.8 -9.76563e-05 227.9L -9.76563e-05 388.4C -9.76563e-05 405.4 13.8 419.3 30.9 419.3L 44.1 419.3L 44.1 529.2C 44.1 541.1 53.8001 550.8 65.7001 550.8L 422.1 550.8C 434 550.8 443.7 541.1 443.7 529.2L 443.7 419.3L 456.9 419.3C 473.9 419.3 487.8 405.5 487.8 388.4L 487.8 227.9C 487.9 210.8 474.1 197 457 197ZM 65.7999 21.6L 316 21.6L 316 132.1C 316 138.1 320.8 142.9 326.8 142.9L 422.2 142.9L 422.2 197L 65.7999 197L 65.7999 21.6ZM 325.8 383.2L 315.3 411.4C 292.3 404.7 273.2 397.8 251.7 388.7C 248.1 387.3 244.3 386.5 240.5 386.3C 204.1 383.9 170.2 357.1 170.2 304.5C 170.2 256.2 200.8 219.8 248.9 219.8C 298.2 219.8 325.2 257.1 325.2 301.2C 325.2 337.8 308.2 363.6 286.9 373.2L 286.9 374.2C 299.2 377.7 313.1 380.6 325.8 383.2ZM 41.9999 376.3L 49.4 346.2C 59.2 351.2 74.2999 356.2 89.7999 356.2C 106.6 356.2 115.4 349.3 115.4 338.7C 115.4 328.6 107.8 322.9 88.4 316C 61.6 306.7 44.1 291.8 44.1 268.4C 44.1 240.9 67.1 219.8 105.1 219.8C 123.3 219.8 136.7 223.6 146.3 227.9L 138.2 257.3C 131.7 254.2 120.3 249.6 104.5 249.6C 88.6999 249.6 80.9999 256.8 80.9999 265.1C 80.9999 275.4 90.1001 279.9 110.9 287.8C 139.4 298.3 152.8 313.2 152.8 335.9C 152.8 362.9 132 385.9 87.7001 385.9C 69.2001 386.1 50.9999 381.3 41.9999 376.3ZM 422.2 523.4L 65.7999 523.4L 65.7999 419.3L 422.2 419.3L 422.2 523.4ZM 449.7 383.7L 349 383.7L 349 222.4L 385.6 222.4L 385.6 353L 449.7 353L 449.7 383.7Z"/>
<path id="path1_fill" d="M 39.202 -4.88281e-05C 14.302 -4.88281e-05 0.0020016 24.4 0.0020016 54.6C -0.197998 85.2001 14.602 108.7 39.002 108.7C 63.602 108.7 78.002 85.5 78.002 53.9C 77.902 24.4 64.102 -4.88281e-05 39.202 -4.88281e-05Z"/>
</defs>
</svg>
