<svg width="392" height="50" viewBox="0 0 392 50" version="1.1" xmlns="http://www.w3.org/2000/svg" xmlns:xlink="http://www.w3.org/1999/xlink">
<title>Group</title>
<desc>Created using Figma</desc>
<g id="Canvas" transform="translate(2101 405)">
<g id="Group">
<g id="Vector">
<use xlink:href="#path0_fill" transform="translate(-2100.5 -404.3)" fill="#FFFFFF"/>
</g>
<g id="Vector">
<use xlink:href="#path1_fill" transform="translate(-1720.1 -404.2)" fill="#FFFFFF"/>
</g>
</g>
</g>
<defs>
<path id="path0_fill" d="M 162.9 31.8999L 187.8 31.8999L 174.6 10.7L 150.4 49.1001L 139.4 49.1001L 168.8 3C 170.1 1.1 172.2 -4.54747e-13 174.5 -4.54747e-13C 176.8 -4.54747e-13 178.9 1.0999 180.2 2.8999L 209.7 49.1001L 198.7 49.1001L 193.5 40.5L 168.2 40.5L 162.9 31.8999ZM 277.3 40.5L 277.3 0.5L 268 0.5L 268 44.3999C 268 45.5999 268.5 46.8001 269.4 47.6001C 270.3 48.5001 271.5 49 272.8 49L 315.4 49L 320.9 40.3999L 277.3 40.3999L 277.3 40.5ZM 122.7 33.3C 131.8 33.3 139.1 25.8999 139.1 16.8999C 139.1 7.7999 131.7 0.5 122.7 0.5L 81.8 0.5L 81.8 49.1001L 91.1 49.1001L 91.1 9.1001L 122 9.1001C 126.4 9.1001 129.9 12.6 129.9 17C 129.9 21.3 126.4 24.8999 122 24.8999L 95.7 24.8999L 123.6 49.2L 137.2 49.2L 118.4 33.5L 122.7 33.3ZM 24.3 49C 10.9 49 -6.10352e-06 38.1 -6.10352e-06 24.7C -6.10352e-06 11.3 10.9 0.399902 24.3 0.399902L 52.6 0.399902C 66 0.399902 76.9 11.3 76.9 24.7C 76.9 38.1 66 49 52.6 49L 24.3 49ZM 51.9 40.5C 60.6 40.5 67.6 33.5 67.6 24.8C 67.6 16.1 60.6 9.1001 51.9 9.1001L 24.9 9.1001C 16.2 9.1001 9.20001 16.1 9.20001 24.8C 9.20001 33.5 16.2 40.5 24.9 40.5L 51.9 40.5ZM 229.4 49C 216 49 205.1 38.1 205.1 24.7C 205.1 11.3 216 0.399902 229.4 0.399902L 263 0.399902L 257.5 9L 230.1 9C 221.4 9 214.4 16 214.4 24.7C 214.4 33.4 221.4 40.3999 230.1 40.3999L 263.8 40.3999L 258.3 49L 229.4 49ZM 343.7 40.5C 336.5 40.5 330.4 35.7001 328.6 29.1001L 368.5 29.1001L 374 20.5L 328.5 20.5C 330.4 13.9 336.4 9 343.6 9L 371 9L 376.5 0.399902L 342.9 0.399902C 329.5 0.399902 318.6 11.3 318.6 24.7C 318.6 38.1 329.5 49 342.9 49L 371.7 49L 377.2 40.3999L 343.7 40.3999L 343.7 40.5Z"/>
<path id="path1_fill" d="M 1.2 5.5001C 1.2 3.1001 3.09999 1.20005 5.49999 1.20005C 7.89999 1.20005 9.79998 3.1001 9.79998 5.5001C 9.79998 7.9001 7.89999 9.7999 5.49999 9.7999C 3.09999 9.7999 1.2 7.9001 1.2 5.5001ZM 5.49999 11.0001C 8.49999 11.0001 11 8.6001 11 5.5001C 11 2.4001 8.49999 9.76563e-05 5.49999 9.76563e-05C 2.49999 9.76563e-05 -1.2207e-05 2.4001 -1.2207e-05 5.5001C -1.2207e-05 8.6001 2.49999 11.0001 5.49999 11.0001ZM 4.99999 2.2999C 5.79999 2.2999 6.20002 2.3001 6.60002 2.5001C 7.70002 2.9001 7.79998 3.90005 7.79998 4.20005C 7.79998 4.30005 7.8 4.50005 7.7 4.70005C 7.6 4.90005 7.50001 5.40005 6.90001 5.70005C 6.80001 5.70005 6.80002 5.7999 6.60002 5.7999L 7.99999 8.2999L 6.60002 8.2999L 5.40001 6.0001L 4.60002 6.0001L 4.60002 8.2999L 3.40001 8.2999L 3.40001 2.20005L 4.99999 2.20005L 4.99999 2.2999ZM 5.40001 5.0001C 5.80001 5.0001 6.20001 4.99995 6.40001 4.59995C 6.50001 4.39995 6.49999 4.29995 6.49999 4.09995C 6.49999 3.79995 6.29999 3.5 5.99999 3.4C 5.69999 3.3 5.40001 3.2999 4.90001 3.2999L 4.60002 3.2999L 4.60002 5.09995L 5.40001 5.09995L 5.40001 5.0001Z"/>
</defs>
</svg>
