<svg width="825" height="533" viewBox="0 0 825 533" version="1.1" xmlns="http://www.w3.org/2000/svg" xmlns:xlink="http://www.w3.org/1999/xlink">
<title>Group</title>
<desc>Created using Figma</desc>
<g id="Canvas" transform="translate(15 1084)">
<g id="Group">
<g id="Group">
<g id="Vector">
<use xlink:href="#path0_fill" transform="translate(439.035 -1083.5)" fill="#FFFFFF"/>
</g>
<g id="Vector">
<use xlink:href="#path1_fill" transform="translate(354.976 -907.6)" fill="#FFFFFF"/>
</g>
<g id="Vector">
<use xlink:href="#path2_fill" transform="translate(247.279 -1063.4)" fill="#FFFFFF"/>
</g>
</g>
<g id="Group">
<g id="Vector">
<use xlink:href="#path3_fill" transform="translate(155.9 -703)" fill="#FFFFFF"/>
</g>
<g id="Vector">
<use xlink:href="#path4_fill" transform="translate(113.2 -690.4)" fill="#FFFFFF"/>
</g>
<g id="Vector">
<use xlink:href="#path5_fill" transform="translate(75.3 -717.9)" fill="#FFFFFF"/>
</g>
<g id="Vector">
<use xlink:href="#path6_fill" transform="translate(-14.3999 -689.8)" fill="#FFFFFF"/>
</g>
</g>
</g>
</g>
<defs>
<path id="path0_fill" fill-rule="evenodd" d="M 3.06541 89.8999C -12.1346 47.1999 32.2655 1.40005 68.6655 4.88281e-05C 90.4655 11.1 109.265 40.3 108.365 80C 105.465 128.8 70.0654 170.9 31.5654 209.7C 29.3654 162.4 19.1654 132.3 3.06541 89.8999Z"/>
<path id="path1_fill" fill-rule="evenodd" d="M 1.12425 145.3C -4.97575 97.6 14.8242 56.9 34.5242 32.1C 43.9242 20.5 51.0242 9.79995 56.5242 -4.88281e-05C 66.8242 4.39995 94.6242 18.6 110.024 41.7C 107.824 75.3 82.4243 136.4 1.12425 145.3Z"/>
<path id="path2_fill" fill-rule="evenodd" d="M 78.1214 120.003C 13.4214 102.303 -2.57864 46.9025 0.321365 9.60253C 63.1214 -15.2975 130.721 10.2025 169.821 63.3025C 197.221 100.502 214.321 148.202 217.821 189.802C 199.021 165.602 175.321 151.603 145.121 140.603C 124.421 133.103 105.421 128.103 78.1214 120.003Z"/>
<path id="path3_fill" d="M 40.5999 8.7L 40.5999 3.50005C 40.5999 2.10005 39.8 1.19995 37.5 0.899951C 34.6 0.399951 29.2 4.88281e-05 23.7 4.88281e-05C 9.2 4.88281e-05 4.88281e-05 4.89995 4.88281e-05 21.4L 4.88281e-05 113.7C 4.88281e-05 115.4 1.3999 116.8 3.0999 116.8L 10.5 116.8C 12.2 116.8 13.5999 115.4 13.5999 113.7L 13.5999 43L 37.5999 43C 39.2999 43 40.5 41.8 40.5 40.2L 40.5 35C 40.5 33.3 39.2999 32.2 37.5999 32.2L 13.5999 32.2L 13.5999 21.4C 13.5999 12.3 15.3 10.9 23.7 10.9L 37.4 10.9C 39.5 10.9 40.5999 10.1 40.5999 8.7ZM 90 40.4L 90 33.3C 90 31.1 88.8001 31 86.8001 31C 74.0001 31 63.4 31.5 54.7 35.3C 53 36.1 51.9 37.1 51.9 38.8L 51.9 113.5C 51.9 115.2 53.1 116.6 54.7 116.6L 62.7 116.6C 64.4 116.6 65.5 115.1 65.5 113.5L 65.5 44.3C 71.3 43.1 76.3999 42.8 86.8999 42.8C 89.7 42.9 90 42.1 90 40.4ZM 156.8 110.7L 156.8 38.1C 156.8 35.9 156.3 35.2 153.6 34.6C 145.4 32.6 134.5 31.1 125.3 31.1C 102.2 31.1 91.8001 46 91.8001 69.1L 91.8001 79.8999C 91.8001 103 102.4 117.9 125.3 117.9C 134.7 117.9 145.4 116.3 153.6 114.3C 156.4 113.6 156.8 112.7 156.8 110.7ZM 143.3 104.8C 139 105.6 131.8 106.3 125.3 106.3C 110.1 106.3 105.3 95.8 105.3 79.7L 105.3 68.8999C 105.3 52.5999 110.1 42.3 125.3 42.3C 131.8 42.3 139.1 43.1 143.3 43.8L 143.3 104.8ZM 268.9 113.6L 268.9 57.9C 268.9 42.1 260 31 241.5 31L 238 31C 228.8 31 222.6 32.5 218 36.5C 213.2 32.2001 207.2 31 198 31L 194.5 31C 176 31 167.1 42.1 167.1 57.9L 167.1 113.6C 167.1 115.3 168.2 116.7 169.9 116.7L 177.9 116.7C 179.6 116.7 180.7 115.3 180.7 113.6L 180.7 57.9C 180.7 44.7 186.5 42.8 194.5 42.8L 198 42.8C 207.8 42.8 211.2 44.5 211.2 53.3L 211.2 113.6C 211.2 115.3 212.3 116.7 214 116.7L 222 116.7C 223.7 116.7 224.8 115.3 224.8 113.6L 224.8 53.3C 224.8 44.5 228.2 42.8 238 42.8L 241.5 42.8C 249.7 42.8 255.3 44.6 255.3 57.9L 255.3 113.6C 255.3 115.3 256.4 116.7 258.1 116.7L 266.1 116.7C 267.8 116.7 268.9 115.3 268.9 113.6ZM 344.3 75.3L 344.3 67C 344.3 45.2 332.9 31 310.5 31C 288.5 31 276.4 45 276.4 67L 276.4 80.8C 276.4 109.4 293.6 117.7 311.3 117.7C 321.6 117.7 330.1 116.8 338.8 115.1C 341.3 114.6 341.9 113.6 341.9 111.6L 341.9 106.4C 341.9 104.9 340.7 104.2 339.4 104.2C 339.1 104.2 338.9 104.2 338.6 104.2C 331.5 105.3 320.1 105.9 311.2 105.9C 297 105.9 289.8 99.1 289.8 80.8L 289.8 78.6L 341.3 78.6C 343.2 78.7 344.3 77.3 344.3 75.3ZM 330.6 68.3999L 289.8 68.3999L 289.8 67C 289.8 50.4 297.2 42.9 310.4 42.9C 323.9 42.9 330.5 49.7 330.5 67L 330.5 68.3999L 330.6 68.3999ZM 456.5 83.3L 456.5 35.2C 456.5 33.5 455.1 32.1 453.4 32.1L 446.2 32.1C 444.5 32.1 443.1 33.5 443.1 35.2L 443.1 83.3C 443.1 100.1 436.8 106.2 424.2 106.2C 420.4 106.2 416.4 105.3 411.9 104.2L 411.9 35.2C 411.9 33.5 410.5 32.1 408.8 32.1L 401.3 32.1C 399.6 32.1 398.2 33.5 398.2 35.2L 398.2 104.2C 393.7 105.3 389.7 106.2 385.9 106.2C 373 106.2 367 100 367 83.3L 367 35.2C 367 33.5 365.6 32.1 363.9 32.1L 356.7 32.1C 355 32.1 353.6 33.5 353.6 35.2L 353.6 83.3C 353.6 110.5 368.8 117.8 384.7 117.8C 392.4 117.8 398.7 116.4 405.2 114.1C 411.7 116.4 417.8 117.8 425.5 117.8C 441.2 117.8 456.5 110.5 456.5 83.3ZM 535.4 80.2L 535.4 68.5C 535.4 45.9 523.7 31 501.1 31C 478.5 31 467 45.9 467 68.5L 467 80.2C 467 102.8 478.5 117.7 501.1 117.7C 523.7 117.8 535.4 102.8 535.4 80.2ZM 521.9 80.2C 521.9 96 515.4 105.9 501.1 105.9C 486.6 105.9 480.5 95.9 480.5 80.2L 480.5 68.5C 480.5 52.7 486.8 42.8 501.1 42.8C 515.6 42.8 521.9 52.8 521.9 68.5L 521.9 80.2ZM 584.1 40.4L 584.1 33.3C 584.1 31.1 582.9 31 580.9 31C 568.1 31 557.5 31.5 548.8 35.3C 547.1 36.1 546 37.1 546 38.8L 546 113.5C 546 115.2 547.2 116.6 548.8 116.6L 556.8 116.6C 558.5 116.6 559.6 115.1 559.6 113.5L 559.6 44.3C 565.4 43.1 570.5 42.8 581 42.8C 583.8 42.9 584.1 42.1 584.1 40.4ZM 653.2 114.7C 653.2 114.2 653 113.6 652.7 113.3L 618.6 72.1L 652.4 35.5C 652.9 35 653.2 34.4 653.2 33.8C 653.2 32.9 652.4 32.1 650.9 32.1L 640.1 32.1C 638.6 32.1 637.9 32.4001 637 33.5L 606.2 68.1L 606.2 4.10002C 606.2 2.40002 604.8 1.00005 603.1 1.00005L 595.7 1.00005C 594 1.00005 592.6 2.40002 592.6 4.10002L 592.6 113.6C 592.6 115.3 594 116.7 595.7 116.7L 603.1 116.7C 604.8 116.7 606.2 115.3 606.2 113.6L 606.2 76.8L 636.8 114.6C 638 116.1 638.6 116.6 640.3 116.6L 651.4 116.6C 652.6 116.7 653.2 115.8 653.2 114.7Z"/>
<path id="path4_fill" d="M 20.4 100.9L 20.4 3.1C 20.4 1.4 18.9999 2.44141e-05 17.2999 2.44141e-05L 3.09995 2.44141e-05C 1.39995 2.44141e-05 9.76563e-05 1.4 9.76563e-05 3.1L 9.76563e-05 100.9C 9.76563e-05 102.6 1.39995 104.1 3.09995 104.1L 17.2999 104.1C 18.9999 104.1 20.4 102.6 20.4 100.9Z"/>
<path id="path5_fill" d="M 20.6999 128.4L 20.6999 30.6C 20.6999 28.9 19.3 27.5 17.6 27.5L 3.49995 27.5C 1.79995 27.5 0.400098 28.9 0.400098 30.6L 0.400098 128.4C 0.400098 130.1 1.79995 131.6 3.49995 131.6L 17.6 131.6C 19.3 131.6 20.6999 130.1 20.6999 128.4ZM 10.6 2.44141e-05C 16.4 2.44141e-05 21.1999 4.7 21.1999 10.6C 21.1999 16.4 16.5 21.2 10.6 21.2C 4.80005 21.2 -4.88281e-05 16.5 -4.88281e-05 10.6C -4.88281e-05 4.7 4.70005 2.44141e-05 10.6 2.44141e-05ZM 48.3 2.44141e-05C 54.1 2.44141e-05 58.9001 4.7 58.9001 10.6C 58.9001 16.4 54.2 21.2 48.3 21.2C 42.5 21.2 37.6999 16.5 37.6999 10.6C 37.6999 4.7 42.4 2.44141e-05 48.3 2.44141e-05Z"/>
<path id="path6_fill" d="M 73.3 103.2L 73.3 0C 65.4 0.2 53.2 5.39995 53 16.2L 53 86.8C 48.7 87.4 41.9 88 38.2 88C 25 88 21.7 78.6 21.7 66L 21.7 15.6C 20.9 3.29998 6.9999 -0.300024 1.3999 0.0999756L 1.3999 66C 1.3999 90 13.4 104.6 38.2 104.6C 41.9 104.6 49.7 103.5 53 102.9L 53 104.2C 56.1 124.4 31.6 116.8 18.3 115.4C 8.50005 115.4 1.8 123.5 0 132.6C 5.7 134.4 24.5 136.8 37.5 137.9C 61 137.9 73.3 125 73.3 103.2Z"/>
</defs>
</svg>
