<svg width="961" height="406" viewBox="0 0 961 406" version="1.1" xmlns="http://www.w3.org/2000/svg" xmlns:xlink="http://www.w3.org/1999/xlink">
<title>Group</title>
<desc>Created using Figma</desc>
<g id="Canvas" transform="translate(2498 -1514)">
<g id="Group">
<g id="Vector">
<use xlink:href="#path0_fill" transform="translate(-2277 1634.4)" fill="#FFFFFF"/>
</g>
<g id="Vector">
<use xlink:href="#path1_fill" transform="translate(-2133.6 1634.4)" fill="#FFFFFF"/>
</g>
<g id="Vector">
<use xlink:href="#path2_fill" transform="translate(-2041.9 1634.4)" fill="#FFFFFF"/>
</g>
<g id="Vector">
<use xlink:href="#path3_fill" transform="translate(-1913.8 1633.6)" fill="#FFFFFF"/>
</g>
<g id="Vector">
<use xlink:href="#path4_fill" transform="translate(-1773.6 1634.4)" fill="#FFFFFF"/>
</g>
<g id="Vector">
<use xlink:href="#path5_fill" transform="translate(-1631.6 1634.4)" fill="#FFFFFF"/>
</g>
<g id="Vector">
<use xlink:href="#path6_fill" transform="translate(-2354.8 1514.49)" fill="#FFFFFF"/>
</g>
<g id="Vector">
<use xlink:href="#path7_fill" transform="translate(-2346.6 1641.2)" fill="#FFFFFF"/>
</g>
<g id="Vector">
<use xlink:href="#path8_fill" transform="translate(-2359.7 1680.3)" fill="#FFFFFF"/>
</g>
<g id="Vector">
<use xlink:href="#path9_fill" transform="translate(-2368.9 1700.1)" fill="#FFFFFF"/>
</g>
<g id="Vector" opacity="0.35">
<use xlink:href="#path9_fill" transform="translate(-2368.9 1700.1)" fill="#FFFFFF"/>
</g>
<g id="Vector">
<use xlink:href="#path10_fill" transform="translate(-2360.4 1680.4)" fill="#FFFFFF"/>
</g>
<g id="Vector" opacity="0.35">
<use xlink:href="#path10_fill" transform="translate(-2360.4 1680.4)" fill="#FFFFFF"/>
</g>
<g id="Vector">
<use xlink:href="#path11_fill" transform="translate(-2402.3 1546.2)" fill="#FFFFFF"/>
</g>
<g id="Vector">
<use xlink:href="#path12_fill" transform="translate(-2458.3 1773.4)" fill="#FFFFFF"/>
</g>
<g id="Vector">
<use xlink:href="#path13_fill" transform="translate(-2463.5 1613.6)" fill="#FFFFFF"/>
</g>
<g id="Vector">
<use xlink:href="#path14_fill" transform="translate(-2497.7 1755.9)" fill="#FFFFFF"/>
</g>
<g id="Vector">
<use xlink:href="#path15_fill" transform="translate(-2445.1 1634.3)" fill="#FFFFFF"/>
</g>
<g id="Vector">
<use xlink:href="#path16_fill" transform="translate(-2384.6 1563)" fill="#FFFFFF"/>
</g>
<g id="Vector">
<use xlink:href="#path17_fill" transform="translate(-2368.8 1700.5)" fill="#FFFFFF"/>
</g>
<g id="Vector" opacity="0.35">
<use xlink:href="#path17_fill" transform="translate(-2368.8 1700.5)" fill="#FFFFFF"/>
</g>
<g id="Vector">
<use xlink:href="#path17_fill" transform="translate(-2368.8 1700.5)" fill="#FFFFFF"/>
</g>
<g id="Vector">
<use xlink:href="#path18_fill" transform="translate(-2360.4 1680.9)" fill="#FFFFFF"/>
</g>
<g id="Vector" opacity="0.35">
<use xlink:href="#path18_fill" transform="translate(-2360.4 1680.9)" fill="#FFFFFF"/>
</g>
<g id="Vector">
<use xlink:href="#path18_fill" transform="translate(-2360.4 1680.9)" fill="#FFFFFF"/>
</g>
</g>
</g>
<defs>
<path id="path0_fill" d="M -6.10352e-06 140L 58.5 0.000195313L 69.7 0.000195313L 128.2 140L 113.4 140L 95.3 96.1999L 32.4 96.1999L 14.5 140L -6.10352e-06 140ZM 64.3 16.1999L 35.5 85.4001L 92.3 85.4001L 64.3 16.1999Z"/>
<path id="path1_fill" d="M -1.2207e-05 140L -1.2207e-05 0.000195313L 58 0.000195313C 82 0.000195313 99.4 22.3002 99.4 44.0002C 99.4 66.9002 83.2 88.3 59.2 88.3L 13.7 88.3L 13.7 139.9L -1.2207e-05 140ZM 13.7 76.0998L 58.4 76.0998C 75 76.0998 85.6 60.9002 85.6 44.0002C 85.6 26.4002 72.6 12.3 57.2 12.3L 13.7 12.3L 13.7 76.0998Z"/>
<path id="path2_fill" d="M 0 140L 58.5 0.000195313L 69.7 0.000195313L 128.2 140L 113.4 140L 95.3 96.1999L 32.4 96.1999L 14.5 140L 0 140ZM 64.3 16.1999L 35.5 85.4001L 92.3 85.4001L 64.3 16.1999Z"/>
<path id="path3_fill" d="M 66.5 -9.76563e-05C 91.3 -9.76563e-05 109.5 12.6 118.1 30.6L 107.1 37.3002C 98.2 18.8002 80.9 12.4999 65.7 12.4999C 32.2 12.4999 13.9 42.5001 13.9 70.7001C 13.9 101.7 36.6 129.6 66.3 129.6C 82.1 129.6 100.6 121.7 109.5 103.6L 120.9 109.5C 111.8 130.4 87 142 65.5 142C 27.1 142 -2.44141e-05 105.3 -2.44141e-05 69.8998C 0.0999756 36.0998 24.3 -9.76563e-05 66.5 -9.76563e-05Z"/>
<path id="path4_fill" d="M 110.4 0.000195313L 110.4 140L 96.6 140L 96.6 74.5002L 13.6 74.5002L 13.6 140L -1.2207e-05 140L -1.2207e-05 0.000195313L 13.6 0.000195313L 13.6 62.3L 96.6 62.3L 96.6 0.000195313L 110.4 0.000195313Z"/>
<path id="path5_fill" d="M 94 127.7L 94 139.9L -1.2207e-05 139.9L -1.2207e-05 0.000195313L 92.3 0.000195313L 92.3 12.1999L 13.6 12.1999L 13.6 62.6999L 82.2 62.6999L 82.2 74.3L 13.6 74.3L 13.6 127.7L 94 127.7Z"/>
<path id="path6_fill" d="M 29.5 1.90761C 23.1 5.70761 12.6 16.3074 6.10352e-06 31.7074L 11.6 53.6073C 19.7 42.0073 28 31.5073 36.3 22.6073C 36.9 21.9073 37.3 21.5072 37.3 21.5072C 37 21.9072 36.7 22.2073 36.3 22.6073C 33.6 25.6073 25.4 35.1073 13.1 54.1073C 25 53.5073 43.3 51.1072 58.1 48.5072C 62.5 23.7072 53.8 12.3075 53.8 12.3075C 53.8 12.3075 42.6 -5.79239 29.5 1.90761Z"/>
<path id="path7_fill" d="M 1.7 0C 1.8 0 1.9 0 2 0L 0.300006 0.200195C 0.200006 0.200195 0.100003 0.299805 3.05176e-06 0.299805C 0.500003 0.199805 1.1 0.1 1.7 0Z"/>
<path id="path8_fill" d="M 2.90001 9.76563e-05C 2.00001 0.200098 0.999997 0.400098 -3.05176e-06 0.500098C 0.999997 0.400098 2.00001 0.300098 2.90001 9.76563e-05Z"/>
<path id="path9_fill" d="M 4.60001 -9.76563e-05C 3.10001 0.299902 1.6 0.500195 0 0.800195C 0.8 0.700195 1.6 0.599805 2.3 0.399805C 3.2 0.299805 3.90001 0.0999023 4.60001 -9.76563e-05Z"/>
<path id="path10_fill" d="M 0 0.599805C 0.2 0.599805 0.499997 0.500195 0.699997 0.500195C 1.7 0.400195 2.70001 0.200195 3.60001 0.000195313C 2.40001 0.200195 1.3 0.299805 0 0.599805Z"/>
<path id="path11_fill" d="M 24.9 78.3999C 28.4 71.7999 32 65.4001 35.6 59.1001C 39.3 52.6001 43.1 46.3002 46.9 40.2002C 47.1 39.8002 47.3 39.5001 47.6 39.1001C 51.4 33.1001 55.2 27.3999 59 21.8999L 47.4 0C 46.5 1.1 45.6 2.0998 44.8 3.2998C 41.5 7.4998 38 11.9002 34.4 16.7002C 30.4 22.1002 26.3 27.7998 22.1 33.7998C 18.2 39.2998 14.3 45.1002 10.4 51.2002C 7.1 56.3002 3.7 61.6 0.4 67C 0.3 67.2 0.0999985 67.4001 -1.52588e-06 67.6001L 15.1 97.3999C 18.3 90.7999 21.6 84.4999 24.9 78.3999Z"/>
<path id="path12_fill" d="M 12.2 19.0002C 10.2 24.5002 8.2 30.1 6.2 35.8C 6.2 35.9 6.1 35.9998 6.1 36.0998C 5.8 36.8998 5.5 37.7002 5.2 38.5002C 3.8 42.3002 2.7 45.7999 -1.52588e-06 53.6999C 4.4 55.6999 8 61.0998 11.4 67.0998C 11 60.7998 8.5 54.9001 3.5 50.4001C 25.4 51.4001 44.3 45.9 54 29.8C 54.9 28.4 55.7 26.9 56.4 25.3C 52 30.9 46.5 33.2999 36.1 32.6999C 36.1 32.6999 36.1 32.6999 36 32.6999C 36 32.6999 36 32.6999 36.1 32.6999C 51.3 25.8999 59 19.3002 65.7 8.5002C 67.3 5.9002 68.9 3.1002 70.4 0.000195313C 57.1 13.7002 41.6 17.5998 25.4 14.5998L 13.2 15.9001C 12.9 16.9001 12.5 18.0002 12.2 19.0002Z"/>
<path id="path13_fill" d="M 23.1 151.5C 25.7 144.7 28.4 137.8 31.2 130.8C 33.9 124.1 36.6 117.4 39.4 110.7C 42.2 104 45.1 97.1999 48 90.4999C 51 83.5999 54 76.7998 57.1 69.8998C 60.2 63.1998 63.3 56.4002 66.4 49.8002C 67.5 47.4002 68.7 45 69.9 42.6C 71.9 38.5 73.9 34.3998 75.9 30.3998C 76 30.1998 76.1 30.0002 76.2 29.8002L 61.1 -9.76563e-05C 60.8 0.399902 60.6 0.800098 60.4 1.2001C 56.9 6.9001 53.4 12.8002 50 18.8002C 46.5 24.8002 43.1 31.0002 39.8 37.3002C 37 42.6002 34.2 47.9002 31.6 53.3002C 31.1 54.4002 30.5 55.5 30 56.6C 26.7 63.4 23.7 69.9001 21.1 76.2001C 18.1 83.3001 15.4 90.1 13 96.6C 11.5 100.8 10.1 104.9 8.8 108.9C 7.7 112.3 6.7 115.6 5.8 119C 3.6 126.9 1.6 134.8 1.52588e-06 142.6L 15.1 172.5C 17.1 167.2 19.2 161.7 21.3 156.2C 21.9 154.6 22.5 153 23.1 151.5Z"/>
<path id="path14_fill" d="M 34 1.1999C 32.1 10.7999 30.7 20.3 30.1 29.8C 30.1 30.1 30 30.5 30 30.8C 25.3 23.2 12.6 15.8001 12.6 15.9001C 21.7 29.0001 28.6 42.1001 29.6 54.9001C 24.7 55.9001 18.1 54.4998 10.4 51.5998C 18.4 58.9998 24.4 61.0002 26.8 61.5002C 19.4 62.0002 11.8 67 4.1 72.8C 15.4 68.2 24.5 66.4 31.1 67.8C 20.7 97.1 10.3 129.5 7.62939e-07 163.9C 3.2 163 5.1 160.8 6.2 157.9C 8.1 151.7 20.3 110.8 39.6 57.0998C 40.1 55.5998 40.7 54.0002 41.3 52.5002C 41.5 52.1002 41.6 51.5999 41.8 51.1999C 43.8 45.5999 45.9 39.8002 48.1 34.0002C 48.6 32.7002 49.1 31.3002 49.6 30.0002L 49.6 29.9001L 34.5 0.000195313C 34.1 0.500195 34 0.899902 34 1.1999Z"/>
<path id="path15_fill" d="M 60.2 11.6002C 59.8 12.5002 59.3 13.3999 58.9 14.2999C 57.6 16.9999 56.3 19.7002 54.9 22.6002C 53.5 25.6002 52 28.8 50.5 31.9C 49.8 33.5 49 35.0999 48.3 36.7999C 46 41.6999 43.8 46.8001 41.4 52.0001C 38.6 58.4001 35.6 65.1001 32.7 72.0001C 29.9 78.6001 27 85.5001 24.2 92.5001C 21.5 99.2001 18.7 106.2 15.9 113.3C 13.4 119.7 10.9 126.2 8.3 133C 8.2 133.3 8 133.7 7.9 134C 5.4 140.7 2.8 147.6 0.2 154.6C 0.1 154.8 0.100003 154.9 3.05176e-06 155.1L 12.2 153.8C 12 153.8 11.7 153.7 11.5 153.7C 26.1 151.9 45.5 141 58 127.5C 63.8 121.3 69 114 73.9 105.4C 77.5 99 80.9 92.0002 84.1 84.1002C 86.9 77.3002 89.6 69.8999 92.2 61.7999C 88.8 63.5999 85 64.8999 80.8 65.7999C 80.1 65.9999 79.3 66.0998 78.5 66.1998C 77.7 66.2998 77 66.5002 76.2 66.6002C 89.8 61.4002 98.4 51.3 104.6 38.9C 101 41.3 95.2 44.5002 88.2 46.1002C 87.3 46.3002 86.3 46.5002 85.3 46.6002C 85.1 46.6002 84.8 46.6998 84.6 46.6998C 89.3 44.6998 93.3 42.5 96.8 39.9C 97.5 39.3 98.3 38.7998 98.9 38.1998C 100 37.2998 101 36.2999 101.9 35.2999C 102.5 34.6999 103.1 33.9999 103.7 33.2999C 105 31.6999 106.3 29.9002 107.5 28.1002C 107.9 27.5002 108.2 26.8999 108.6 26.2999C 109 25.3999 109.5 24.5998 109.9 23.6998C 111.8 19.8998 113.3 16.5001 114.5 13.5001C 115.1 12.0001 115.6 10.5999 116.1 9.2999C 116.3 8.7999 116.5 8.2999 116.6 7.7999C 117.1 6.3999 117.5 5.1001 117.8 4.0001C 118.3 2.3001 118.5 1.0001 118.7 9.76563e-05C 118.2 0.400098 117.7 0.700195 117.1 1.1002C 113 3.6002 105.9 5.7999 100.3 6.7999L 111.5 5.6002L 100.3 6.7999C 100.2 6.7999 100.1 6.7999 100 6.7999C 99.4 6.8999 98.9 7.0002 98.3 7.1002C 98.4 7.1002 98.5 7.0001 98.6 7.0001L 60.3 11.1998C 60.4 11.2998 60.3 11.5002 60.2 11.6002Z"/>
<path id="path16_fill" d="M 42.8 5.4998C 39.4 10.6998 35.7 16.7002 31.7 23.4002C 31.5 23.8002 31.3 24.0998 31.1 24.4998C 27.6 30.2998 24 36.7 20.1 43.7C 16.8 49.7 13.3 56.2 9.7 63.2C 6.6 69.3 3.3 75.6998 3.05176e-06 82.4998L 38.3 78.3001C 49.5 73.2001 54.4 68.5001 59.3 61.8001C 60.6 59.9001 61.9 57.9998 63.2 55.9998C 67.1 49.8998 71 43.1002 74.4 36.4002C 77.7 29.9002 80.7 23.5 82.9 17.7C 84.3 14 85.5 10.5999 86.3 7.5999C 87 4.8999 87.5 2.3998 88 -0.000195313C 73 2.4998 54.7 4.8998 42.8 5.4998Z"/>
<path id="path17_fill" d="M 2.29999 -0.000195313C 1.49999 0.0998047 0.800006 0.300195 6.10352e-06 0.400195C 0.700006 0.300195 1.49999 0.199805 2.29999 -0.000195313Z"/>
<path id="path18_fill" d="M 0 0.0998047C 0.3 0.0998047 0.499997 0.000195313 0.699997 0.000195313C 0.499997 0.000195313 0.2 -0.000195317 0 0.0998047Z"/>
</defs>
</svg>
