<svg width="395" height="292" viewBox="0 0 395 292" version="1.1" xmlns="http://www.w3.org/2000/svg" xmlns:xlink="http://www.w3.org/1999/xlink">
<title>Vector</title>
<desc>Created using Figma</desc>
<g id="Canvas" transform="translate(1122 -2007)">
<g id="Vector">
<use xlink:href="#path0_fill" transform="translate(-1121.3 2007.8)" fill="#FFFFFF"/>
</g>
</g>
<defs>
<path id="path0_fill" d="M 393.6 138.7L 393.6 151.7C 393.5 152.4 393.3 153.1 393.2 153.8C 392.5 159.4 392.1 165.1 391.2 170.7C 388.2 188.9 381.6 205.8 371.9 221.4C 357.1 245.1 337.2 263.2 312.1 275.6C 297.6 282.8 282 287.4 266 289.2C 262.4 289.6 258.9 290 255.3 290.4L 117.1 290.4C 116.4 290.3 115.7 290.1 115 290C 101.1 289.1 87.7 285.9 74.9 280.4C 47.1 268.2 26.3 248.5 12.7 221.3C 6.70005 209.3 2.80005 196.4 1.20005 183.1C 0.800049 179.9 0.399976 176.6 -2.44141e-05 173.4L -2.44141e-05 160.8C 0.0999756 160.1 0.3 159.4 0.4 158.7C 1.1 146.6 3.59998 134.9 7.99998 123.6C 19.7 93.3002 40.2 70.7998 69.3 56.1998C 84.4 48.5998 100.5 44.6999 117.3 43.7999C 125.5 43.3999 133.8 43.8 141.9 44.9C 142.6 45 143.7 44.7002 144.2 44.1002C 156 32.1002 169.4 22.3 184.5 14.9C 199.2 7.7 214.6 3.0998 230.8 1.1998C 234.6 0.799805 238.5 0.400098 242.3 9.76563e-05L 254.1 9.76563e-05C 254.9 0.100098 255.6 0.299902 256.4 0.299902C 262.2 0.999902 268.1 1.4 273.9 2.4C 291.9 5.4 308.7 11.9001 324.3 21.5001C 348.1 36.3001 366.3 56.2 378.7 81.4C 385.9 95.9 390.5 111.5 392.3 127.5C 392.8 131.3 393.2 135 393.6 138.7ZM 173.6 54.9C 173.8 55.2 173.9 55.4 174 55.4C 182.1 59.4 189.8 64.1 197.1 69.4C 197.6 69.7 198.7 69.5998 199.3 69.1998C 219.3 56.4998 241.1 52.0999 264.4 56.2999C 287.3 60.3999 305.9 71.8001 320.1 90.0001C 336.2 110.6 342.3 134 337.9 160C 334.9 177.4 327.9 193 316.1 206.1C 294.5 230 267.4 239.8 235.5 235.6C 215.9 233 198.9 224.6 184.9 210.4C 166.9 192.2 148.8 174.2 130.7 156C 128.3 153.6 125.6 151.6 122.2 151.2C 116.1 150.5 110.7 153.5 108 158.9C 105.7 163.8 106 169.2 111 174.2C 131.1 194 151.1 213.9 171.2 233.7C 174.6 237.1 178.3 240.2 182.2 243.1C 196.9 253.8 213.4 259.7 231.4 262C 245.5 263.9 259.4 263.5 273.3 260.3C 299.7 254.4 321.6 240.9 338.9 220.1C 353.1 202.9 361.7 183.1 364.8 160.9C 366.5 148.2 366.2 135.4 363.7 122.9C 359.7 102.4 351 84.1 337.1 68.4C 310.6 38.6 277.2 25.2999 237.5 28.2999C 222.2 29.3999 207.8 33.9001 194.2 41.0001C 186.9 45.0001 180 49.6 173.6 54.9ZM 163.9 262.7C 163.4 262.2 162.8 261.7 162.3 261.2C 154.1 253.4 145.8 245.7 137.7 237.8C 136.1 236.3 134.7 235.5 132.5 235.6C 124.3 235.8 116 235.8 107.9 234C 67.6 224.9 44.1 181 59 142.4C 70.7 112 103.2 93.4002 135.2 99.1002C 149.6 101.7 162.1 107.7 172.5 118.4C 185.1 131.4 198.1 144.1 210.8 156.9C 213.7 159.8 217 161.2 221.1 160.6C 226.3 159.9 230.4 157.4 232.3 152.3C 234.1 147.3 233.2 142.5 229.5 138.7C 216.1 125.1 203.1 111.3 189.1 98.2999C 162.1 73.0999 130.3 65.5999 95.1 76.2999C 47.7 90.6999 20 139.6 30.9 187.8C 40.8 231.8 79.2001 262.6 124.2 262.7C 136.8 262.7 149.3 262.7 161.9 262.7C 162.3 262.8 162.9 262.7 163.9 262.7Z"/>
</defs>
</svg>
