<svg width="436" height="512" viewBox="0 0 436 512" version="1.1" xmlns="http://www.w3.org/2000/svg" xmlns:xlink="http://www.w3.org/1999/xlink">
<title>Group</title>
<desc>Created using Figma</desc>
<g id="Canvas" transform="translate(1631 -232)">
<g id="Group">
<g id="Group">
<g id="Vector">
<use xlink:href="#path0_fill" transform="translate(-1630.55 232.594)" fill="#FFFFFF"/>
</g>
<g id="Vector">
<use xlink:href="#path1_fill" transform="translate(-1451.7 349.6)" fill="#FFFFFF"/>
</g>
<g id="Vector">
<use xlink:href="#path2_fill" transform="translate(-1426.9 349.062)" fill="#FFFFFF"/>
</g>
</g>
</g>
</g>
<defs>
<path id="path0_fill" d="M 430.946 428.106C 428.846 425.706 425.946 423.406 422.146 421.106C 421.546 420.706 420.046 419.806 417.446 418.406C 414.846 417.006 412.846 415.706 411.346 414.706C 409.846 413.706 407.846 411.806 405.346 409.306C 402.846 406.706 400.946 404.006 399.446 401.206C 398.046 398.306 396.646 394.506 395.346 389.606C 394.046 384.706 393.246 379.406 393.046 373.506C 390.346 375.806 388.946 380.306 388.646 387.106C 388.346 393.906 389.746 400.806 392.946 407.806C 396.046 414.806 400.746 419.406 407.046 421.506C 413.146 423.606 418.046 425.806 421.746 428.206C 425.446 430.606 427.846 433.306 428.846 436.306C 429.846 439.406 428.146 442.606 423.546 446.206C 418.946 449.706 411.646 453.206 401.546 456.606C 387.646 461.406 377.846 465.406 371.946 468.706C 366.146 472.006 357.646 478.406 346.446 487.706C 338.846 494.006 330.746 497.406 322.146 497.806C 313.546 498.306 306.646 495.106 301.346 488.406C 296.046 481.606 294.346 472.106 296.246 459.706C 299.846 435.906 299.746 417.406 295.946 404.006C 292.946 393.506 292.246 384.306 293.946 376.306C 295.646 368.306 298.346 363.706 301.946 362.306C 305.546 361.006 309.446 363.806 313.646 370.906C 314.046 371.906 314.846 373.706 316.246 376.506C 317.546 379.306 318.646 381.206 319.546 382.406C 320.446 383.506 321.646 385.006 323.446 386.806C 325.146 388.606 327.346 389.906 329.846 390.706C 332.446 391.506 335.446 391.906 338.846 392.106C 345.346 392.306 351.146 391.006 356.246 388.106C 361.346 385.206 365.246 382.106 367.846 378.506C 370.446 375.006 372.946 371.606 375.546 368.406C 378.146 365.206 380.346 363.406 382.246 363.006C 384.346 362.606 386.246 360.506 387.946 356.706C 389.646 352.906 390.846 347.606 391.346 340.906C 391.946 334.106 391.446 326.106 389.946 316.806C 387.046 300.206 381.446 282.106 372.946 262.306C 364.446 242.506 355.046 227.006 344.546 215.806C 325.746 195.806 313.046 175.106 306.546 153.606C 299.846 131.006 297.046 110.606 297.946 92.5057C 298.946 79.6057 296.046 65.5058 289.546 50.4058C 282.946 35.3058 274.246 23.7058 263.446 15.7058C 256.546 10.6059 248.146 6.6058 238.046 3.9058C 227.946 1.1058 217.846 -0.0943454 207.746 0.00565462C 195.346 0.00565462 185.446 2.00565 178.046 6.00565C 162.846 14.2057 152.746 24.1057 147.746 35.8057C 142.746 47.5057 140.546 61.9058 140.846 79.1058C 141.646 116.806 143.146 146.306 145.446 167.606C 142.746 177.506 130.946 196.106 110.046 223.306C 106.246 227.106 102.546 232.206 98.9463 238.706C 95.3463 245.206 92.4463 251.006 90.3463 256.106C 88.2463 261.206 85.4463 268.706 81.9463 278.406C 78.4463 288.106 75.9463 295.006 74.3463 299.006C 73.0463 302.406 70.9463 306.406 68.0463 311.006C 65.1463 315.606 62.9463 320.006 61.1463 324.406C 59.4463 328.806 58.4463 333.706 58.2463 339.206C 58.0462 343.406 58.2463 347.006 58.8463 350.006C 59.6463 354.606 61.0463 356.006 63.1463 354.306C 71.7463 347.806 82.4463 351.606 95.4463 365.706C 104.546 375.606 120.646 398.606 143.746 434.806C 145.646 438.006 147.546 441.506 149.446 445.206C 151.346 448.906 153.146 453.906 154.846 460.006C 156.546 466.206 157.246 471.806 156.946 476.706C 156.646 481.706 154.446 486.206 150.346 490.406C 146.246 494.606 140.146 497.206 131.946 498.406C 127.546 499.006 122.246 498.606 116.146 497.306C 109.946 496.006 102.146 493.806 92.5463 490.706C 83.0463 487.706 75.9463 485.606 71.4463 484.406C 64.7463 482.906 55.3463 480.906 43.0463 478.506C 30.7463 476.106 22.7463 474.406 18.9463 473.206C 12.4463 471.506 8.94629 469.006 8.34629 465.806C 7.74629 463.106 9.14629 458.606 12.3463 452.106C 15.5463 445.606 17.2463 441.006 17.2463 438.106C 17.4463 436.006 17.3463 433.906 16.9463 431.806C 16.5463 429.706 16.1463 428.106 15.6463 426.906C 15.1463 425.806 14.3463 424.006 13.2463 421.806C 12.1463 419.506 11.3463 417.806 10.9463 416.706C 7.54626 408.706 7.0463 403.306 9.5463 400.406C 11.2463 397.906 15.3463 397.006 21.8463 397.506C 31.5463 398.506 39.4463 397.006 45.5463 393.206C 55.6463 386.906 58.6463 376.806 54.6463 362.906C 54.6463 369.406 53.5462 374.206 51.2463 377.506C 48.9463 380.706 44.9463 384.106 39.2463 387.506C 36.0462 389.406 30.3463 390.506 22.1463 390.906C 13.9463 391.306 8.54629 392.606 5.84629 394.906C 3.94629 396.606 2.94629 399.206 2.84629 402.606C 2.74629 406.006 3.14628 409.506 4.14628 413.006C 5.14628 416.506 6.0463 420.606 7.0463 425.106C 8.0463 429.706 8.34628 433.506 8.14628 436.506C 7.94628 438.606 6.2463 443.806 3.0463 452.106C -0.153699 460.406 -0.853699 466.706 1.0463 471.106C 2.0463 473.206 3.64626 475.106 5.94626 476.706C 8.24626 478.306 11.4463 479.706 15.5463 480.806C 19.6463 481.906 23.3463 482.806 26.8463 483.506C 30.2463 484.206 35.0463 485.006 41.1463 486.106C 47.2463 487.106 52.0462 488.106 55.7463 488.806C 67.9463 491.306 81.8463 495.406 97.4463 501.106C 113.046 506.806 123.646 509.806 129.146 509.906C 134.446 510.106 139.546 509.006 144.446 506.606C 149.346 504.206 153.446 501.506 156.846 498.506C 160.246 495.506 165.346 492.606 172.146 489.906C 178.946 487.206 186.446 485.806 194.846 485.606C 198.646 485.406 204.146 485.206 211.446 484.906C 218.646 484.606 224.146 484.506 227.746 484.506C 244.146 484.506 256.446 484.606 264.846 484.806C 270.546 485.006 275.046 485.906 278.246 487.506C 281.446 489.106 283.546 491.006 284.546 493.106C 285.546 495.206 287.046 497.606 289.246 500.406C 291.446 503.206 294.246 505.406 297.646 507.106C 304.846 510.506 313.346 511.906 323.046 511.206C 332.746 510.506 339.246 508.706 342.446 505.606C 347.746 500.506 354.946 494.406 364.046 487.306C 373.046 480.306 381.246 474.906 388.446 471.306C 389.946 470.506 392.546 469.306 396.146 467.606C 399.746 465.906 402.846 464.406 405.246 463.206C 407.746 462.006 410.746 460.406 414.246 458.506C 417.746 456.606 420.646 454.806 422.846 453.206C 425.046 451.606 427.246 449.706 429.546 447.606C 431.846 445.506 433.346 443.406 433.946 441.306C 434.646 439.206 434.846 437.106 434.646 434.906C 434.146 432.706 433.046 430.506 430.946 428.106ZM 277.946 152.106C 278.546 151.706 278.946 151.606 279.046 151.706C 279.246 151.806 279.646 152.206 280.146 152.806C 280.746 153.506 281.246 154.106 281.746 154.706C 282.246 155.306 282.846 156.006 283.746 157.006C 284.646 158.006 285.546 158.706 286.446 159.306C 287.546 160.106 288.946 160.606 290.546 160.906C 292.146 161.206 293.446 161.706 294.246 162.306C 295.146 163.006 295.746 164.106 296.146 165.606C 296.546 167.706 296.246 169.606 295.146 171.306C 294.046 173.006 292.746 173.806 291.046 173.606C 287.646 172.806 283.946 169.806 279.946 164.606C 275.946 159.306 275.246 155.206 277.946 152.106ZM 242.446 41.2058C 243.346 40.0058 243.946 39.0058 244.146 38.2058C 244.546 37.1059 244.546 35.9058 244.246 34.6058C 243.946 33.4058 244.046 32.1058 244.546 30.9058C 245.046 29.7058 246.146 28.9057 247.846 28.8057C 249.546 28.8057 251.846 30.2058 254.746 33.1058C 255.346 33.5058 256.246 34.1057 257.446 34.8057C 258.646 35.6057 259.546 36.2057 260.046 36.8057C 260.546 37.4057 260.746 37.8058 260.746 38.2058C 260.346 39.1059 259.546 39.8058 258.146 40.2058C 256.846 40.6059 255.346 40.8057 253.846 40.8057C 252.346 40.8057 251.446 40.9058 251.246 41.1058C 249.746 41.7057 248.246 42.5058 246.946 43.7058C 245.646 44.8058 244.546 45.7057 243.846 46.3057C 243.046 46.9057 242.346 46.9057 241.546 46.3057C 240.746 45.2057 240.546 44.3058 240.646 43.9058C 240.946 43.3058 241.546 42.4058 242.446 41.2058ZM 104.346 254.906C 105.646 253.406 106.646 252.106 107.246 251.206C 107.846 250.206 108.346 249.006 108.846 247.306C 109.346 245.706 109.746 244.506 110.146 243.706C 110.546 242.906 111.146 242.706 111.846 242.806C 112.246 242.706 112.546 242.906 112.746 243.406C 112.946 243.906 113.046 244.106 113.046 244.106L 113.046 245.006C 113.046 245.306 113.046 245.706 112.946 246.106C 112.846 246.606 112.746 247.006 112.546 247.406C 112.346 247.806 112.146 248.406 111.946 249.106C 111.746 249.906 111.546 250.506 111.346 251.106C 110.546 253.006 109.346 254.706 107.746 256.206C 106.146 257.706 104.946 258.406 104.146 258.206C 102.846 258.006 102.946 256.806 104.346 254.906ZM 291.046 431.106C 290.646 437.206 289.346 445.806 287.146 456.806C 284.946 467.806 283.546 475.206 283.046 478.806C 279.046 478.606 276.746 477.106 276.146 474.406C 275.546 471.606 276.146 468.106 277.846 463.706C 282.046 450.906 284.246 442.206 284.446 437.406C 284.846 428.606 283.846 423.706 281.646 422.606C 279.546 421.106 276.346 423.906 271.946 431.206C 263.546 444.906 246.746 453.206 221.446 456.006C 198.646 459.006 182.846 455.606 174.046 445.706C 172.146 444.406 170.246 444.106 168.346 445.006C 166.446 445.806 165.246 446.806 164.646 447.706C 164.446 448.106 164.646 448.706 165.246 449.406C 165.846 450.106 166.746 451.306 167.946 452.806C 169.146 454.306 170.146 455.806 170.946 457.406C 178.346 470.306 177.746 479.106 168.946 483.706C 168.946 474.906 168.246 468.206 166.946 463.606C 165.646 458.906 162.946 453.806 158.946 448.206C 154.946 442.606 152.146 438.406 150.646 435.506C 156.346 434.906 160.646 432.706 163.646 428.906C 166.646 425.106 167.946 421.006 167.646 416.606C 167.346 412.206 165.646 408.606 162.646 405.706C 160.946 404.006 152.046 396.706 136.046 383.906C 120.046 371.106 110.146 362.406 106.346 358.106C 105.546 357.306 103.346 355.406 99.4463 352.406C 95.5463 349.406 93.2463 346.706 92.3463 344.406C 83.5463 325.206 82.6463 309.406 89.4463 297.006L 90.5463 295.606C 91.5463 295.406 91.5463 297.106 90.8463 300.706C 89.7463 306.006 89.3463 311.406 89.7463 316.706C 90.5463 328.706 93.9463 337.606 100.046 343.506C 104.046 347.506 106.846 347.206 108.346 342.606C 109.446 341.106 110.046 335.506 109.946 325.706C 109.846 316.006 110.046 309.406 110.346 306.006C 111.846 295.206 116.346 281.706 123.946 265.706C 131.446 249.706 137.446 241.106 141.746 240.006C 138.346 234.506 137.246 228.506 138.446 222.006C 139.646 215.506 141.646 210.006 144.446 205.406C 147.246 200.806 150.046 195.606 152.846 189.606C 155.746 183.606 157.146 178.206 157.146 173.506C 157.146 172.206 157.246 171.206 157.446 170.606C 158.046 168.906 160.446 171.006 164.546 176.906C 172.546 188.706 178.546 195.706 182.546 197.706C 186.746 200.006 191.346 199.906 196.546 197.406C 201.646 194.906 208.046 190.806 215.546 185.106C 223.046 179.406 229.446 175.206 234.846 172.506C 235.446 172.306 236.346 171.906 237.546 171.206C 238.746 170.506 239.746 170.106 240.346 169.806C 241.046 169.506 241.846 169.106 242.946 168.506C 243.946 167.906 244.746 167.506 245.346 167.106C 245.946 166.706 246.446 166.306 247.046 165.806C 247.646 165.306 247.946 164.806 248.146 164.406C 248.346 163.906 248.446 163.506 248.446 163.106C 248.046 161.406 247.246 160.306 246.046 160.006C 244.846 159.606 243.146 159.906 241.046 160.706C 238.946 161.606 236.646 162.706 234.046 164.106C 231.446 165.506 228.646 167.106 225.446 169.006C 222.346 170.806 219.146 172.506 215.846 174.006C 212.646 175.506 209.146 176.906 205.546 178.006C 201.946 179.106 198.546 179.806 195.246 180.006C 187.246 180.206 180.846 178.106 176.146 173.706C 173.146 170.806 171.446 169.006 171.246 168.306C 171.046 167.506 171.946 167.406 173.846 167.706C 184.146 169.006 191.646 169.206 196.446 168.306C 201.346 167.506 208.046 165.306 216.446 161.706C 218.146 160.906 222.446 159.106 229.446 156.106C 236.346 153.206 241.746 151.106 245.546 150.006C 247.846 149.406 249.446 148.506 250.246 147.306C 251.146 146.106 251.346 144.906 251.146 143.906C 250.846 142.906 250.246 142.006 249.246 141.506C 247.146 140.406 245.246 141.106 243.546 143.806C 242.546 145.506 240.546 147.206 237.546 148.806C 234.546 150.406 231.646 151.706 229.146 152.506C 226.546 153.406 223.246 154.406 219.246 155.506C 215.246 156.606 213.046 157.306 212.646 157.506C 202.146 160.706 192.446 162.206 183.546 161.806C 179.346 161.606 175.946 161.006 173.446 159.906C 170.846 158.906 169.146 157.606 168.146 156.206C 167.146 154.806 165.646 153.006 163.546 150.806C 161.446 148.606 159.046 146.806 156.446 145.206C 154.546 144.206 153.846 142.506 154.346 140.106C 154.846 137.606 156.346 135.106 158.746 132.406C 158.946 132.206 160.846 131.006 164.646 128.806C 168.346 126.606 170.946 124.406 172.546 122.106C 174.246 119.406 177.246 116.706 181.346 113.806C 181.546 113.006 181.646 110.906 181.746 107.506C 181.846 104.106 180.946 100.406 179.046 96.4058C 177.146 92.4058 174.546 90.4058 171.346 90.4058C 166.746 90.2058 163.546 91.5058 161.646 94.4058C 159.746 97.3058 158.846 100.806 159.046 105.006C 159.246 108.606 160.146 111.806 161.746 114.606C 163.346 117.406 164.846 118.706 166.146 118.706C 168.246 118.506 168.946 119.306 168.146 121.006C 167.046 123.106 165.446 124.406 163.546 125.006C 162.246 125.406 160.746 124.106 159.146 121.106C 157.546 118.106 156.246 114.606 155.446 110.406C 154.546 106.206 154.246 102.706 154.446 99.8057C 154.846 93.9057 156.346 88.2057 159.146 82.8057C 161.946 77.4057 165.846 74.8058 170.946 74.9058C 176.246 75.1058 180.546 78.3057 183.846 84.6058C 187.046 90.9058 188.646 99.4057 188.446 110.306C 189.046 111.606 190.446 112.106 192.846 111.706C 195.246 111.306 198.346 111.306 202.246 111.606C 206.146 111.906 208.946 112.906 210.646 114.606C 210.846 114.606 210.946 113.206 210.946 110.306C 207.546 86.3057 215.946 73.6057 236.346 72.0057C 239.346 72.6057 241.946 73.3057 244.046 74.1058C 246.146 75.0058 248.346 76.4058 250.746 78.4058C 253.146 80.4058 255.146 83.3057 256.746 87.1058C 258.346 90.9058 259.646 95.7058 260.646 101.406L 260.646 112.006C 260.646 118.106 259.446 121.506 256.946 122.306C 252.946 123.606 250.146 123.606 248.346 122.206C 246.646 120.806 246.846 118.306 248.946 114.606C 250.846 109.806 250.446 104.306 247.846 98.0057C 245.146 91.7057 240.346 88.9058 233.246 89.4058C 228.446 89.6058 225.046 92.2057 222.946 97.1058C 220.846 102.006 220.046 106.906 220.646 111.706C 221.246 116.506 222.246 118.906 223.746 119.106C 224.846 119.306 228.246 120.806 233.846 123.706C 239.446 126.606 243.746 128.306 246.546 128.806C 253.946 130.306 258.246 132.706 259.246 135.906C 260.246 139.106 259.846 143.806 257.946 150.006C 256.046 156.206 255.446 161.306 256.246 165.306C 257.046 169.506 258.446 173.306 260.546 176.706C 262.646 180.106 264.846 183.306 267.246 186.106C 269.646 188.906 272.446 194.306 275.646 202.106C 278.846 209.906 281.846 219.706 284.446 231.506C 284.646 231.706 285.346 232.406 286.546 233.506C 287.746 234.606 289.046 236.106 290.246 237.806C 291.446 239.506 292.946 241.806 294.646 244.806C 296.346 247.806 298.246 252.106 300.246 257.806C 302.246 263.506 304.146 270.106 305.846 277.506C 307.946 286.306 309.046 296.406 309.146 308.106C 309.246 319.706 310.046 327.706 311.446 331.906C 312.846 336.206 316.546 337.906 322.446 337.206C 329.846 336.806 334.646 332.806 336.746 325.206C 343.046 303.106 337.946 276.706 321.346 245.806C 315.046 233.806 309.646 225.906 305.046 222.106C 311.746 225.906 318.546 233.006 325.646 243.506C 332.646 254.006 337.146 263.806 339.046 272.906C 339.246 273.906 339.746 276.406 340.646 280.506C 341.546 284.606 341.946 287.006 342.046 287.606C 342.146 288.306 342.546 290.206 343.146 293.506C 343.846 296.706 344.146 298.806 344.146 299.806C 344.146 300.806 344.246 302.606 344.446 305.406C 344.646 308.206 344.546 310.306 344.346 311.806C 344.046 313.306 343.746 315.406 343.446 317.906C 343.146 320.506 342.646 322.906 342.046 325.306C 341.346 327.706 340.646 330.306 339.946 333.206C 350.446 337.806 355.646 341.806 355.646 345.206C 351.646 342.006 345.946 339.806 338.546 338.806C 331.146 337.706 324.246 338.706 317.846 341.806C 311.446 344.806 308.146 349.906 307.946 356.906C 301.046 356.906 296.246 358.606 293.346 362.006C 289.146 366.906 286.946 373.706 286.746 382.106C 286.546 390.606 287.246 399.806 288.846 409.806C 290.746 420.106 291.446 427.106 291.046 431.106ZM 171.446 100.206C 170.846 100.006 170.446 99.4057 170.046 98.5057C 170.046 96.8057 170.946 96.1057 172.646 96.5057C 173.746 96.9057 174.846 98.3057 175.946 100.806C 176.946 103.306 177.246 106.106 176.646 109.406C 176.646 110.006 176.346 110.306 175.746 110.306C 173.646 110.306 172.846 108.406 173.446 104.606C 173.946 101.606 173.346 100.206 171.446 100.206ZM 245.346 104.706L 244.746 105.606C 243.246 106.606 242.446 106.706 242.446 106.206C 241.646 101.106 239.946 98.1057 237.346 97.3057L 236.246 96.7058C 234.946 95.6059 235.546 94.9058 238.246 94.7058C 238.846 94.5059 239.646 94.8057 240.846 95.6058C 241.946 96.4058 243.046 97.6059 243.946 99.2058C 244.846 100.806 245.346 102.606 245.346 104.706Z"/>
<path id="path1_fill" d="M -4.88281e-05 4.29995C -4.88281e-05 5.39995 0.499976 5.9001 1.39998 5.7001C 2.19998 5.7001 3 4.7999 3.8 2.9999C 4.7 1.1999 6.10002 0.199902 8.20002 -9.76563e-05L 5.3 -9.76563e-05C 1.8 0.599902 -4.88281e-05 1.99995 -4.88281e-05 4.29995Z"/>
<path id="path2_fill" d="M 0 1.43809C 1.9 0.838092 3.6 1.33814 5 2.73814C 6.4 4.13814 7.50005 4.73804 8.30005 4.63804C 9.40005 4.03804 9.69995 3.23795 9.19995 2.03795C 7.59995 -0.462054 4.6 -0.661908 0 1.43809Z"/>
</defs>
</svg>
