<svg width="233" height="283" viewBox="0 0 233 283" version="1.1" xmlns="http://www.w3.org/2000/svg" xmlns:xlink="http://www.w3.org/1999/xlink">
<title>Group</title>
<desc>Created using Figma</desc>
<g id="Canvas" transform="translate(2493 521)">
<g id="Group">
<g id="Vector">
<use xlink:href="#path0_fill" transform="translate(-2492.1 -520.9)" fill="#FFFFFF"/>
</g>
<g id="Vector">
<use xlink:href="#path1_fill" transform="translate(-2488.5 -275.8)" fill="#FFFFFF"/>
</g>
</g>
</g>
<defs>
<path id="path0_fill" d="M 231.3 16.7001C 229.7 15.4001 218.1 9.10005 216.7 8.40005C 216.6 8.30005 216.6 8.29995 216.6 8.29995L 202.6 16.4L 216.6 8.29995L 202.6 -9.76563e-05L 202.6 16.4999L 193.4 11.3L 188 8.29995C 188 8.29995 176 15.3 170.2 18.6C 165.2 21.5 155.1 27.4 149.4 30.9C 146.8 32.5 145 33.4999 145 33.4999L 145 49.2999L 130.2 87.7001L 130.2 108.6L 119.8 114.6L 115.7 125.4L 109.4 109L 86.7 50.1L 86.7 33.6L 44.4 8.9999L 28.9 -9.76563e-05L 17.3 6.7001L -7.62939e-07 16.7001L -7.62939e-07 33.7001L 18 77.1L 29 83.6L 29 103.4L 72.2 208.8L 115.6 233.6L 115.6 233.7L 159 208.6L 231.4 33.2001L 231.3 16.7001Z"/>
<path id="path1_fill" d="M 12 36.6001L 18.3 36.6001L 30.2 0.5L 25.7 0.5L 15.1 32.5L 4.5 0.5L -3.8147e-07 0.5L 12 36.6001ZM 48.2 0.600098L 41.9 0.600098L 29.7 36.7L 34.4 36.7L 37.3 28L 52.6 28L 55.6 36.7L 60.3 36.7L 48.2 0.600098ZM 51.5 23.8999L 38.6 23.8999L 45 3.8999L 51.5 23.8999ZM 70 10.8999C 70 5.9999 71.8 4.19995 77.7 4.19995C 80.7 4.19995 83.9 4.5001 87.4 5.1001L 87.9 1.1001C 84.5 0.300098 81 -4.54747e-13 77.9 -4.54747e-13C 68.9 -4.54747e-13 65.3 3.39995 65.3 10.7L 65.3 26.6001C 65.3 33.3001 68.1 37.2 77.3 37.2C 81 37.2 85.2 36.7001 88.7 35.6001L 88.7 20.1001L 84.2 20.1001L 84.2 32.3C 82 32.7001 79.7 32.9 77.4 33C 71.2 33 69.9 30.9 69.9 26.3L 70 10.8999ZM 119.9 36.6001L 125.3 36.6001L 115.9 23C 120.1 21.8 121.6 18.9001 121.6 14.6001L 121.6 9.3999C 121.6 3.8999 118.9 0.5 111.1 0.5L 97.3 0.5L 97.3 36.6001L 102 36.6001L 102 23.5L 110.8 23.5L 119.9 36.6001ZM 117 9.5L 117 14.7C 117 18.2 115.5 19.5 111 19.5L 102.1 19.5L 102.1 4.80005L 111 4.80005C 115.5 4.70005 117 5.9 117 9.5ZM 147.5 0.600098L 141.2 0.600098L 129 36.7L 133.7 36.7L 136.6 28L 151.9 28L 154.9 36.7L 159.6 36.7L 147.5 0.600098ZM 150.8 23.8999L 137.9 23.8999L 144.3 3.8999L 150.8 23.8999ZM 185.9 36.6001L 192.3 36.6001L 192.3 0.5L 187.9 0.5L 187.9 31.3999L 172.2 0.5L 165.8 0.5L 165.8 36.6001L 170.2 36.6001L 170.2 5.8999L 185.9 36.6001ZM 208.8 36.6001L 213.5 36.6001L 213.5 4.69995L 224.3 4.69995L 224.3 0.5L 198.1 0.5L 198.1 4.69995L 208.9 4.69995L 208.9 36.6001L 208.8 36.6001Z"/>
</defs>
</svg>
