<svg width="165" height="71" viewBox="0 0 165 71" version="1.1" xmlns="http://www.w3.org/2000/svg" xmlns:xlink="http://www.w3.org/1999/xlink">
<g id="Canvas" transform="translate(1300 2557)">
<g id="Vector">
<use xlink:href="#path0_fill" transform="translate(-1299.2 -2557)" fill="#FFFFFF"/>
</g>
</g>
<defs>
<path id="path0_fill" fill-rule="evenodd" d="M 10.2 24.4L 10.2 70.6L 19.6 70.6L 19.6 15L -4.88281e-05 15L -4.88281e-05 24.4L 10.2 24.4ZM 23.5 10.3L 7.8 10.3L 7.8 0.899997L 32.9 0.899997L 32.9 70.6L 23.5 70.6L 23.5 10.3ZM 163.7 59.6L 163.7 69L 74.4 69C 55.4 69 39.9 53.5 39.9 34.5C 39.9 15.5 55.4 3.05176e-06 74.4 3.05176e-06C 93.1 3.05176e-06 108.4 15.1 108.9 33.7L 99.5 33.7C 99.1 20.3 88 9.4 74.4 9.4C 60.6 9.4 49.3 20.7 49.3 34.5C 49.3 48.3 60.6 59.6 74.4 59.6C 104.2 59.6 133.9 59.6 163.7 59.6ZM 74.4 46.3C 67.9 46.3 62.7 41 62.7 34.6C 62.7 28.1 68 22.9 74.4 22.9C 80.6 22.9 85.7001 27.8 86.1001 33.9L 95.5 33.9C 95.1 22.6 85.8 13.5 74.4 13.5C 62.8 13.5 53.3 23 53.3 34.6C 53.3 46.2 62.8 55.7 74.4 55.7C 104.2 55.7 133.9 55.7 163.7 55.7L 163.7 46.3C 133.9 46.3 104.2 46.3 74.4 46.3Z"/>
</defs>
</svg>
