<svg width="254" height="148" viewBox="0 0 254 148" version="1.1" xmlns="http://www.w3.org/2000/svg" xmlns:xlink="http://www.w3.org/1999/xlink">
<title>Group</title>
<desc>Created using Figma</desc>
<g id="Canvas" transform="translate(1907 -1315)">
<g id="Group">
<g id="Vector">
<use xlink:href="#path0_fill" transform="translate(-1906.9 1409.7)" fill="#FFFFFF"/>
</g>
<g id="Vector">
<use xlink:href="#path1_fill" transform="translate(-1869.34 1315.02)" fill="#FFFFFF"/>
</g>
</g>
</g>
<defs>
<path id="path0_fill" d="M 27.8 1L 42.5 51.8999L 30.7 51.8999L 27.9 41.3999L 12.7 41.3999L 9.70001 51.8999L 0 51.8999L 15 1L 27.8 1ZM 15.2 32L 25.2 32L 20.2 14.2L 15.2 32ZM 73 23.3999L 65.5 25.6001C 64.6 22.2001 62.4 20.5 58.7 20.5C 55.3 20.5 53.5 21.5999 53.5 23.8999C 53.5 24.7999 53.8 25.5 54.4 26C 55 26.5 56.7 26.9999 59.3 27.3999C 63.3 27.9999 66.2 28.5999 68.1 29.3999C 70 30.0999 71.5 31.4 72.6 33.2C 73.7 35 74.3 37.1 74.3 39.7C 74.3 43.6 72.9 46.7 70.2 49.2C 67.5 51.6 63.7 52.8999 58.8 52.8999C 49.9 52.8999 44.7 49.2001 42.9 41.8L 51.5 40.3999C 52.2 43.7999 54.8 45.5 59.2 45.5C 60.9 45.5 62.3 45.2 63.5 44.5C 64.7 43.8 65.2 42.9 65.2 41.8C 65.2 40.1 63.9 39 61.3 38.7C 54.3 37.7999 49.7 36.3 47.5 34.3C 45.3 32.3 44.2 29.6 44.2 26C 44.2 22.4 45.5 19.5001 48.1 17.1001C 50.7 14.8001 54.3 13.6001 58.9 13.6001C 62.6 13.6001 65.5 14.4 67.7 16C 70.2 17.4 71.9 19.8999 73 23.3999ZM 92.5 22.8999L 92.5 38.8C 92.5 40.8 92.8 42.1 93.3 42.8C 93.9 43.5 95.1 43.8 97.2 43.8C 98.1 43.8 99.2 43.7999 100.5 43.7L 100.5 51.8999C 97.5 52.3999 95.4 52.7 94.1 52.7C 89.8 52.7 86.8 51.8 85 50C 83.2 48.2 82.3 44.9999 82.3 40.3999L 82.3 22.8999L 76.8 22.8999L 76.8 14.3L 82.9 14.3L 83.7 3.19995L 92.5 2.3999L 92.5 14.3L 100 14.3L 100 22.8999L 92.5 22.8999ZM 136.5 34.8999L 114.1 34.8999C 114.1 35.5999 114.1 36.2 114.1 36.7C 114.1 39.4 114.8 41.4 116.1 42.8C 117.4 44.2001 119 44.8 120.8 44.8C 124.2 44.8 126.3 42.7999 127 38.8999L 136.3 39.6001C 133.7 48.3001 128.5 52.6001 120.5 52.6001C 117 52.6001 114.1 51.8 111.7 50.3C 109.3 48.8 107.3 46.6 105.7 43.7C 104.1 40.7999 103.3 37.4 103.3 33.3C 103.3 27.3 104.9 22.5 108 18.8C 111.2 15.1 115.2 13.3 120.2 13.3C 124.7 13.3 128.5 14.9999 131.7 18.3999C 134.9 21.9999 136.5 27.4999 136.5 34.8999ZM 114.1 28.5L 126.5 28.5C 126.2 23.3 124.2 20.8 120.6 20.8C 116.8 20.7 114.6 23.3 114.1 28.5ZM 153 51.8999L 143 51.8999L 143 14.3L 152.4 14.3L 152.4 21.3C 153.8 16.1 156.3 13.5 159.9 13.5C 160.4 13.5 161 13.5001 161.7 13.6001L 161.7 24.6001C 159.6 24.6001 158 24.9001 156.8 25.6001C 155.6 26.3001 154.7 27.5 154 29.3C 153.3 31.1 152.9 33.5001 152.9 36.6001L 152.9 51.8999L 153 51.8999ZM 177.7 14.3L 177.7 51.8999L 167.5 51.8999L 167.5 14.3L 177.7 14.3ZM 177.7 0L 177.7 11.1001L 167.5 11.1001L 167.5 0L 177.7 0ZM 212.1 23.3999L 204.6 25.6001C 203.7 22.2001 201.5 20.5 197.8 20.5C 194.4 20.5 192.6 21.5999 192.6 23.8999C 192.6 24.7999 192.9 25.5 193.5 26C 194.1 26.5 195.8 26.9999 198.4 27.3999C 202.4 27.9999 205.3 28.5999 207.2 29.3999C 209.1 30.0999 210.6 31.4 211.7 33.2C 212.8 35 213.4 37.1 213.4 39.7C 213.4 43.6 212 46.7 209.3 49.2C 206.6 51.6 202.8 52.8999 197.9 52.8999C 189.1 52.8999 183.8 49.2001 182 41.8L 190.6 40.3999C 191.3 43.7999 193.9 45.5 198.3 45.5C 200 45.5 201.4 45.2 202.6 44.5C 203.8 43.8 204.3 42.9 204.3 41.8C 204.3 40.1 203 39 200.4 38.7C 193.4 37.7999 188.8 36.3 186.6 34.3C 184.4 32.3 183.3 29.6 183.3 26C 183.3 22.4 184.6 19.5001 187.2 17.1001C 189.8 14.8001 193.4 13.6001 198 13.6001C 201.7 13.6001 204.6 14.4 206.8 16C 209.3 17.4 211 19.8999 212.1 23.3999ZM 242.4 27L 253.7 51.8999L 242.4 51.8999L 235.1 34.8L 229.1 42.3L 229.1 51.8999L 219.4 51.8999L 219.4 1L 229.1 1L 229.1 31.5L 230.6 29.5C 231.2 28.6 231.8 27.8 232.2 27.2L 242.3 14.3L 252.3 14.3L 242.4 27Z"/>
<path id="path1_fill" d="M 71.4399 61.0777L 58.4399 52.8778L 58.8399 68.6778L 46.5399 68.7779L 46.9399 52.7779L 34.1399 61.1778L 27.8399 49.9779L 41.2399 42.5777L 27.8399 35.4779L 34.0399 24.2779L 46.7399 32.5777L 46.3399 16.7779L 59.0399 16.5777L 58.6399 32.5777L 71.5399 24.1778L 77.5399 35.2779L 64.4399 42.5777L 77.7399 49.8778L 71.4399 61.0777ZM 18.0399 18.6778C -22.8601 57.5778 10.1399 113.178 73.3399 82.4779L 94.0399 88.0777L 86.5399 71.7779C 112.44 43.9779 109.94 16.9777 86.4399 2.57773C 91.9399 7.37773 95.8399 11.5779 96.3399 15.4779C 76.5399 -13.5221 27.1399 1.27782 10.2399 34.6778C 11.2399 30.3778 14.1399 24.7778 18.0399 18.6778ZM 25.6399 20.0777C 43.3399 4.57773 73.6399 -0.822173 87.4399 12.6778C 101.24 26.1778 96.0399 53.7779 78.3399 69.2779C 60.6399 84.7779 32.4399 86.2778 18.6399 72.6778C 4.83991 59.1778 7.93991 35.5777 25.6399 20.0777Z"/>
</defs>
</svg>
