<svg width="748" height="501" viewBox="0 0 748 501" version="1.1" xmlns="http://www.w3.org/2000/svg" xmlns:xlink="http://www.w3.org/1999/xlink">
<title>Group</title>
<desc>Created using Figma</desc>
<g id="Canvas" transform="translate(2615 88)">
<g id="Group">
<g id="SVGID 1">
<use xlink:href="#path0_fill" transform="translate(-2431.6 -87.5)" fill="#FFFFFF"/>
</g>
<g id="docker 2">
<use xlink:href="#path1_fill" transform="translate(-2614.5 232.2)" fill="#FFFFFF"/>
</g>
</g>
</g>
<defs>
<path id="path0_fill" d="M 76.4008 220.7C 65.6008 220.7 55.7008 211.8 55.7008 201C 55.7008 190.2 64.6008 181.3 76.4008 181.3C 88.2008 181.3 97.1008 190.2 97.1008 201C 97.1008 211.8 87.3008 220.7 76.4008 220.7ZM 330.601 113.3C 328.601 97.5001 318.801 84.7 306.001 74.8999L 301.101 71L 297.201 75.8999C 289.301 84.7999 286.401 100.5 287.401 112.3C 288.401 121.2 291.301 130 296.301 136.9C 292.401 138.9 287.401 140.8 283.501 142.8C 274.601 145.8 265.801 146.7 256.901 146.7L 1.6008 146.7L 0.600804 152.6C -1.3992 171.3 1.60081 191 9.50081 208.7L 13.4008 215.6L 13.4008 216.6C 37.0008 256 79.4008 273.7 125.701 273.7C 214.301 273.7 287.201 235.3 321.701 152.6C 344.401 153.6 367.001 147.7 377.801 126L 380.801 121.1L 375.901 118.1C 363.101 110.3 345.301 109.4 330.601 113.3ZM 203.501 97.5L 165.101 97.5L 165.101 135.9L 203.501 135.9L 203.501 97.5ZM 203.501 49.3001L 165.101 49.3001L 165.101 87.7L 203.501 87.7L 203.501 49.3001ZM 203.501 4.88281e-05L 165.101 4.88281e-05L 165.101 38.4L 203.501 38.4L 203.501 4.88281e-05ZM 250.801 97.5L 212.401 97.5L 212.401 135.9L 250.801 135.9L 250.801 97.5ZM 108.001 97.5L 69.6008 97.5L 69.6008 135.9L 108.001 135.9L 108.001 97.5ZM 156.201 97.5L 117.801 97.5L 117.801 135.9L 156.201 135.9L 156.201 97.5ZM 60.7008 97.5L 22.3008 97.5L 22.3008 135.9L 60.7008 135.9L 60.7008 97.5ZM 156.201 49.3001L 117.801 49.3001L 117.801 87.7L 156.201 87.7L 156.201 49.3001ZM 108.001 49.3001L 69.6008 49.3001L 69.6008 87.7L 108.001 87.7L 108.001 49.3001Z"/>
<path id="path1_fill" d="M 552.6 138.9C 569.3 124.1 586.1 110.3 602.8 95.6001C 608.7 90.7001 614.6 85.8 620.5 79.8C 615.6 73.9 608.7 70 601.8 67C 589 62.1 576.2 63.9999 563.4 70.8999C 547.6 79.7999 540.7 94.5 541.7 112.3C 541.7 119.2 543.7 126.1 547.6 132C 550.6 135 551.6 137 552.6 138.9ZM 572.3 152.7C 580.2 155.7 590 155.7 598.9 153.7C 602.8 151.7 614.7 146.8 618.6 147.8L 620.6 147.8C 623.6 148.8 625.5 150.8 626.5 153.7C 629.5 159.6 628.5 165.5 622.6 168.5L 620.6 169.5C 598.9 182.3 576.3 180.3 554.6 168.5C 544.8 162.6 536.9 154.7 531 144.9L 530 142.9C 516.2 119.3 518.2 93.7 533.9 71C 538.8 63.1 546.7 57.2001 554.6 52.3L 557.6 50.3C 578.3 38.5 600 39.5 620.6 49.3C 631.4 55.2001 641.3 63.0999 647.2 73.8999L 648.2 75.8999C 653.1 83.7999 647.2 90.7001 640.3 95.6001L 619.6 113.3C 601.8 127.1 587 139.9 572.3 152.7ZM 732.8 44.3999L 734.8 44.3999C 741.7 44.3999 746.6 49.2999 746.6 56.2C 746.6 66 737.7 68 729.9 68C 720.1 68 710.2 73.9 703.3 80.8C 694.4 89.7001 690.5 100.5 690.5 112.3L 690.5 167.5C 690.5 173.4 686.6 179.3 679.7 179.3L 677.7 179.3C 670.8 179.3 666.9 174.4 666.9 167.5L 666.9 109.4C 666.9 86.6999 677.7 69 695.5 56.2C 708.2 48.2999 720 44.3999 732.8 44.3999ZM 451.1 82.8L 477.7 56.2C 480.7 54.2 489.5 43.3999 493.5 43.3999L 497.4 43.3999C 502.3 44.3999 506.3 47.2999 506.3 53.2L 506.3 55.2C 506.3 59.1 501.4 63.1 499.4 66C 494.5 71.9 488.6 76.7999 483.6 82.7L 456 110.3L 491.5 145.8L 501.3 155.7L 505.2 159.6C 506.2 161.6 507.2 162.6 507.2 164.5L 507.2 167.5C 506.2 172.4 502.3 176.4 497.4 176.4L 495.4 176.4C 491.5 176.4 487.5 172.5 484.6 169.5C 479.7 164.6 473.8 159.7 468.8 153.7L 451.1 137L 451.1 164.6C 451.1 170.5 447.2 176.4 440.3 176.4L 438.3 176.4C 431.4 176.4 427.5 171.5 427.5 164.6L 427.5 12.8999C 427.5 6.9999 431.4 2.1001 438.3 2.1001L 440.3 2.1001C 447.2 2.1001 451.1 6.9999 451.1 12.8999L 451.1 82.8ZM 378.2 68C 375.2 66 368.3 66 364.4 66C 345.7 65 331.9 75.8001 324 92.6001C 321 98.5001 320.1 104.4 320.1 111.3C 320.1 131 329.9 144.8 347.7 152.7C 353.6 155.7 362.5 156.6 369.4 156.6C 375.3 156.6 384.2 152.7 389.1 150.7L 394 150.7C 398.9 151.7 402.9 154.6 402.9 160.5L 402.9 162.5C 402.9 176.3 377.3 179.2 368.4 180.2C 334.9 182.2 309.3 163.5 299.5 131.9C 297.5 126 297.5 121.1 297.5 115.2L 297.5 110.3C 297.5 85.7001 309.3 66 331 54.2C 340.8 48.2999 351.7 45.3 363.5 45.3L 368.4 45.3C 380.2 45.3 392 48.3001 401.9 55.1001L 402.9 56.1001L 403.9 57.1001C 404.9 59.1001 405.9 61 405.9 63L 405.9 65C 405.9 70.9 402 73.9 396.1 74.8L 395.1 74.8C 388.1 72.9 380.2 69 378.2 68ZM 171.4 110.4C 171.4 127.1 180.3 139.9 194.1 148.8C 201 152.7 208.9 154.7 216.8 154.7C 233.5 154.7 246.3 145.8 255.2 132C 259.1 125.1 261.1 117.2 261.1 109.3C 261.1 93.5 253.2 80.6999 240.4 71.8999C 233.5 66.9999 224.6 65 216.8 65C 198.1 65 184.3 74.8001 176.4 91.6001C 171.4 98.6001 171.4 104.5 171.4 110.4ZM 212.8 43.3999L 215.8 43.3999C 242.4 43.3999 262.1 56.1999 274.9 78.8999C 279.8 87.7999 282.8 97.5999 282.8 108.4L 282.8 113.3C 282.8 137.9 271 157.6 249.3 169.4C 239.5 175.3 228.6 178.3 216.8 178.3L 211.9 178.3C 187.3 178.3 167.6 166.5 155.8 144.8C 149.9 135 146.9 124.1 146.9 112.3L 146.9 107.4C 146.9 82.7999 158.7 63.1 180.4 51.3C 191.1 46.4 200.9 43.3999 212.8 43.3999ZM 21.7 110.4C 21.7 128.1 30.6 141.9 46.3 149.8C 52.2 152.8 59.1 154.7 67 154.7C 84.7 154.7 97.5 146.8 106.4 132C 110.3 125.1 112.3 117.2 112.3 109.3C 112.3 93.5 105.4 81.6999 92.6 72.8999C 84.7 67.9999 76.8 65 67 65C 48.3 65 34.5 74.8001 26.6 91.6001C 23.6 98.6001 21.7 104.5 21.7 110.4ZM 112.3 60.1001L 112.3 11.8C 112.3 5.90005 116.2 4.54747e-13 123.1 4.54747e-13L 125.1 4.54747e-13C 132 4.54747e-13 135.9 4.90005 135.9 11.8L 135.9 113.3C 135.9 137.9 124.1 157.6 102.4 169.4C 92.6 175.3 81.7 178.3 69.9 178.3L 65 178.3C 40.4 178.3 20.7 166.5 8.9 144.8C 3 135 1.52588e-06 124.1 1.52588e-06 112.3L 1.52588e-06 107.4C 1.52588e-06 82.7999 11.8 63.1 33.5 51.3C 43.4 45.4 54.2 42.3999 66 42.3999L 70.9 42.3999C 85.7 43.3999 100.5 49.3001 112.3 60.1001Z"/>
</defs>
</svg>
