<svg width="594" height="612" viewBox="0 0 594 612" version="1.1" xmlns="http://www.w3.org/2000/svg" xmlns:xlink="http://www.w3.org/1999/xlink">
<title>Group</title>
<desc>Created using Figma</desc>
<g id="Canvas" transform="translate(-345 -1992)">
<g id="Group">
<g id="Vector">
<use xlink:href="#path0_fill" transform="translate(543 2369.92)" fill="#FFFFFF"/>
</g>
<g id="Vector">
<use xlink:href="#path1_fill" transform="translate(727.2 2025.66)" fill="#FFFFFF"/>
</g>
<g id="Vector">
<use xlink:href="#path2_fill" transform="translate(379.369 2033.52)" fill="#FFFFFF"/>
</g>
<g id="Vector">
<use xlink:href="#path3_fill" transform="translate(345.629 1992.18)" fill="#FFFFFF"/>
</g>
<g id="Vector">
<use xlink:href="#path4_fill" transform="translate(804.21 2367.5)" fill="#FFFFFF"/>
</g>
<g id="Vector">
<use xlink:href="#path5_fill" transform="translate(535.3 2032.08)" fill="#FFFFFF"/>
</g>
<g id="Vector">
<use xlink:href="#path6_fill" transform="translate(532.232 2170.89)" fill="#FFFFFF"/>
</g>
<g id="Vector">
<use xlink:href="#path7_fill" transform="translate(760.45 2168.02)" fill="#FFFFFF"/>
</g>
</g>
</g>
<defs>
<path id="path0_fill" d="M 80.1 1.4827C 75.5 -0.417297 72.8999 -1.51749 67.2999 4.78251C 63.5 8.98251 60.8 12.3827 58.4 15.4827C 48 28.7827 43.2001 33.2823 12.2001 39.5823C 5.8001 40.8823 2.0999 42.1824 -9.76563e-05 43.1824C 2.4999 44.8824 6.70005 46.8823 11.4 48.0823C 34.2001 53.7823 66 54.1824 87.9 23.6824C 90.5 20.0824 89.6999 15.3827 88.9999 12.9827C 87.4999 7.7827 83.8 3.0827 80.1 1.4827Z"/>
<path id="path1_fill" d="M 66.4 54.6439C 93.7 86.3439 107 121.444 108.2 133.144C 108.4 134.944 108.2 136.444 107.9 137.744C 108.3 149.944 106.8 160.344 105.2 170.344C 103.9 178.444 102.6 186.844 102.3 196.644C 102 205.844 103.2 215.744 104.4 226.144C 107.5 251.544 110.9 280.244 93.2999 309.144L 94.2001 310.244C 94.9 311.144 95.5999 311.944 96.2999 312.844C 164.2 206.044 187.6 82.3439 166.3 55.1439C 138.5 19.6439 99.2999 1.14381 49.7999 0.0438148C 30.1999 -0.356185 12.8001 2.04401 9.76563e-05 4.74401C 29.7001 17.844 51.5 37.2439 66.4 54.6439Z"/>
<path id="path2_fill" d="M 160.232 308.382C 141.432 288.782 132.832 261.582 136.732 233.782C 140.932 203.882 139.332 177.482 138.532 163.282C 138.332 159.382 138.131 156.582 138.131 154.582C 138.031 149.382 136.832 65.0822 185.732 15.7822C 186.132 15.3822 186.632 14.982 187.032 14.582C 157.232 4.88199 83.1315 -14.2179 38.1315 17.6821C 10.4315 37.2821 -2.26835 73.8822 0.331654 126.282C 1.13165 142.882 11.6315 201.982 29.6315 260.782C 50.3315 328.782 73.9316 371.582 94.2316 378.382C 97.3316 379.382 106.832 382.582 120.532 366.082C 139.932 342.782 158.132 322.982 166.432 313.982C 164.232 312.282 162.132 310.382 160.232 308.382Z"/>
<path id="path3_fill" d="M 591.571 366.418C 587.971 355.618 578.671 348.118 566.571 346.318C 560.871 345.418 554.371 345.818 546.671 347.418C 533.171 350.218 523.271 351.218 515.971 351.418C 543.471 305.018 565.771 252.018 578.671 202.218C 599.471 121.618 588.371 84.9177 575.371 68.3177C 540.971 24.4177 490.771 0.717872 430.271 0.0178722C 397.971 -0.382128 369.671 6.01797 354.871 10.618C 341.071 8.21797 326.271 6.81797 310.771 6.61797C 281.671 6.11797 255.971 12.5179 233.971 25.5179C 221.771 21.4179 202.271 15.6178 179.671 11.9178C 126.571 3.21777 83.8712 10.018 52.5713 32.118C 14.6712 58.918 -2.82894 105.318 0.371055 170.318C 1.37106 190.918 12.9713 253.618 31.0713 313.118C 41.4713 347.318 52.6711 375.718 64.1711 397.518C 80.4711 428.418 97.9713 446.618 117.571 453.218C 128.571 456.918 148.571 459.418 169.571 441.918C 172.271 445.118 175.771 448.318 180.471 451.318C 186.471 455.118 193.771 458.218 201.071 460.018C 227.371 466.618 252.071 464.918 273.171 455.718C 273.271 459.418 273.371 463.018 273.471 466.118C 273.571 471.118 273.771 476.018 273.971 480.618C 275.171 511.718 277.371 535.818 283.571 552.718C 283.871 553.618 284.371 555.018 284.871 556.518C 287.971 566.118 293.171 582.118 306.471 594.618C 320.271 607.618 336.871 611.618 352.171 611.618C 359.771 611.618 367.071 610.618 373.471 609.218C 396.271 604.318 422.171 596.918 440.971 570.218C 458.671 545.018 467.271 507.018 468.871 447.118C 469.071 445.418 469.271 443.818 469.471 442.318L 469.871 439.118L 474.071 439.518L 475.171 439.618C 498.371 440.718 526.771 435.718 544.271 427.618C 557.771 421.218 601.971 397.918 591.571 366.418ZM 536.271 411.218C 522.471 417.618 500.371 421.718 481.271 421.718C 472.071 421.718 463.671 420.818 457.071 418.718C 453.971 447.418 447.271 500.918 443.471 523.318C 436.271 565.218 417.571 584.218 374.571 593.518C 367.271 595.118 360.571 595.818 354.571 595.818C 313.371 595.818 300.271 563.218 294.971 549.818C 288.471 533.518 286.171 480.018 286.671 425.618C 271.771 439.018 253.171 446.018 232.071 446.018C 223.371 446.018 214.271 444.818 204.771 442.518C 202.071 441.818 178.271 435.418 178.571 420.218C 178.871 406.318 198.771 402.218 206.271 400.618C 232.571 395.218 234.271 393.018 242.471 382.618C 244.371 380.118 246.371 377.618 248.471 375.218C 248.471 374.918 248.371 374.618 248.371 374.318C 236.571 374.018 224.971 370.818 214.471 365.218C 198.271 382.518 182.571 400.318 167.371 418.518C 154.971 433.518 142.971 437.818 133.271 437.818C 129.271 437.818 125.671 437.118 122.571 436.018C 95.8712 427.118 70.4713 383.718 47.0713 307.218C 29.2713 249.018 18.0713 188.318 17.0713 168.518C 14.1713 109.818 29.2713 68.3179 62.0713 45.0179C 89.5713 25.5179 128.071 19.6178 176.571 27.4178C 204.571 31.9178 227.571 39.818 236.371 43.118C 256.771 29.218 281.471 22.3177 309.971 22.8177C 325.571 23.1177 339.871 25.1177 352.971 28.3177C 359.171 25.6177 391.371 15.8177 429.371 16.3177C 484.671 16.9177 530.371 38.2179 561.471 78.0179C 569.171 87.9179 572.971 104.018 572.571 126.018C 572.271 146.018 568.471 170.618 561.671 197.118C 547.271 252.918 520.471 312.818 487.971 362.318C 492.871 365.918 507.871 371.918 549.671 363.318C 563.771 360.418 572.271 363.018 574.871 370.918C 579.871 386.318 551.871 404.018 536.271 411.218Z"/>
<path id="path4_fill" d="M 20.4901 1.8001C 19.5901 1.2001 18.7899 0.599805 18.0899 -0.000195313C 16.8899 0.399805 15.6901 0.799902 14.4901 1.0999C 6.59005 3.2999 -0.910091 5.39981 0.0899086 25.4998C 2.18991 27.1998 10.99 29.9999 28.39 29.0999C 44.09 28.3999 60.6899 24.9001 70.5899 20.3001C 82.0899 15.0001 90.1901 8.9999 94.9901 4.5999L 94.5899 4.7C 59.3899 12 34.3901 11.0001 20.4901 1.8001Z"/>
<path id="path5_fill" d="M 272.8 314.518C 267.3 307.618 259.8 298.318 254 284.218C 253.1 282.018 250.3 277.018 247 271.118C 229.2 239.118 192.1 172.718 216.1 138.418C 227.1 122.718 248.8 116.318 280.8 119.618C 276.6 107.018 265.9 83.6184 246.2 60.3184C 223.4 33.3184 183 1.01811 119.9 0.0181091C 87.9001 -0.481891 61.6001 9.3183 41.9001 29.2183C 10.6001 60.8183 2.19995 110.718 -4.88281e-05 137.418C 1.49995 136.618 2.9999 135.818 4.6999 134.918C 12.5999 130.918 28.6 123.918 46 122.118C 75 119.118 94.2001 132.018 99.9001 158.618C 115.2 229.418 101.1 260.718 90.8 283.618C 88.9 287.818 87.0999 291.818 85.6999 295.718L 84.4001 299.118C 81.4001 307.218 78.6001 314.818 76.9001 321.418C 84.5001 319.518 90.7999 322.118 94.1999 323.518C 102.9 327.118 110.1 335.718 113 346.118C 113.5 347.718 113.8 349.418 114.1 351.118C 114.4 352.018 114.5 352.918 114.5 353.818C 112.5 424.918 115.3 489.218 121 503.518C 129.8 525.618 143.3 544.918 181.2 536.818C 217.8 529.018 230.8 515.818 236.8 480.518C 241.4 453.818 250.5 378.118 251.8 361.918C 250.2 329.718 267.6 323.218 277.3 320.418C 276.1 318.718 274.5 316.618 272.8 314.518Z"/>
<path id="path6_fill" d="M 86.2676 23.4107C 83.5676 10.8107 76.9678 3.51084 66.1678 1.01084C 42.5678 -4.38916 9.46771 13.3105 2.36771 19.6105C 2.46771 21.0105 2.56776 22.8107 2.66776 24.9107C 3.56776 39.7107 5.16761 67.2105 0.76761 98.7105C -2.43239 121.211 4.46776 143.21 19.6678 159.11C 31.5678 171.51 47.2677 178.411 63.3677 178.511C 65.2677 170.911 68.1677 162.911 71.3677 154.311L 72.6678 150.911C 74.2678 146.511 76.2676 142.211 78.2676 137.711C 88.1676 115.911 100.368 88.7107 86.2676 23.4107ZM 78.4678 20.0108C 77.8678 24.3108 70.9678 30.2106 63.4678 30.2106C 62.8678 30.2106 62.1678 30.2105 61.4678 30.1105C 56.9678 29.5105 52.3676 26.6108 49.2676 22.5108C 48.1676 21.0108 46.3676 18.2105 46.7676 15.6105C 46.8676 14.6105 47.3678 13.2108 48.9678 12.0108C 51.8678 9.81084 57.4678 9.01075 63.6678 9.91075C 71.2678 10.9107 79.1678 14.6108 78.4678 20.0108Z"/>
<path id="path7_fill" d="M 51.9503 53.7787C 52.2503 42.9787 53.6502 33.9788 55.0502 25.3788C 56.2502 17.3788 57.4502 9.67858 57.5502 1.17858C 23.7502 -3.02142 10.2503 4.77878 4.95032 12.3788C -12.8497 37.8788 21.9502 100.279 36.8502 126.879C 40.6502 133.679 43.4504 138.679 44.7504 141.779C 46.0504 144.979 47.5504 148.078 49.2504 151.078C 59.4504 129.278 56.8504 107.279 54.2504 85.8788C 52.9504 75.2788 51.6503 64.2787 51.9503 53.7787ZM 37.9503 20.3788C 36.3503 22.0788 32.8503 25.0787 28.1503 25.7787C 27.5503 25.8787 26.9502 25.8788 26.3502 25.8788C 19.2502 25.8788 13.2502 20.1788 12.8502 16.8788C 12.2502 12.5788 19.2502 9.37878 26.3502 8.37878C 33.5502 7.37878 41.0503 8.57878 41.6503 12.8788C 41.9503 14.8788 40.4503 17.7788 37.9503 20.3788Z"/>
</defs>
</svg>
