<svg width="482" height="481" viewBox="0 0 482 481" version="1.1" xmlns="http://www.w3.org/2000/svg" xmlns:xlink="http://www.w3.org/1999/xlink">
<title>graph 2</title>
<desc>Created using Figma</desc>
<g id="Canvas" transform="translate(800 1246)">
<g id="graph 2">
<use xlink:href="#path0_fill" transform="translate(-799.7 -1246)" fill="#FFFFFF"/>
</g>
</g>
<defs>
<path id="path0_fill" d="M 240.5 4.88281e-05C 222.6 4.88281e-05 205.2 2 188.4 5.7L 188.4 240.6C 188.4 269.4 211.9 292.8 240.6 292.8C 269.4 292.8 292.8 269.3 292.8 240.6C 292.8 213 271.2 190.3 244 188.5L 244 146.7C 294.2 148.5 334.5 190 334.5 240.7C 334.5 292.5 292.3 334.7 240.5 334.7C 188.7 334.7 146.5 292.5 146.5 240.7L 146.5 19.2C 140.6 21.7 134.8 24.5 129.1 27.5L 129.1 240.7C 129.1 302.1 179.2 352.2 240.6 352.2C 302 352.2 352.1 302.1 352.1 240.7C 352.1 180.5 303.9 131.2 244.1 129.3L 244.1 87.5C 326.9 89.4 393.8 157.5 393.8 240.7C 393.8 325.1 325 393.9 240.6 393.9C 156.2 393.9 87.3 325.1 87.3 240.7L 87.3 55.2C 34 99.3 -4.88281e-05 166 -4.88281e-05 240.5C -4.88281e-05 373.3 107.6 480.9 240.4 480.9C 373.2 480.9 480.8 373.3 480.8 240.5C 480.9 107.6 373.3 4.88281e-05 240.5 4.88281e-05Z"/>
</defs>
</svg>
