<svg width="715" height="620" viewBox="0 0 715 620" version="1.1" xmlns="http://www.w3.org/2000/svg" xmlns:xlink="http://www.w3.org/1999/xlink">
<title>Group</title>
<desc>Created using Figma</desc>
<g id="Canvas" transform="translate(33 226)">
<g id="Group">
<g id="Vector">
<use xlink:href="#path0_fill" transform="translate(-32.7876 -225.402)" fill="#FFFFFF"/>
</g>
<g id="Vector">
<use xlink:href="#path1_fill" transform="translate(124.6 292.3)" fill="#FFFFFF"/>
</g>
<g id="Vector">
<use xlink:href="#path2_fill" transform="translate(149.8 318)" fill="#FFFFFF"/>
</g>
<g id="Vector">
<use xlink:href="#path3_fill" transform="translate(241.3 318)" fill="#FFFFFF"/>
</g>
<g id="Vector">
<use xlink:href="#path4_fill" transform="translate(282.1 318)" fill="#FFFFFF"/>
</g>
<g id="Vector">
<use xlink:href="#path5_fill" transform="translate(370.4 319.9)" fill="#FFFFFF"/>
</g>
<g id="Vector">
<use xlink:href="#path6_fill" transform="translate(448.3 318.1)" fill="#FFFFFF"/>
</g>
<g id="Vector">
<use xlink:href="#path7_fill" transform="translate(537.8 292.3)" fill="#FFFFFF"/>
</g>
</g>
</g>
<defs>
<path id="path0_fill" d="M 443.588 486.102C 439.788 486.102 436.188 484.102 434.188 480.802L 350.988 342.001L 195.588 384.302C 190.588 385.702 185.388 383.402 182.988 378.802L 1.28769 37.0015C -0.412314 33.8015 -0.412167 30.0015 1.18783 26.8015C 2.78783 23.6015 5.98788 21.4016 9.48788 20.9016L 163.888 0.101563C 168.288 -0.498437 172.488 1.60151 174.788 5.30151L 361.288 316.302L 577.888 257.402L 505.588 155.402C 503.488 152.402 502.988 148.602 504.288 145.202C 505.588 141.802 508.488 139.202 512.088 138.402L 613.388 114.501C 617.488 113.501 621.888 115.002 624.488 118.302L 712.188 227.802C 714.488 230.702 715.188 234.602 714.088 238.102C 712.988 241.602 710.088 244.302 706.488 245.302L 614.088 270.402L 694.588 383.902C 696.588 386.702 697.188 390.302 696.088 393.602C 695.088 396.902 692.488 399.502 689.288 400.602L 447.288 485.302C 445.988 485.902 444.788 486.102 443.588 486.102ZM 372.988 336.001L 448.388 461.802L 668.188 384.802L 591.388 276.602L 372.988 336.001ZM 27.9879 40.6016L 198.188 360.702L 339.188 322.402L 159.588 22.9016L 27.9879 40.6016ZM 532.888 156.102L 600.488 251.302L 684.488 228.501L 611.588 137.501L 532.888 156.102Z"/>
<path id="path1_fill" d="M 9.19995 9.76563e-05L 0 9.76563e-05L 0 99.1L 9.19995 99.1L 9.19995 9.76563e-05Z"/>
<path id="path2_fill" d="M 74.4001 1.89995L 74.4001 73.3999L 65.3 73.3999L 65.3 61.0999C 61.4 65.7999 57.1 69.3 52.3 71.7C 47.5 74.1 42.3 75.2 36.6 75.2C 26.5 75.2 17.7999 71.5 10.6999 64.2C 3.4999 56.9 -4.88281e-05 47.9 -4.88281e-05 37.4C -4.88281e-05 27.1 3.6 18.3 10.8 11C 18 3.70005 26.7001 4.88281e-05 36.9001 4.88281e-05C 42.8001 4.88281e-05 48.1 1.2 52.8 3.7C 57.6 6.2 61.7 9.89995 65.3 14.9L 65.3 1.8001L 74.4001 1.8001L 74.4001 1.89995ZM 37.6 8.89995C 32.5 8.89995 27.8001 10.2 23.4001 12.7C 19.1001 15.2 15.6 18.7001 13.1 23.3001C 10.5 27.8001 9.3 32.7 9.3 37.7C 9.3 42.7 10.5999 47.4999 13.1999 52.0999C 15.7999 56.6999 19.2 60.3001 23.6 62.8001C 28 65.4001 32.6 66.5999 37.6 66.5999C 42.6 66.5999 47.4001 65.3001 51.9001 62.8001C 56.4001 60.3001 59.9 56.8 62.3 52.5C 64.7 48.2001 65.9001 43.3 65.9001 37.9C 65.9001 29.6 63.1999 22.7 57.6999 17.2C 52.2999 11.7 45.6 8.89995 37.6 8.89995Z"/>
<path id="path3_fill" d="M 0.100049 1.89995L 9.49995 1.89995L 9.49995 12.3001C 12.3 8.2001 15.3001 5.0999 18.4001 3.0999C 21.5001 1.0999 24.7 4.88281e-05 28.1 4.88281e-05C 30.6 4.88281e-05 33.3999 0.799951 36.1999 2.39995L 31.4001 10.2C 29.5001 9.4 27.9 9.00005 26.5 9.00005C 23.4 9.00005 20.5 10.3001 17.6 12.8001C 14.8 15.3001 12.6 19.2001 11.1 24.5C 10 28.6 9.4001 36.8 9.4001 49.2L 9.4001 73.3999L -4.88281e-05 73.3999L -4.88281e-05 1.89995L 0.100049 1.89995Z"/>
<path id="path4_fill" d="M 74.3999 1.89995L 74.3999 73.3999L 65.3 73.3999L 65.3 61.0999C 61.4 65.7999 57.1 69.3 52.3 71.7C 47.5 74.1 42.3001 75.2 36.6001 75.2C 26.5001 75.2 17.8 71.5 10.7 64.2C 3.49995 56.9 -4.54747e-13 47.9 -4.54747e-13 37.4C -4.54747e-13 27.1 3.60005 18.3 10.8 11C 18 3.70005 26.6999 4.88281e-05 36.8999 4.88281e-05C 42.7999 4.88281e-05 48.1 1.2 52.8 3.7C 57.6 6.2 61.7001 9.89995 65.3 14.9L 65.3 1.8001L 74.3999 1.8001L 74.3999 1.89995ZM 37.7 8.89995C 32.6 8.89995 27.9 10.2 23.5 12.7C 19.2 15.2 15.7 18.7001 13.2 23.3001C 10.6 27.8001 9.3999 32.7 9.3999 37.7C 9.3999 42.7 10.7 47.4999 13.3 52.0999C 15.9 56.6999 19.3 60.3001 23.7 62.8001C 28.1 65.4001 32.7 66.5999 37.7 66.5999C 42.7 66.5999 47.5 65.3001 52 62.8001C 56.5 60.3001 59.9999 56.8 62.3999 52.5C 64.7999 48.2001 66 43.3 66 37.9C 66 29.6 63.3 22.7 57.8 17.2C 52.3 11.7 45.6 8.89995 37.7 8.89995Z"/>
<path id="path5_fill" d="M 4.88281e-05 -4.88281e-05L 9.8001 -4.88281e-05L 33.8001 52.1L 57.5 -4.88281e-05L 67.3999 -4.88281e-05L 34.7 71.4001L 33 71.4001L 4.88281e-05 -4.88281e-05Z"/>
<path id="path6_fill" d="M 63.6 49.4999L 71.4001 53.6C 68.9001 58.6 65.9 62.6001 62.6 65.7001C 59.3 68.8001 55.5001 71.1001 51.4001 72.7001C 47.2001 74.3001 42.5 75.1 37.3 75.1C 25.6 75.1 16.5001 71.3 9.9001 63.6C 3.3001 56 -4.88281e-05 47.3001 -4.88281e-05 37.7001C -4.88281e-05 28.6001 2.8 20.5999 8.3 13.4999C 15.4 4.4999 24.8 -9.76563e-05 36.6 -9.76563e-05C 48.8 -9.76563e-05 58.5 4.60005 65.8 13.9C 71 20.4 73.5999 28.5999 73.6999 38.2999L 9.4001 38.2999C 9.6001 46.5999 12.2001 53.4001 17.4001 58.7001C 22.5001 64.0001 28.9001 66.7001 36.4001 66.7001C 40.0001 66.7001 43.5999 66.1 47 64.7999C 50.4 63.5 53.4 61.8999 55.8 59.7999C 58.2 57.5999 60.8 54.1999 63.6 49.4999ZM 63.6 30.3C 62.4 25.4 60.5999 21.4999 58.1999 18.4999C 55.8999 15.5999 52.8001 13.2 48.9001 11.4C 45.0001 9.60005 40.9999 8.7001 36.6999 8.7001C 29.6999 8.7001 23.7 10.9999 18.6 15.4999C 14.9 18.7999 12.0999 23.7 10.1999 30.3L 63.6 30.3Z"/>
<path id="path7_fill" d="M 9.1999 9.76563e-05L -4.88281e-05 9.76563e-05L -4.88281e-05 99.1L 9.1999 99.1L 9.1999 9.76563e-05Z"/>
</defs>
</svg>
