<svg width="478" height="398" viewBox="0 0 478 398" version="1.1" xmlns="http://www.w3.org/2000/svg" xmlns:xlink="http://www.w3.org/1999/xlink">
<title>Group</title>
<desc>Created using Figma</desc>
<g id="Canvas" transform="translate(160 -2343)">
<g id="Group">
<g id="Group">
<g id="Vector">
<use xlink:href="#path0_fill" transform="matrix(0.569 0 0 0.569 16.7996 2470.05)" fill="#FFFFFF"/>
</g>
<g id="Vector">
<use xlink:href="#path1_fill" transform="matrix(0.569 0 0 0.569 57.947 2343.67)" fill="#FFFFFF"/>
</g>
<g id="Vector">
<use xlink:href="#path2_fill" transform="matrix(0.569 0 0 0.569 36.7801 2371.9)" fill="#FFFFFF"/>
</g>
</g>
<g id="Vector">
<use xlink:href="#path3_fill" transform="translate(-159.839 2605.9)" fill="#FFFFFF"/>
</g>
</g>
</g>
<defs>
<path id="path0_fill" d="M 274.515 0.000195313L 179.215 31.0998L 96.3153 67.7004L 73.1151 73.8C 67.2151 79.4 61.0153 85.0996 54.3153 90.8996C 47.0153 97.1996 40.1149 103 34.9149 107.2C 29.1149 111.8 20.415 120.5 16.015 125.9C 9.41497 134.1 4.31497 142.8 2.01497 149.5C -1.98503 161.6 0.0150676 173.8 7.61507 185.2C 17.4151 199.6 36.9152 214.3 59.7152 224.3C 71.3152 229.4 90.815 236 105.515 239.6C 129.915 245.8 177.215 252.5 203.215 253.5C 208.515 253.7 215.515 253.7 215.815 253.5C 216.415 253.1 220.415 245.4 225.115 235.9C 241.115 203.3 252.615 172.7 258.915 146.5C 262.615 130.7 265.615 109.5 267.515 84.5998C 268.015 77.5998 268.215 54.2 267.815 46.3C 267.215 33.3 266.015 22.8002 264.215 12.5002C 263.915 11.0002 263.815 9.6002 264.015 9.5002C 264.315 9.3002 265.215 8.99981 276.915 5.5998L 274.515 0.000195313ZM 252.815 12.8C 253.715 12.8 256.015 34.8996 256.515 48.8996C 256.615 51.8996 256.615 53.8 256.415 53.8C 255.815 53.8 244.215 47 235.915 41.8C 228.715 37.3 215.015 28.2002 212.915 26.5002C 212.215 26.0002 212.215 25.8996 218.215 23.8996C 228.215 20.3996 252.015 12.8 252.815 12.8ZM 204.215 28.8C 204.815 28.8 206.515 29.7004 210.515 32.2004C 225.315 41.5004 245.515 52.7002 254.215 56.5002C 256.915 57.7002 257.215 57.1996 251.015 61.3996C 237.915 70.2996 221.515 79.1002 201.515 88.0002C 198.015 89.6002 195.015 90.8 194.915 90.8C 194.815 90.8 195.215 89 195.815 86.8C 200.615 68.9 203.415 50.7004 203.515 36.2004C 203.615 28.9004 203.615 28.9 204.215 28.8C 204.115 28.8 204.215 28.8 204.215 28.8ZM 194.215 32.5998C 194.615 32.9998 194.315 49.1998 193.815 53.5998C 192.515 64.0998 190.515 73.8996 187.215 84.8996C 186.415 87.5996 185.715 89.7996 185.515 89.8996C 185.215 90.2996 175.315 80.5996 172.115 76.8996C 166.515 70.3996 162.115 63.8998 158.815 57.5998C 157.115 54.3998 154.615 48 154.815 47.8C 156.015 47 193.915 32.2998 194.215 32.5998ZM 147.115 51.0998C 147.215 51.0998 147.215 51.1004 147.315 51.2004C 147.415 51.3004 147.915 52.5 148.415 53.8C 150.715 60.1 155.915 69.3004 160.415 75.2004C 165.315 81.7004 171.715 88.5998 177.015 93.0998C 178.715 94.4998 180.315 95.8998 180.515 96.0998C 180.915 96.4998 181.115 96.4996 169.315 100.9C 155.715 106.1 140.815 111.3 123.815 116.7C 119.715 118 115.715 119.3 111.615 120.7C 111.015 120.9 111.215 120.6 113.015 117.6C 121.415 104.4 134.215 78.6 141.515 60.3C 142.715 57.1 143.915 54.0004 144.215 53.2004C 144.515 52.2004 144.815 51.8 145.815 51.3C 146.415 51.3 146.915 51.0998 147.115 51.0998ZM 132.715 57.0998C 132.915 57.1998 129.215 65.0002 125.615 72.0002C 118.615 85.6002 111.015 99 100.715 115.3C 99.0152 118.1 97.3151 120.7 97.1151 121C 96.7151 121.5 96.6149 121.4 95.4149 119.1C 93.0149 114.3 90.9149 108.1 89.9149 102.4C 88.8149 96.7996 89.0153 86.9996 90.3153 80.8996C 91.2153 76.3996 91.2153 76.4996 93.3153 75.3996C 102.615 70.7996 132.415 56.7998 132.715 57.0998ZM 257.015 62.0998L 257.015 65.0998C 257.015 81.1998 255.315 103.2 252.715 119.3C 252.315 122.1 251.915 124.4 251.815 124.5C 251.815 124.5 249.715 123.9 247.315 123.2C 236.515 119.8 224.815 114.8 214.215 109C 207.215 105.2 197.115 98.8998 197.315 98.5998C 197.415 98.4998 200.415 96.8998 203.915 95.0998C 218.015 87.7998 231.615 79.8002 243.315 72.0002C 247.715 69.0002 254.315 64.3002 255.815 63.0002L 257.015 62.0998ZM 78.3153 83.5002C 78.6153 83.5002 78.5151 84.1004 78.1151 86.7004C 77.8151 88.6004 77.5153 91.9996 77.3153 94.3996C 76.7153 104.9 78.5151 112.7 83.6151 123.4C 85.0151 126.4 86.2151 128.8 86.1151 128.9C 85.6151 129.3 37.9149 143.3 22.9149 147.4C 18.4149 148.6 14.5153 149.7 14.3153 149.8C 13.8153 149.9 13.7149 149.9 13.9149 148.6C 15.6149 138 23.6149 124.2 34.9149 112.5C 42.4149 104.7 48.4151 100.2 58.6151 94.3C 65.9151 90.1 77.3151 83.8998 78.1151 83.5998C 78.2151 83.4998 78.3153 83.5002 78.3153 83.5002ZM 190.715 103.6C 190.815 103.5 192.515 104.5 194.615 105.7C 210.015 114.6 231.515 122.9 249.815 127.2L 251.515 127.6L 249.215 128.9C 239.615 134.2 208.115 147.3 175.915 159.4C 171.215 161.1 166.615 162.9 165.715 163.2C 164.815 163.6 164.015 163.8 164.015 163.7C 164.015 163.6 165.315 161.1 167.015 158C 176.015 141.1 185.115 120.6 189.715 106.4C 190.315 104.8 190.615 103.6 190.715 103.6ZM 179.215 107.3C 179.315 107.4 178.715 108.9 178.015 110.6C 171.715 125.8 163.515 142.4 153.015 161C 150.315 165.8 148.115 169.6 148.015 169.6C 147.915 169.6 145.815 168.3 143.215 166.7C 127.915 157.3 114.415 145.8 105.515 134.6L 104.215 133L 110.815 131.2C 134.315 124.8 154.215 117.9 174.015 109.4C 176.915 108.2 179.215 107.3 179.215 107.3ZM 250.415 132.1C 250.415 132.1 250.515 132.2 250.415 132.1C 250.515 133.8 246.815 148.6 243.815 159.3C 241.315 168.3 239.115 175.4 235.215 187.8C 233.515 193.3 232.015 197.8 231.915 197.8C 231.815 197.8 231.415 197.7 231.015 197.6C 209.615 193.7 190.415 188.3 172.415 181.1C 167.415 179.1 160.215 175.8 159.715 175.5C 159.615 175.4 163.915 173.3 169.415 171C 202.215 156.7 236.215 140.4 247.815 133.4C 249.115 132.6 250.215 132.1 250.415 132.1ZM 86.1151 137.8C 86.2151 137.9 77.1153 151.1 64.3153 169.1C 59.8153 175.4 54.6152 182.7 52.7152 185.5C 50.8152 188.2 47.8151 192.6 46.1151 195.2L 43.1151 199.9L 39.9149 197.2C 36.1149 194 29.515 187.3 26.515 183.5C 20.315 175.8 16.115 167.7 14.515 160.2C 13.715 156.7 13.7149 155 14.4149 154.8C 15.5149 154.5 34.7152 150 52.7152 145.8C 62.7152 143.5 74.315 140.8 78.515 139.8C 82.615 138.6 86.0151 137.8 86.1151 137.8ZM 95.3153 141.3L 97.6151 143.9C 108.015 155.5 118.615 164.1 131.415 171.6C 133.715 172.9 135.415 174 135.315 174.1C 134.815 174.5 90.8149 190.1 70.4149 197.1C 58.9149 201.1 49.5149 204.4 49.4149 204.4C 49.3149 204.4 48.715 204 48.015 203.5L 46.7152 202.6L 48.8153 199.6C 55.6153 189.8 64.1151 179.1 82.6151 156.7L 95.3153 141.3ZM 152.815 182.4C 152.915 182.3 156.015 183.5 159.915 184.9C 169.315 188.4 176.715 190.7 186.615 193.2C 198.815 196.3 216.615 199.3 227.015 200.2C 228.615 200.3 229.415 200.5 229.215 200.7C 228.715 201 218.115 204.5 210.315 207C 197.915 210.9 160.115 222.1 129.315 230.9C 123.615 232.6 118.715 233.9 118.415 234C 117.715 234.1 115.315 233.5 115.315 233.2C 115.315 233.1 117.015 230.8 119.115 228.4C 129.515 216 139.815 202.2 148.315 189.1C 150.815 185.5 152.815 182.5 152.815 182.4ZM 140.115 182.8C 140.215 182.9 135.115 191.1 126.115 205.2C 122.315 211.2 118.015 217.9 116.515 220.3C 115.115 222.6 112.915 226.2 111.715 228.2L 109.615 231.9L 108.515 231.6C 105.915 230.9 87.7149 224.5 82.9149 222.5C 76.9149 220.1 70.7151 217.2 66.1151 214.8C 60.3151 211.7 53.1152 207.1 53.7152 206.9C 53.8152 206.8 63.7151 204.2 75.6151 200.9C 107.215 192.3 124.715 187.4 136.115 183.8C 138.315 183.2 140.115 182.7 140.115 182.8ZM 229.815 203.8C 230.215 204.5 218.515 236.9 214.215 247.2C 213.315 249.5 212.915 250.1 212.415 250C 211.215 249.9 194.215 247.6 183.915 246C 166.015 243.3 135.915 238 128.315 236.3L 126.615 235.9L 137.315 233.5C 160.415 228.3 171.415 225.5 182.715 222C 196.915 217.7 210.915 212.3 225.115 205.6C 227.415 204.7 229.315 203.9 229.815 203.8Z"/>
<path id="path1_fill" d="M 104 0.00281534C 102.4 -0.197185 76.8 9.00301 60.3 15.703C 38 24.803 20.7998 33.4032 10.0998 40.9032C 6.0998 43.7032 1.2001 48.7034 0.400098 50.6034C 0.100098 51.3034 0.000195313 52.2028 0.000195313 53.0028L 9.6999 62.1034L 32.6999 69.4032L 87.4001 79.203L 149.9 89.9032L 150.5 84.5028C 150.3 84.5028 150.1 84.4032 149.9 84.4032L 141.7 83.1034L 140 80.1034C 131.5 65.1034 122.1 46.5028 116.7 34.0028C 112.5 24.3028 108.4 13.0028 106.2 5.00282C 104.9 0.402815 104.8 0.102815 104 0.00281534ZM 102.8 3.70301C 102.9 3.80301 103.2 5.80301 103.5 8.20301C 104.7 18.303 107 28.0028 110.5 38.5028C 113.2 46.4028 113.2 46.0034 110.1 45.1034C 102.8 43.1034 69.8002 37.4034 46.0002 34.1034C 42.2002 33.6034 38.9001 33.1028 38.9001 33.0028C 38.6001 32.7028 56.1 23.6028 63.8 20.0028C 73.7 15.3028 100.8 4.00301 102.8 3.70301ZM 33.4001 35.9032L 36.1999 36.8036C 51.4999 42.0036 89.9002 49.3034 111 51.1034C 113.4 51.3034 115.4 51.5028 115.5 51.5028C 115.6 51.6028 113.6 52.7032 111 53.9032C 100.8 59.0032 89.5 65.3034 81.8 70.1034C 79.5 71.5034 77.3998 72.703 77.0998 72.703C 76.7998 72.703 75.2999 72.403 73.6999 72.203L 70.8 71.8036L 63.5998 64.703C 50.8998 52.403 40.9999 42.9036 37.1999 39.3036L 33.4001 35.9032ZM 30.5002 38.203L 40.6999 50.9032C 46.1999 57.9032 51.8998 64.703 53.0998 66.203C 54.2998 67.703 55.3 68.9028 55.3 69.0028C 55 69.2028 40.6002 66.403 33.0002 64.703C 25.1002 62.903 21.8998 62.0028 17.0998 60.5028L 13.0998 59.203L 13.0998 58.203C 13.1998 53.403 19.2999 46.2036 29.6999 38.8036L 30.5002 38.203ZM 116.8 55.5028C 117.1 55.5028 117.4 56.1034 118.3 58.1034C 120.7 63.5034 128.4 78.1032 130.3 80.9032C 130.9 81.8032 131.9 81.9036 121.7 80.3036C 97.2999 76.3036 89.4001 75.0032 89.4001 74.9032C 89.4001 74.8032 90.0998 74.3036 91.0998 73.8036C 98.6998 69.6036 106.3 64.3034 113.1 58.6034C 114.8 57.2034 116.3 55.903 116.6 55.703C 116.6 55.503 116.7 55.4028 116.8 55.5028Z"/>
<path id="path2_fill" d="M 38.1001 0.000195313C 38.1001 0.000195313 36.5 2.5 38 6.3C 38.9 8.6 41.6998 11.4 44.7998 14.3C 44.7998 14.3 76.9002 45.6002 80.7002 50.0002C 98.4002 70.5002 106.1 90.5996 106.8 118.4C 107.2 136.3 103.8 152 95.3999 170.2C 80.3999 202.9 48.8 239 -9.09495e-13 279L 7.1001 276.6C 11.7001 273.1 18.0002 269.5 32.7002 261.4C 66.6002 242.8 104.8 225.7 151.6 208.2C 219 182.8 329.9 153.2 393 143.5L 399.6 142.5L 398.6 140.9C 392.8 132 388.9 126.4 384.1 120.5C 370.3 103.4 353.5 89.4996 333 77.8996C 304.8 62.0996 268.2 49.8004 222 40.7004C 213.3 39.0004 194.1 35.7 178.6 33.3C 145.6 28.2 124.3 24.6998 100.8 20.5998C 92.3998 19.1998 79.7999 17.0004 71.3999 15.2004C 67.0999 14.3004 58.7998 12.2998 52.2998 10.0998C 47.1998 8.19981 39.7001 6.1002 38.1001 0.000195313ZM 56.7002 18.0002C 56.8002 17.9002 57.8999 18.3996 59.3999 18.8996C 62.0999 19.7996 65.6998 20.8998 69.7998 22.0998C 72.9998 22.9998 76.0998 23.7998 79.2998 24.5998C 83.5998 25.6998 87.1998 26.7004 87.2998 26.7004C 87.7998 27.2004 95.1 50.4996 97.5 59.3996C 98.4 62.7996 99.2001 65.7004 99.1001 65.7004C 99.0001 65.8004 98.1998 64.4996 97.2998 62.8996C 88.8998 48.0996 75.5001 32.9996 60.1001 20.8996C 58.2001 19.3996 56.7002 18.1002 56.7002 18.0002ZM 92.1001 27.8C 92.5001 27.8 94 27.9996 96 28.3996C 108.2 31.0996 130.2 35.3004 144.3 37.7004C 146.7 38.1004 148.6 38.4998 148.6 38.5998C 148.6 38.6998 147.7 39.2 146.7 39.8C 144.3 41 134.7 46.6996 131.6 48.8996C 123.6 54.1996 116.4 60.0004 111.2 65.2004C 109.1 67.3004 107.3 69.0002 107.3 69.0002C 107.3 69.0002 106.9 67.8 106.5 66.3C 103.9 56.3 98.5001 41.4002 93.6001 31.0002C 92.7001 29.4002 92.1001 27.9 92.1001 27.8C 92.1001 27.9 92.1001 27.8 92.1001 27.8ZM 154.5 39.7004C 154.9 39.8004 155.7 42.3004 157.1 47.7004C 159.8 58.1004 161 69.8004 160.6 80.7004C 160.5 83.7004 160.3 86.4996 160.2 86.8996L 160 87.5998L 156.3 86.3996C 148.6 83.9996 136.1 80.3 125.3 77.3C 119.2 75.6 114.2 74.1002 114.2 74.0002C 114.2 73.6002 123.1 64.6004 127 61.2004C 134.1 54.8004 153.9 39.5004 154.5 39.7004ZM 159.5 40.3996C 159.7 40.1996 189.3 45.2996 202.8 47.8996C 212.8 49.7996 227.4 52.9004 228.2 53.2004C 228.6 53.3004 227.1 54.1996 222.3 56.3996C 203.3 64.9996 189.2 72.7002 175.1 82.0002C 171.4 84.4002 168.3 86.5002 168.3 86.5002C 168.2 86.5002 168.2 84.3996 168.2 81.8996C 168.2 68.1996 165.5 54.4004 160.4 42.7004C 159.8 41.6004 159.4 40.4996 159.5 40.3996ZM 236.1 55.5998C 236.3 55.7998 235.4 61.5998 234.5 65.0998C 231.9 75.7998 224.9 91.8004 216.3 106.7C 214.8 109.4 213.4 111.5 213.3 111.6C 213.2 111.7 211.2 110.6 209 109.3C 200.6 104.4 191.1 99.8002 180.8 95.5002C 177.9 94.3002 175.4 93.2998 175.3 93.0998C 174.8 92.6998 198 77.3002 210.2 70.0002C 219.9 64.1002 235.8 55.2998 236.1 55.5998ZM 241.5 56.3996C 242.1 56.3996 255.3 60.0002 262.1 62.0002C 279 67.0002 298.5 74.1996 311.2 79.8996L 316.5 82.3L 312.8 83.2004C 281.8 90.3004 255.3 98.4996 229.7 108.9C 227.6 109.8 225.7 110.5 225.6 110.5C 225.5 110.5 226.2 108.8 227.1 106.8C 234.8 90.4 239.8 73.4 241 58.8C 241.1 57.5 241.3 56.3996 241.5 56.3996ZM 111 86.3996C 111.2 86.1996 121.2 88.5998 126.6 90.0998C 134.8 92.3998 152.2 98.2004 152.2 98.7004C 152.2 98.8004 150.3 100.4 148 102.4C 138.6 110.3 129.5 118.5 118.6 129.1C 115.4 132.2 112.6 134.7 112.5 134.7C 112.4 134.7 112.3 134.3 112.4 133.7C 114.1 121.6 113.7 106 111.4 90.3C 111.2 88.2 110.9 86.4996 111 86.3996ZM 321.4 86.5998C 321.5 86.6998 316.8 94.2002 313.8 98.5002C 309.5 104.7 303.1 112.9 288.8 130.9C 281.2 140.4 272.7 151.1 269.9 154.7C 267 158.3 264.6 161.3 264.6 161.3C 264.5 161.3 263.6 160 262.6 158.4C 254.5 146.3 244.9 135.7 233.4 126.2C 231.2 124.4 228.9 122.5 228.1 121.9C 227.3 121.3 226.7 120.7 226.7 120.7C 226.7 120.5 238.9 115.2 248.2 111.5C 264.5 104.9 286.7 96.9 303.3 91.8C 312 89.1 321.3 86.4998 321.4 86.5998ZM 327 88.0002C 327.3 87.9002 329 88.8002 331.1 90.0002C 348.6 100 365.7 112.9 379.3 126.2C 383.1 129.9 392.6 139.7 392.4 139.8C 392.4 139.8 389.1 140.1 385.2 140.4C 354.9 142.7 316.1 149.1 278.7 158.1C 276.2 158.7 273.9 159.2 273.8 159.2C 273.7 159.2 276.5 156.4 280 153C 301.9 131.9 311.9 118.6 323.7 94.8C 325.4 91.3 326.8 88.3002 327 88.0002C 326.9 88.0002 326.9 88.0002 327 88.0002ZM 166.5 104.5C 167.5 104.7 176.9 109.1 183.9 112.6C 190.4 115.8 200.1 121 200.6 121.5C 200.7 121.6 197.2 123.4 193 125.5C 179.5 132.3 167.9 138.7 155.8 146C 152.3 148.1 149.5 149.8 149.4 149.8C 149.1 149.8 149.2 149.5 151.1 146C 157.6 134.2 162.8 120.1 165.7 106.3C 166 105.2 166.3 104.5 166.5 104.5ZM 157.2 106.2C 157.4 106.4 155 115.3 153.5 120.1C 150.5 129.2 145.6 140.7 140.7 149.3C 139.5 151.3 137.8 154.3 136.9 155.9L 135.1 158.8L 131.1 154.9C 126.4 150.4 122.6 147.6 117.7 145C 115.8 144 114.2 143.1 114.2 143C 114.2 142.4 126.5 131.3 136 123.2C 142.7 117.4 157 106 157.2 106.2ZM 214.4 129.8L 217.9 132.1C 226 137.4 235.5 144.3 242.8 150.5C 246.9 153.9 254.8 161 256.4 162.7L 257.3 163.6L 251.5 165.3C 218.5 174.4 193 182.6 163.3 193.5C 160 194.7 157.2 195.7 157 195.7C 156.6 195.7 156.2 196.1 163.6 189.2C 182.6 171.7 199.5 152.4 212 133.6L 214.4 129.8ZM 199.4 133.5C 199.5 133.6 189.7 147.5 183.8 155.4C 176.7 164.8 164.2 180.5 155.6 190.7C 152 194.9 148.9 198.5 148.8 198.6C 148.6 198.7 148.5 197.6 148.5 195.9C 148.5 187.2 146.3 177.9 142.4 170C 140.7 166.7 140.5 165.9 140.8 165.5C 142.2 164.3 163.1 152.3 176.4 145.2C 185.2 140.4 199.2 133.4 199.4 133.5ZM 108.3 155.8C 108.5 155.8 110.2 156.7 112 157.7C 116.6 160.2 120.7 163 124.4 166.1C 124.5 166.2 122.7 167.8 120.2 169.6C 113.4 174.5 103 182.4 96.8999 187.2C 90.5999 192.2 90.3001 192.4 91.1001 191.3C 95.9001 184 98.1998 179.9 100.8 174.7C 103 170 105.3 164.5 106.8 159.6C 107.5 157.4 108.2 155.8 108.3 155.8ZM 132.6 174.8C 133 174.7 133.4 175.4 135.3 178.3C 139.4 184.4 142.6 192.6 143.4 199.3L 143.5 200.7L 133.6 204.5C 116 211.3 99.7002 218.1 88.7002 223.2C 85.6002 224.6 80.2002 227.2 76.7002 229C 73.2002 230.8 70.2998 232.2 70.2998 232.1C 70.2998 232 72.4998 230.4 75.2998 228.4C 96.7998 212.8 115.5 195.6 129.5 178.5C 131 176.7 132.4 175 132.5 175L 132.6 175L 132.6 174.8ZM 121.5 177.6C 121.8 177.9 113.6 187.2 108 192.9C 94.1 207.1 80.2998 218.2 63.2998 229C 61.0998 230.4 59.2 231.6 59 231.7C 58.5 232 59.1001 231.3 66.6001 223.1C 71.4001 218 75.0001 213.7 79.1001 208.3C 81.8001 204.8 82.2998 204.3 86.2998 201.5C 96.6998 193.9 121.2 177.3 121.5 177.6Z"/>
<path id="path3_fill" d="M 88.2391 36.8C 87.4391 36.8 86.739 36.9001 85.939 36.9001C 70.639 37.7001 60.3389 44.3998 54.3389 57.5998C 49.1389 69.4998 49.739 85.0001 54.439 96.9001C 59.839 108.6 68.539 114.7 83.139 117.1C 86.239 117.6 88.3391 119.3 94.2391 126.3L 101.539 134.9L 114.839 134.9L 105.939 126C 101.039 121.1 97.0391 116.8 97.0391 116.5C 97.0391 116.2 98.939 115.3 101.139 114.6C 108.639 112.3 114.839 106.6 119.139 97.6999C 122.639 90.5999 123.139 88.4002 123.639 79.5002C 125.239 53.0002 111.339 36.6 88.2391 36.8ZM 99.939 105.6C 93.439 108.7 84.039 109.4 77.939 107.1C 71.539 104.8 65.439 98.1999 62.639 90.6999C 59.539 82.4999 60.0391 67.4999 63.5391 60.6999C 69.2391 49.8999 76.639 44.9001 87.639 44.9001C 103.839 44.9001 113.039 54.8002 114.239 73.5002C 115.139 89.1002 109.939 100.8 99.939 105.6ZM 330.139 59.1999C 324.539 59.1999 320.239 61.5001 317.339 65.9001L 315.039 69.4001L 315.039 60.1999L 305.339 60.1999L 305.339 115.2L 315.039 115.2L 315.039 97.5998C 315.039 81.4998 315.239 79.5999 317.439 75.1999C 320.539 69.1999 325.839 66.1998 331.039 67.5998L 334.539 68.5998L 334.539 59.0998L 330.139 59.1999ZM 273.339 58.6999C 271.439 58.6999 269.439 59.0001 267.439 59.4001C 254.539 62.8001 247.239 75.2001 247.639 87.9001C 247.639 98.6001 249.739 103.9 254.839 109.5C 265.439 118.2 274.939 118.8 287.839 114.2C 290.039 113.3 292.439 112.2 292.439 112.2L 292.439 103.5L 287.839 105.9C 277.439 110.4 269.539 110.4 263.239 105.1C 259.239 101 257.439 96.1002 256.639 90.5002L 295.639 90.5002L 295.639 83.0998C 295.639 67.9998 286.539 58.4999 273.339 58.6999ZM 257.539 82.9001C 257.539 82.9001 258.939 73.5 264.339 69.8C 266.939 68 269.839 67.0998 272.739 67.0998C 275.639 67.0998 278.539 68.0001 280.939 69.9001C 285.839 73.7001 286.639 82.9001 286.639 82.9001L 257.539 82.9001ZM 24.3389 72.9001C 13.8389 66.5001 9.23908 61.9998 9.73908 56.5998C 11.3391 41.6998 29.8391 43.7001 40.0391 49.4001L 40.139 39.3C 40.139 39.3 34.4389 36.8999 26.3389 36.6999C 13.9389 36.4999 5.83898 40.6001 2.13898 48.9001C -3.36102 61.1001 1.53908 70.3999 19.2391 80.6999C 29.1391 86.4999 33.5391 91.5002 33.5391 97.0002C 33.5391 108.3 19.9389 112.3 5.83894 105.2C 2.93894 103.8 0.538936 102.6 0.338936 102.6C -0.161064 105.8 0.138985 113.5 0.138985 113.5C 0.138985 113.5 4.43903 115.3 10.939 116.6C 27.039 119.8 41.6391 112.3 43.0391 100C 44.2391 88.4002 40.0389 82.3001 24.3389 72.9001ZM 415.739 58.5998C 413.839 58.5998 411.839 58.9 409.739 59.3C 396.839 62.7 389.539 75.1 390.039 87.8C 390.039 98.5 392.139 103.7 397.239 109.3C 407.839 118 417.339 118.7 430.239 114C 432.439 113.1 434.839 112 434.839 112L 434.839 103.3L 430.239 105.7C 419.839 110.2 411.939 110.2 405.639 104.9C 401.639 100.8 399.839 96 399.039 90.3L 437.939 90.3L 437.939 82.9001C 438.039 67.9001 428.939 58.3998 415.739 58.5998ZM 399.939 82.6999C 399.939 82.6999 401.439 73.3002 406.739 69.5002C 409.339 67.7002 412.239 66.8 415.139 66.8C 418.039 66.8 420.939 67.6998 423.339 69.5998C 428.239 73.3998 429.039 82.6999 429.039 82.6999L 399.939 82.6999ZM 222.639 73.0998C 212.139 66.7998 207.539 62.2 208.039 56.8C 209.639 41.8 228.139 43.8998 238.339 49.5998L 238.439 39.5002C 238.439 39.5002 232.739 37.1001 224.639 36.9001C 212.239 36.7001 204.139 40.7998 200.439 49.0998C 194.939 61.2998 199.839 70.6001 217.539 80.9001C 227.439 86.7001 231.839 91.5998 231.839 97.0998C 231.839 108.4 218.239 112.4 204.139 105.3C 201.239 103.9 198.839 102.7 198.639 102.7C 198.139 105.9 198.439 113.6 198.439 113.6C 198.439 113.6 202.739 115.4 209.139 116.7C 225.239 119.9 239.839 112.4 241.239 100.1C 242.539 88.4998 238.339 82.4998 222.639 73.0998ZM 472.539 59.0998C 466.939 59.0998 462.639 61.4 459.739 65.8L 457.439 69.3L 457.439 60.0998L 447.739 60.0998L 447.739 115.1L 457.439 115.1L 457.439 97.5002C 457.439 81.4002 457.639 79.4998 459.939 75.0998C 463.039 69.0998 468.339 66.1002 473.539 67.5002L 477.039 68.5002L 477.039 58.9001L 472.539 58.9001L 472.539 59.0998ZM 145.739 72.6999L 145.739 37.5998L 135.939 37.5998L 135.939 115.2L 176.939 115.2L 176.939 106L 145.639 106L 145.639 72.6999L 145.739 72.6999ZM 371.239 83.6999L 363.239 104.6L 355.539 83.5998L 347.639 60.3L 337.639 60.3C 344.139 78.6 351.139 97.3001 358.239 115.4C 361.339 115.5 364.439 115.4 367.439 115.4L 378.339 88.0998L 389.439 60.3L 379.939 60.3C 379.839 60.3 375.639 71.2999 371.239 83.6999ZM 5.93903 10.9001C 5.93903 8.5001 5.83894 6.5998 5.83894 5.5998L 5.93903 5.5998C 6.23903 6.89981 6.53908 7.8001 6.73908 8.4001L 16.139 29.3L 17.7391 29.3L 27.139 8.1999C 27.439 7.5999 27.639 6.7998 27.939 5.5998L 28.0391 5.5998C 27.8391 7.6998 27.7391 9.5002 27.7391 11.0002L 27.7391 29.5002L 30.939 29.5002L 30.939 2.0998L 26.939 2.0998L 18.3389 21.1999C 18.0389 21.9999 17.5391 23.0998 17.0391 24.5998L 16.939 24.5998C 16.739 23.8998 16.339 22.7 15.639 21.3L 7.23908 2.0002L 2.93903 2.0002L 2.93903 29.4001L 6.03913 29.4001L 5.93903 10.9001ZM 37.8389 11.0002L 40.639 11.0002L 40.639 28.0998L 37.8389 28.0998L 37.8389 11.0002ZM 39.2391 4.6999C 39.8391 4.6999 40.339 4.4998 40.639 4.0998C 41.039 3.6998 41.2391 3.1999 41.2391 2.6999C 41.2391 2.0999 41.039 1.6 40.639 1.3C 40.239 0.9 39.739 0.699902 39.139 0.699902C 38.539 0.699902 38.0391 0.9 37.7391 1.3C 37.3391 1.7 37.139 2.1999 37.139 2.6999C 37.139 3.2999 37.3391 3.7998 37.7391 4.0998C 38.2391 4.4998 38.6391 4.6999 39.2391 4.6999ZM 60.3389 28.5002L 60.3389 25.5002C 58.8389 26.6002 57.2391 27.1999 55.5391 27.1999C 53.5391 27.1999 51.8391 26.4999 50.7391 25.1999C 49.5391 23.8999 48.939 22.1 48.939 19.8C 48.939 17.4 49.5389 15.4998 50.8389 14.0998C 52.1389 12.6998 53.7391 12.0002 55.7391 12.0002C 57.3391 12.0002 58.939 12.5002 60.439 13.5002L 60.439 10.3C 59.139 9.6 57.639 9.3 55.939 9.3C 52.839 9.3 50.3391 10.3 48.5391 12.3C 46.7391 14.2 45.7391 16.8998 45.7391 20.0998C 45.7391 22.8998 46.5391 25.2998 48.2391 27.0998C 50.0391 28.9998 52.2391 29.9001 55.0391 29.9001C 57.1391 29.8001 58.8389 29.3002 60.3389 28.5002ZM 68.2391 19.3C 68.2391 17 68.739 15.2002 69.639 14.0002C 70.539 12.9002 71.5389 12.3 72.8389 12.3C 73.9389 12.3 74.6391 12.5001 75.2391 12.9001L 75.2391 9.5998C 74.8391 9.39981 74.1389 9.3 73.3389 9.3C 72.2389 9.3 71.2389 9.7001 70.3389 10.4001C 69.4389 11.1001 68.6391 12.2999 68.2391 13.6999L 68.139 13.6999L 68.139 9.6999L 65.0391 9.6999L 65.0391 29.3L 68.139 29.3L 68.2391 19.3ZM 86.3389 29.8C 89.3389 29.8 91.639 28.8002 93.439 27.0002C 95.239 25.1002 96.0391 22.6002 96.0391 19.5002C 96.0391 16.3002 95.239 13.8002 93.639 12.0002C 92.039 10.2002 89.7389 9.3 86.8389 9.3C 83.8389 9.3 81.5391 10.2001 79.7391 11.9001C 77.8391 13.8001 76.8389 16.4 76.8389 19.8C 76.8389 22.8 77.6389 25.2002 79.3389 27.0002C 81.0389 28.8002 83.3389 29.8 86.3389 29.8ZM 81.8389 13.8C 83.0389 12.5 84.6391 11.9001 86.5391 11.9001C 88.5391 11.9001 90.0391 12.5 91.2391 13.8C 92.3391 15.1 92.939 17.0002 92.939 19.5002C 92.939 21.9002 92.4389 23.8002 91.3389 25.0002C 90.2389 26.3002 88.739 27.0002 86.639 27.0002C 84.639 27.0002 83.0389 26.3002 81.8389 25.0002C 80.6389 23.7002 80.0391 21.9002 80.0391 19.5002C 79.9391 17.2002 80.5389 15.2 81.8389 13.8ZM 109.739 28.0998C 110.939 26.9998 111.539 25.6998 111.539 24.0998C 111.539 22.6998 111.039 21.5002 110.139 20.5002C 109.339 19.7002 108.239 19.1001 106.439 18.4001C 104.939 17.8001 104.039 17.2 103.439 16.8C 102.939 16.3 102.639 15.7 102.639 14.8C 102.639 14 102.939 13.4001 103.539 12.9001C 104.139 12.4001 104.939 12.1999 106.039 12.1999C 107.739 12.1999 109.139 12.5998 110.539 13.5998L 110.539 10.5002C 109.239 9.9002 107.939 9.5998 106.339 9.5998C 104.339 9.5998 102.639 10.1999 101.339 11.1999C 100.039 12.2999 99.439 13.7 99.439 15.3C 99.439 16.7 99.8391 17.9 100.739 18.8C 101.439 19.5 102.639 20.3002 104.239 21.0002C 105.839 21.7002 106.839 22.3 107.439 22.8C 108.039 23.3 108.239 23.8999 108.239 24.6999C 108.239 26.4999 106.939 27.5002 104.539 27.5002C 102.639 27.5002 100.939 26.8998 99.439 25.5998L 99.439 29.0002C 100.839 29.8002 102.439 30.1999 104.239 30.1999C 106.739 29.7999 108.539 29.1998 109.739 28.0998ZM 124.739 9.1999C 121.739 9.1999 119.439 10.1 117.639 11.8C 115.739 13.7 114.739 16.2999 114.739 19.6999C 114.739 22.6999 115.539 25.1001 117.239 26.9001C 119.039 28.8001 121.339 29.6999 124.239 29.6999C 127.239 29.6999 129.539 28.7001 131.339 26.9001C 133.139 25.0001 133.939 22.5001 133.939 19.4001C 133.939 16.2001 133.139 13.7001 131.539 11.9001C 129.939 10.1001 127.639 9.1999 124.739 9.1999ZM 130.839 19.5002C 130.839 21.9002 130.339 23.8002 129.239 25.0002C 128.139 26.3002 126.639 27.0002 124.539 27.0002C 122.539 27.0002 120.939 26.3002 119.739 25.0002C 118.539 23.7002 117.939 21.9002 117.939 19.5002C 117.939 17.0002 118.539 14.9999 119.839 13.6999C 121.039 12.3999 122.639 11.8 124.539 11.8C 126.439 11.8 128.039 12.3999 129.139 13.6999C 130.239 15.0999 130.839 17.0002 130.839 19.5002ZM 139.339 29.3L 142.439 29.3L 142.439 12.3L 147.039 12.3L 147.039 9.6999L 142.439 9.6999L 142.439 6.6999C 142.439 3.8999 143.539 2.5998 145.739 2.5998C 146.439 2.5998 147.239 2.7998 147.839 3.0998L 147.839 0.3C 147.239 0 146.539 0.000195313 145.539 0.000195313C 143.839 0.000195313 142.439 0.499805 141.339 1.5998C 140.039 2.8998 139.339 4.4999 139.339 6.6999L 139.339 9.9001L 136.039 9.9001L 136.039 12.5002L 139.339 12.5002L 139.339 29.3ZM 152.139 24.0002C 152.139 27.8002 153.839 29.8 157.339 29.8C 158.639 29.8 159.539 29.5999 160.339 29.1999L 160.339 26.5002C 159.739 26.9002 159.039 27.0998 158.339 27.0998C 157.239 27.0998 156.539 26.8 156.039 26.3C 155.639 25.7 155.339 24.8002 155.339 23.5002L 155.339 12.4001L 160.339 12.4001L 160.339 9.8L 155.339 9.8L 155.339 4.0002C 154.239 4.4002 153.239 4.7002 152.239 5.0002L 152.239 9.8L 148.839 9.8L 148.839 12.4001L 152.239 12.4001L 152.139 24.0002Z"/>
</defs>
</svg>
