<svg width="489" height="551" viewBox="0 0 489 551" version="1.1" xmlns="http://www.w3.org/2000/svg" xmlns:xlink="http://www.w3.org/1999/xlink">
<g id="Canvas" transform="translate(-952 2104)">
<g id="Vector">
<use xlink:href="#path0_fill" transform="translate(952.6 -2103.8)" fill="#FFFFFF"/>
</g>
</g>
<defs>
<path id="path0_fill" d="M 457 197L 443.8 197L 443.8 133.2C 443.8 132.8 443.7 132.4 443.7 132C 443.7 129.5 442.9 127 441.1 125L 334.9 3.70001C 334.9 3.70001 334.8 3.69998 334.8 3.59998C 334.2 2.89998 333.4 2.29999 332.6 1.79999C 332.4 1.59999 332.1 1.50002 331.9 1.40002C 331.2 1.00002 330.5 0.7 329.8 0.5C 329.6 0.4 329.4 0.399988 329.2 0.299988C 328.4 0.0999878 327.6 -1.13687e-13 326.7 -1.13687e-13L 65.7 -1.13687e-13C 53.8 -1.13687e-13 44.1001 9.69998 44.1001 21.6L 44.1001 197L 30.8999 197C 13.8999 197 -1.36424e-12 210.8 -1.36424e-12 227.9L -1.36424e-12 388.4C -1.36424e-12 405.4 13.7999 419.3 30.8999 419.3L 44.1001 419.3L 44.1001 529.2C 44.1001 541.1 53.8 550.8 65.7 550.8L 422.1 550.8C 434 550.8 443.7 541.1 443.7 529.2L 443.7 419.2L 456.9 419.2C 473.9 419.2 487.8 405.4 487.8 388.3L 487.8 227.8C 487.9 210.8 474.1 197 457 197ZM 65.8 21.5L 316 21.5L 316 132C 316 138 320.8 142.8 326.8 142.8L 422.2 142.8L 422.2 197L 65.8 197L 65.8 21.5ZM 338.1 374.5L 306 374.5L 303.8 319C 303.2 301.6 302.5 280.5 302.5 259.4L 301.9 259.4C 297.4 277.9 291.4 298.6 285.8 315.6L 268.2 372.2L 242.6 372.2L 227.1 316C 222.4 299 217.4 278.3 214 259.4L 213.6 259.4C 212.7 279 212.1 301.4 211 319.4L 208.4 374.5L 178.1 374.5L 187.4 229.5L 231.1 229.5L 245.3 277.9C 249.8 294.7 254.3 312.7 257.6 329.7L 258.3 329.7C 262.4 312.9 267.3 293.8 272.1 277.6L 287.6 229.4L 330.4 229.4L 338.1 374.5ZM 38.6001 374.5L 80.6001 301.1L 40.2 229.5L 77.8999 229.5L 90.6001 256C 94.9001 264.8 98.1001 271.9 101.6 280.1L 102 280.1C 105.4 270.9 108.2 264.4 111.9 256L 124.2 229.5L 161.6 229.5L 120.7 300.3L 163.7 374.5L 125.8 374.5L 112.7 348.2C 107.3 338.1 103.9 330.6 99.8 322.2L 99.3999 322.2C 96.3999 330.6 92.7 338.1 88.2 348.2L 76.2 374.5L 38.6001 374.5ZM 422.2 523.3L 65.8 523.3L 65.8 419.2L 422.2 419.2L 422.2 523.3ZM 453.9 374.5L 363.3 374.5L 363.3 229.5L 396.2 229.5L 396.2 347L 453.9 347L 453.9 374.5Z"/>
</defs>
</svg>
