<svg width="400" height="565" viewBox="0 0 400 565" version="1.1" xmlns="http://www.w3.org/2000/svg" xmlns:xlink="http://www.w3.org/1999/xlink">
<g id="Canvas" transform="translate(-531 3229)">
<g id="Group">
<g id="Group">
<g id="Vector">
<use xlink:href="#path0_fill" transform="translate(611 -3229)" fill="#FFFFFF"/>
</g>
<g id="Vector">
<use xlink:href="#path1_fill" transform="translate(699 -3229)" fill="#FFFFFF"/>
</g>
<g id="Vector">
<use xlink:href="#path2_fill" transform="translate(789 -3229)" fill="#FFFFFF"/>
</g>
</g>
<g id="Vector">
<use xlink:href="#path3_fill" transform="translate(531 -3118.3)" fill="#FFFFFF"/>
</g>
<g id="Vector">
<use xlink:href="#path4_fill" transform="translate(605.4 -3037.8)" fill="#FFFFFF"/>
</g>
</g>
</g>
<defs>
<path id="path0_fill" d="M 61.9999 26L 61.9999 -1.2207e-05L -9.76563e-05 -1.2207e-05L -9.76563e-05 76L 61.9999 76L 61.9999 50L 25.9999 50L 25.9999 26L 61.9999 26Z"/>
<path id="path1_fill" d="M 61.9999 -1.2207e-05L -9.76563e-05 -1.2207e-05L -9.76563e-05 26.7L 25.9 50L -9.76563e-05 50L -9.76563e-05 76L 61.9999 76L 61.9999 50.7L 38.4999 26L 61.9999 26L 61.9999 -1.2207e-05Z"/>
<path id="path2_fill" d="M 61.9999 -1.2207e-05L -9.76563e-05 -1.2207e-05L -9.76563e-05 26.7L 24.9 50L -9.76563e-05 50L -9.76563e-05 76L 61.9999 76L 61.9999 50.7L 37.4999 26L 61.9999 26L 61.9999 -1.2207e-05Z"/>
<path id="path3_fill" d="M 360.6 36L 329.9 380.2L 199.7 416.3L 69.9999 380.3L 39.2999 36L 360.6 36ZM 400 0L -9.76563e-05 0L 36.4 408.3L 199.8 453.6L 363.6 408.2L 400 0Z"/>
<path id="path4_fill" d="M 250.7 0L 125.9 0L 125.4 0L 4.88281e-05 0L 4.50005 50L 125.9 50L 134 50L 125.9 53.5L 8.89995 103.5L 13.3001 153.5L 125.9 153.5L 187.1 153.5L 181.5 218.9L 125.9 234.4L 125.5 234.4L 69.7 219.4L 66 179.5L 15.8001 179.5L 22.8001 258.1L 125.5 286.6L 125.9 286.5L 228.3 258L 241.8 103.5L 125.9 103.5L 246.4 50L 250.7 0Z"/>
</defs>
</svg>
