<svg width="341" height="342" viewBox="0 0 341 342" version="1.1" xmlns="http://www.w3.org/2000/svg" xmlns:xlink="http://www.w3.org/1999/xlink">
<title>Group</title>
<desc>Created using Figma</desc>
<g id="Canvas" transform="translate(3301 -976)">
<g id="Group">
<g id="Vector">
<use xlink:href="#path0_fill" transform="translate(-3250.6 1036.4)" fill="#FFFFFF"/>
</g>
<g id="Vector">
<use xlink:href="#path1_fill" transform="translate(-3301 976.9)" fill="#FFFFFF"/>
</g>
</g>
</g>
<defs>
<path id="path0_fill" d="M 29.7 13.1L 29.7 12.9001C 29.7 4.5001 23.9 -4.88281e-05 14.5 -4.88281e-05L -1.2207e-05 -4.88281e-05L -1.2207e-05 26.1L 14.9 26.1C 24.3 26 29.7 20.4 29.7 13.1Z"/>
<path id="path1_fill" d="M 2.44141e-05 -4.88281e-05L 2.44141e-05 340.5L 340.5 340.5L 340.5 -4.88281e-05L 2.44141e-05 -4.88281e-05ZM 31.6 42.5L 66.5 42.5C 86.8 42.5 99.2 54.5 99.2 72L 99.2 72.1999C 99.2 91.8999 83.8 102.2 64.7 102.2L 50.4 102.2L 50.4 127.8L 31.6 127.8L 31.6 42.5ZM 159.2 298L 31.5 298L 31.5 276.7L 159.2 276.7L 159.2 298ZM 171.6 102.9C 171.6 119.9 158.6 129.4 140.2 129.4C 126.8 129.4 113.9 124.6 103.9 115.7L 115 102.4C 122 108.8 131.1 112.5 140.5 112.8C 148.2 112.8 152.9 109.8 152.9 104.8L 152.9 104.6C 152.9 99.8 150 97.3999 135.6 93.6999C 118.3 89.2999 107.2 84.5001 107.2 67.6001L 107.2 67.3C 107.2 51.8 119.7 41.5 137.2 41.5C 148.7 41.2999 160 45.2001 169 52.4001L 159.2 66.6001C 152.8 61.6001 145 58.5999 136.9 58.1999C 129.7 58.1999 125.9 61.5001 125.9 65.6001L 125.9 65.9001C 125.9 71.5001 129.6 73.3999 144.4 77.1999C 161.8 81.6999 171.5 88.0001 171.5 102.9L 171.6 102.9Z"/>
</defs>
</svg>
