<svg width="405" height="568" viewBox="0 0 405 568" version="1.1" xmlns="http://www.w3.org/2000/svg" xmlns:xlink="http://www.w3.org/1999/xlink">
<g id="Canvas" transform="translate(-994 3229)">
<g id="Group">
<g id="Vector">
<use xlink:href="#path0_fill" transform="translate(994.9 -3117.7)" fill="#FFFFFF"/>
</g>
<g id="Vector">
<use xlink:href="#path1_fill" transform="translate(1032.4 -3229)" fill="#FFFFFF"/>
</g>
<g id="Vector">
<use xlink:href="#path2_fill" transform="translate(1069.7 -3033.9)" fill="#FFFFFF"/>
</g>
</g>
</g>
<defs>
<path id="path0_fill" d="M 365 35.1L 332.9 382.9L 201.8 420.1L 70.5 382.9L 38.4 35.1L 201.7 35.1L 365 35.1ZM 403.4 6.10352e-06L 201.7 6.10352e-06L 4.88281e-05 6.10352e-06L 37.8001 410.1L 201.7 456.6L 365.5 410.1L 403.4 6.10352e-06Z"/>
<path id="path1_fill" d="M 49.0999 25.4L 25.8001 25.4L 25.8001 -1.2207e-05L 4.88281e-05 -1.2207e-05L 4.88281e-05 76.6L 25.8001 76.6L 25.8001 51.2L 49.0999 51.2L 49.0999 76.6L 74.8001 76.6L 74.8001 -1.2207e-05L 49.0999 -1.2207e-05L 49.0999 25.4ZM 228.8 -1.2207e-05L 226.5 -1.2207e-05L 210.5 26.2L 194.6 -1.2207e-05L 192.8 -1.2207e-05L 169.1 -1.2207e-05L 167.9 -1.2207e-05L 167.9 76.6L 192.8 76.6L 192.8 38.4L 210.5 66L 210.6 66.1L 210.7 66L 228.9 37.7L 228.9 76.7L 253.8 76.7L 253.8 0.100024L 252.1 0.100024L 228.8 0.100024L 228.8 -1.2207e-05ZM 86.0999 25.8L 108.5 25.8L 108.5 76.6L 134.3 76.6L 134.3 25.8L 156.7 25.8L 156.7 -1.2207e-05L 86.2 -1.2207e-05L 86.2 25.8L 86.0999 25.8ZM 292.5 50.8L 292.5 -1.2207e-05L 266.8 -1.2207e-05L 266.8 76.6L 273.3 76.6L 292.5 76.6L 328.4 76.6L 328.4 50.8L 292.5 50.8Z"/>
<path id="path2_fill" d="M 249.1 50.9L 253.8 -6.10352e-06L 126.9 -6.10352e-06L 9.76563e-05 -6.10352e-06L 14.2 153.5L 14.5001 152.5L 126.9 152.5L 187.9 152.5L 182.3 217.5L 126.9 233.4L 70.7999 217.2L 67.4 177.9L 16.4 177.9L 23.7 256.5L 126.9 285.8L 230.2 256.5L 244.4 102.3L 126.9 102.3L 60.4 102.3L 55.6 50.9L 126.9 50.9L 249.1 50.9Z"/>
</defs>
</svg>
