<svg width="559" height="261" viewBox="0 0 559 261" version="1.1" xmlns="http://www.w3.org/2000/svg" xmlns:xlink="http://www.w3.org/1999/xlink">
<title>&#208;&#161;&#208;&#187;&#208;&#190;&#208;&#185;_2</title>
<desc>Created using Figma</desc>
<g id="Canvas" transform="translate(81 -518)">
<g id="&#208;&#161;&#208;&#187;&#208;&#190;&#208;&#185;_2">
<g id="Vector">
<use xlink:href="#path0_fill" transform="translate(-80.5 712.6)" fill="url(#paint0_linear)"/>
</g>
<g id="Vector">
<use xlink:href="#path1_fill" transform="translate(24.2 712.6)" fill="url(#paint1_linear)"/>
</g>
<g id="Vector">
<use xlink:href="#path2_fill" transform="translate(3.99988 518.8)" fill="url(#paint2_linear)"/>
</g>
<g id="Vector">
<use xlink:href="#path3_fill" transform="translate(98.2 576.7)" fill="url(#paint3_linear)"/>
</g>
<g id="Vector">
<use xlink:href="#path4_fill" transform="translate(244.9 724.6)" fill="url(#paint4_linear)"/>
</g>
<g id="Component">
<g id="&#208;&#160;&#208;&#176;&#208;&#177;&#208;&#190;&#209;&#135;&#208;&#176;&#209;&#143; &#208;&#178;&#208;&#181;&#209;&#128;&#209;&#129;&#208;&#184;&#209;&#143; &#208;&#191;&#209;&#128;&#208;&#190;&#208;&#180;&#209;&#131;&#208;&#186;&#209;&#130;&#208;&#176;">
<use xlink:href="#path5_fill" transform="translate(287 735.8)" fill="#FFFFFF"/>
</g>
<g id="&#208;&#151;&#208;&#176;&#208;&#180;&#208;&#176;&#209;&#135;&#208;&#184; &#208;&#189;&#208;&#176; &#209;&#129;&#208;&#191;&#209;&#128;&#208;&#184;&#208;&#189;&#209;&#130;">
<use xlink:href="#path6_fill" transform="translate(28.9999 725.8)" fill="#FFFFFF"/>
</g>
<g id="&#208;&#162;&#209;&#128;&#208;&#181;&#208;&#177;&#208;&#190;&#208;&#178;&#208;&#176;&#208;&#189;&#208;&#184;&#209;&#143; &#208;&#186; &#208;&#191;&#209;&#128;&#208;&#190;&#208;&#180;&#209;&#131;&#208;&#186;&#209;&#130;&#209;&#131;">
<use xlink:href="#path7_fill" transform="translate(-77.0001 725.8)" fill="#FFFFFF"/>
</g>
<g id="&#208;&#161;&#208;&#191;&#209;&#128;&#208;&#184;&#208;&#189;&#209;&#130; ~30 &#208;&#180;&#208;&#189;&#208;&#181;&#208;&#185;">
<use xlink:href="#path8_fill" transform="translate(166 654.8)" fill="#FFFFFF"/>
</g>
<g id="&#208;&#149;&#208;&#182;&#208;&#181;&#208;&#180;&#208;&#189;&#208;&#181;&#208;&#178;&#208;&#189;&#209;&#139;&#208;&#185; &#208;&#188;&#208;&#184;&#209;&#130;&#208;&#184;&#208;&#189;&#208;&#179;">
<use xlink:href="#path9_fill" transform="translate(25.9999 579.8)" fill="#FFFFFF"/>
</g>
</g>
</g>
</g>
<defs>
<linearGradient id="paint0_linear" x1="0" y1="0" x2="1" y2="0" gradientUnits="userSpaceOnUse" gradientTransform="matrix(118.426 0 0 118.426 0.0003 -29.1808)">
<stop offset="0" stop-color="#0E4468"/>
<stop offset="1" stop-color="#088DC1"/>
</linearGradient>
<linearGradient id="paint1_linear" x1="0" y1="0" x2="1" y2="0" gradientUnits="userSpaceOnUse" gradientTransform="matrix(126.426 0 0 126.426 -0.0336 -33.1808)">
<stop offset="0" stop-color="#0E4468"/>
<stop offset="1" stop-color="#088DC1"/>
</linearGradient>
<linearGradient id="paint2_linear" x1="0" y1="0" x2="1" y2="0" gradientUnits="userSpaceOnUse" gradientTransform="matrix(-137.348 69.9203 67.1224 143.073 111.879 -34.3097)">
<stop offset="0" stop-color="#0E4468"/>
<stop offset="1" stop-color="#088DC1"/>
</linearGradient>
<linearGradient id="paint3_linear" x1="0" y1="0" x2="1" y2="0" gradientUnits="userSpaceOnUse" gradientTransform="matrix(196.89 0 0 196.89 0.107 -6.378)">
<stop offset="0" stop-color="#0E4468"/>
<stop offset="1" stop-color="#088DC1"/>
</linearGradient>
<linearGradient id="paint4_linear" x1="0" y1="0" x2="1" y2="0" gradientUnits="userSpaceOnUse" gradientTransform="matrix(366.67 0 0 366.67 -148.523 -165.302)">
<stop offset="0" stop-color="#0E4468"/>
<stop offset="1" stop-color="#088DC1"/>
</linearGradient>
<path id="path0_fill" d="M 118.4 30L 76 -1.2207e-05L 76 12L 2.44141e-05 12L 2.44141e-05 48L 76 48L 76 60L 118.4 30Z"/>
<path id="path1_fill" d="M 126.4 30L 84 -1.2207e-05L 84 12L -2.44141e-05 12L 24.5 30L -2.44141e-05 48L 84 48L 84 60L 126.4 30Z"/>
<path id="path2_fill" d="M 41.0152 7.54851C 76.4259 -10.4387 119.219 4.81134 136.611 41.6981C 136.862 42.2194 137.112 42.7408 137.362 43.2622L 146.371 39.0912L 138.488 80.2792L 103.828 58.7728L 111.711 55.1233C 111.586 54.8626 111.586 54.7322 111.461 54.4716C 100.951 32.0528 74.7991 22.6682 53.2774 33.6169C 31.7557 44.5656 20.7446 71.5463 33.2573 94.2258C 55.2795 133.98 92.8173 114.298 114.464 103.35C 117.968 101.655 136.862 91.3583 139.615 88.8818L 126.852 113.256L 150 117.166C 147.623 118.73 145.12 120.164 142.618 121.598C 107.207 139.585 46.3955 177.384 8.23202 107.13C -11.2877 71.2857 5.60447 25.5357 41.0152 7.54851Z"/>
<path id="path3_fill" d="M 104.8 -6.10352e-06C 54 -6.10352e-06 12.8 41.2 12.8 92C 12.8 92.7 12.8 93.4 12.8 94.1L -2.44141e-05 94.6L 31.5 135.9L 60 92.4L 48.8 92.8C 48.8 92.5 48.8 92.2 48.8 92C 48.8 61.1 73.9 36 104.8 36C 135.7 36 163.1 59.7 160.8 92C 156.8 148.6 102.7 148 71.8 148C 66.8 148 39.4 147.3 34.8 146.1L 62.8 165.9L 38.2001 183.3C 41.8 183.7 45.5 184 49.2001 184C 100 184 190.8 191.6 196.8 92C 199.9 41.3 155.7 -6.10352e-06 104.8 -6.10352e-06Z"/>
<path id="path4_fill" d="M 218.1 -1.2207e-05L 41.7 -1.2207e-05C 32.5 16.6 14.7 28.1 4.88281e-05 36L 218.1 36L 218.1 -1.2207e-05Z"/>
<path id="path5_fill" d="M 2.93945 9.49316L 2.93945 13L 0.888672 13L 0.888672 3.04688L 4.77148 3.04688C 5.51888 3.04688 6.17513 3.18359 6.74023 3.45703C 7.3099 3.73047 7.7474 4.12012 8.05273 4.62598C 8.35807 5.12728 8.51074 5.69922 8.51074 6.3418C 8.51074 7.31706 8.17578 8.08724 7.50586 8.65234C 6.84049 9.21289 5.91764 9.49316 4.7373 9.49316L 2.93945 9.49316ZM 2.93945 7.83203L 4.77148 7.83203C 5.3138 7.83203 5.72624 7.70443 6.00879 7.44922C 6.2959 7.19401 6.43945 6.82943 6.43945 6.35547C 6.43945 5.86784 6.2959 5.47363 6.00879 5.17285C 5.72168 4.87207 5.3252 4.71712 4.81934 4.70801L 2.93945 4.70801L 2.93945 7.83203ZM 14 13C 13.9089 12.8223 13.8428 12.6012 13.8018 12.3369C 13.3232 12.8701 12.7012 13.1367 11.9355 13.1367C 11.2109 13.1367 10.6094 12.9271 10.1309 12.5078C 9.6569 12.0885 9.41992 11.5599 9.41992 10.9219C 9.41992 10.138 9.70931 9.53646 10.2881 9.11719C 10.8714 8.69792 11.7122 8.486 12.8105 8.48145L 13.7197 8.48145L 13.7197 8.05762C 13.7197 7.71582 13.6309 7.44238 13.4531 7.2373C 13.2799 7.03223 13.0042 6.92969 12.626 6.92969C 12.2933 6.92969 12.0312 7.00944 11.8398 7.16895C 11.653 7.32845 11.5596 7.5472 11.5596 7.8252L 9.58398 7.8252C 9.58398 7.39681 9.71615 7.00033 9.98047 6.63574C 10.2448 6.27116 10.6185 5.98633 11.1016 5.78125C 11.5846 5.57161 12.127 5.4668 12.7285 5.4668C 13.64 5.4668 14.3623 5.69694 14.8955 6.15723C 15.4333 6.61296 15.7021 7.25553 15.7021 8.08496L 15.7021 11.291C 15.7067 11.9928 15.8047 12.5238 15.9961 12.8838L 15.9961 13L 14 13ZM 12.3662 11.626C 12.6579 11.626 12.9268 11.5622 13.1729 11.4346C 13.4189 11.3024 13.6012 11.127 13.7197 10.9082L 13.7197 9.63672L 12.9814 9.63672C 11.9925 9.63672 11.4661 9.97852 11.4023 10.6621L 11.3955 10.7783C 11.3955 11.0244 11.4821 11.2272 11.6553 11.3867C 11.8285 11.5462 12.0654 11.626 12.3662 11.626ZM 20.8906 6.01367C 21.8385 6.01367 22.5951 6.32812 23.1602 6.95703C 23.7253 7.58594 24.0078 8.44043 24.0078 9.52051L 24.0078 9.61621C 24.0078 10.6826 23.6934 11.5371 23.0645 12.1797C 22.4355 12.8223 21.5902 13.1436 20.5283 13.1436C 19.4619 13.1436 18.612 12.7972 17.9785 12.1045C 17.3496 11.4072 17.0352 10.4616 17.0352 9.26758L 17.0352 8.93945C 17.0443 7.27604 17.3245 5.97494 17.876 5.03613C 18.432 4.09277 19.266 3.49805 20.3779 3.25195C 20.9613 3.12435 21.3372 2.99902 21.5059 2.87598C 21.6745 2.74837 21.7588 2.57292 21.7588 2.34961L 23.3584 2.34961C 23.3584 3.0651 23.1647 3.60286 22.7773 3.96289C 22.3945 4.32292 21.7109 4.60091 20.7266 4.79688C 20.1432 4.91536 19.6829 5.14551 19.3457 5.4873C 19.0085 5.8291 18.7806 6.3099 18.6621 6.92969C 19.291 6.31901 20.0339 6.01367 20.8906 6.01367ZM 20.5146 7.61328C 20.0452 7.61328 19.6761 7.77051 19.4072 8.08496C 19.1429 8.39941 19.0107 8.90983 19.0107 9.61621C 19.0107 10.2451 19.1406 10.7259 19.4004 11.0586C 19.6602 11.3867 20.0361 11.5508 20.5283 11.5508C 21.0068 11.5508 21.376 11.389 21.6357 11.0654C 21.8955 10.7419 22.0277 10.2656 22.0322 9.63672L 22.0322 9.47266C 22.0322 8.86654 21.8978 8.40625 21.6289 8.0918C 21.3646 7.77279 20.9932 7.61328 20.5146 7.61328ZM 24.8828 9.2334C 24.8828 8.49967 25.0241 7.8457 25.3066 7.27148C 25.5892 6.69727 25.9948 6.25293 26.5234 5.93848C 27.0566 5.62402 27.6742 5.4668 28.376 5.4668C 29.374 5.4668 30.1875 5.77214 30.8164 6.38281C 31.4499 6.99349 31.8031 7.82292 31.876 8.87109L 31.8896 9.37695C 31.8896 10.5117 31.5729 11.4232 30.9395 12.1113C 30.306 12.7949 29.4561 13.1367 28.3896 13.1367C 27.3232 13.1367 26.471 12.7949 25.833 12.1113C 25.1995 11.4277 24.8828 10.498 24.8828 9.32227L 24.8828 9.2334ZM 26.8584 9.37695C 26.8584 10.0788 26.9906 10.6165 27.2549 10.9902C 27.5192 11.3594 27.8975 11.5439 28.3896 11.5439C 28.8682 11.5439 29.2419 11.3617 29.5107 10.9971C 29.7796 10.6279 29.9141 10.04 29.9141 9.2334C 29.9141 8.54525 29.7796 8.01204 29.5107 7.63379C 29.2419 7.25553 28.8636 7.06641 28.376 7.06641C 27.8929 7.06641 27.5192 7.25553 27.2549 7.63379C 26.9906 8.00749 26.8584 8.58854 26.8584 9.37695ZM 39.3408 13L 37.3652 13L 37.3652 10.6758C 36.9961 10.7441 36.652 10.7783 36.333 10.7783C 35.2165 10.7783 34.3757 10.5413 33.8105 10.0674C 33.2454 9.59342 32.9583 8.90072 32.9492 7.98926L 32.9492 5.60352L 34.9248 5.60352L 34.9248 7.98926C 34.9294 8.41764 35.0342 8.72526 35.2393 8.91211C 35.4443 9.0944 35.8089 9.18555 36.333 9.18555C 36.6611 9.18555 37.0052 9.14681 37.3652 9.06934L 37.3652 5.60352L 39.3408 5.60352L 39.3408 13ZM 45.1445 13C 45.0534 12.8223 44.9873 12.6012 44.9463 12.3369C 44.4678 12.8701 43.8457 13.1367 43.0801 13.1367C 42.3555 13.1367 41.7539 12.9271 41.2754 12.5078C 40.8014 12.0885 40.5645 11.5599 40.5645 10.9219C 40.5645 10.138 40.8538 9.53646 41.4326 9.11719C 42.016 8.69792 42.8568 8.486 43.9551 8.48145L 44.8643 8.48145L 44.8643 8.05762C 44.8643 7.71582 44.7754 7.44238 44.5977 7.2373C 44.4245 7.03223 44.1488 6.92969 43.7705 6.92969C 43.4378 6.92969 43.1758 7.00944 42.9844 7.16895C 42.7975 7.32845 42.7041 7.5472 42.7041 7.8252L 40.7285 7.8252C 40.7285 7.39681 40.8607 7.00033 41.125 6.63574C 41.3893 6.27116 41.763 5.98633 42.2461 5.78125C 42.7292 5.57161 43.2715 5.4668 43.873 5.4668C 44.7845 5.4668 45.5068 5.69694 46.04 6.15723C 46.5778 6.61296 46.8467 7.25553 46.8467 8.08496L 46.8467 11.291C 46.8512 11.9928 46.9492 12.5238 47.1406 12.8838L 47.1406 13L 45.1445 13ZM 43.5107 11.626C 43.8024 11.626 44.0713 11.5622 44.3174 11.4346C 44.5635 11.3024 44.7458 11.127 44.8643 10.9082L 44.8643 9.63672L 44.126 9.63672C 43.137 9.63672 42.6107 9.97852 42.5469 10.6621L 42.54 10.7783C 42.54 11.0244 42.6266 11.2272 42.7998 11.3867C 42.973 11.5462 43.21 11.626 43.5107 11.626ZM 54.5303 5.60352L 54.5303 13L 52.5615 13L 52.5615 10.4434L 51.3105 10.4434L 49.8887 13L 47.8857 13L 49.499 10.1084C 49.057 9.90332 48.7152 9.62533 48.4736 9.27441C 48.2367 8.9235 48.1182 8.52474 48.1182 8.07812C 48.1182 7.36263 48.3939 6.77702 48.9453 6.32129C 49.5013 5.861 50.2441 5.62174 51.1738 5.60352L 54.5303 5.60352ZM 51.208 9.0625L 52.5615 9.0625L 52.5615 7.18945L 51.2764 7.18945C 50.9255 7.18945 50.6406 7.28288 50.4219 7.46973C 50.2031 7.65202 50.0938 7.87533 50.0938 8.13965C 50.0938 8.40397 50.1986 8.62272 50.4082 8.7959C 50.6178 8.96908 50.8844 9.05794 51.208 9.0625ZM 59.8145 13L 59.8145 5.60352L 62.9043 5.60352C 63.9115 5.60352 64.6839 5.78125 65.2217 6.13672C 65.7594 6.49219 66.0283 7.0026 66.0283 7.66797C 66.0283 8.00977 65.9144 8.31738 65.6865 8.59082C 65.4632 8.8597 65.1351 9.06706 64.7021 9.21289C 65.2308 9.31315 65.6455 9.51139 65.9463 9.80762C 66.2516 10.0993 66.4043 10.4593 66.4043 10.8877C 66.4043 11.5758 66.1445 12.0999 65.625 12.46C 65.11 12.82 64.3604 13 63.376 13L 59.8145 13ZM 61.79 9.93066L 61.79 11.4209L 63.3828 11.4209C 64.0801 11.4209 64.4287 11.1771 64.4287 10.6895C 64.4287 10.1927 64.096 9.93978 63.4307 9.93066L 61.79 9.93066ZM 61.79 8.60449L 63.0137 8.60449C 63.7064 8.59538 64.0527 8.37207 64.0527 7.93457C 64.0527 7.66569 63.957 7.47428 63.7656 7.36035C 63.5788 7.24642 63.2917 7.18945 62.9043 7.18945L 61.79 7.18945L 61.79 8.60449ZM 71.0186 13.1367C 69.9339 13.1367 69.0498 12.804 68.3662 12.1387C 67.6872 11.4733 67.3477 10.5869 67.3477 9.47949L 67.3477 9.28809C 67.3477 8.54525 67.4912 7.88216 67.7783 7.29883C 68.0654 6.71094 68.471 6.25977 68.9951 5.94531C 69.5238 5.6263 70.1253 5.4668 70.7998 5.4668C 71.8115 5.4668 72.6068 5.78581 73.1855 6.42383C 73.7689 7.06185 74.0605 7.96647 74.0605 9.1377L 74.0605 9.94434L 69.3506 9.94434C 69.4144 10.4274 69.6058 10.8148 69.9248 11.1064C 70.2484 11.3981 70.6562 11.5439 71.1484 11.5439C 71.9095 11.5439 72.5042 11.2682 72.9326 10.7168L 73.9033 11.8037C 73.6071 12.223 73.2061 12.5511 72.7002 12.7881C 72.1943 13.0205 71.6338 13.1367 71.0186 13.1367ZM 70.793 7.06641C 70.401 7.06641 70.082 7.19857 69.8359 7.46289C 69.5944 7.72721 69.4395 8.10547 69.3711 8.59766L 72.1191 8.59766L 72.1191 8.44043C 72.11 8.00293 71.9915 7.66569 71.7637 7.42871C 71.5358 7.18717 71.2122 7.06641 70.793 7.06641ZM 81.8467 9.37012C 81.8467 10.5094 81.5869 11.4232 81.0674 12.1113C 80.5524 12.7949 79.8551 13.1367 78.9756 13.1367C 78.2282 13.1367 77.6243 12.877 77.1641 12.3574L 77.1641 15.8438L 75.1885 15.8438L 75.1885 5.60352L 77.0205 5.60352L 77.0889 6.32812C 77.5674 5.75391 78.1917 5.4668 78.9619 5.4668C 79.8734 5.4668 80.582 5.80404 81.0879 6.47852C 81.5938 7.15299 81.8467 8.08268 81.8467 9.26758L 81.8467 9.37012ZM 79.8711 9.22656C 79.8711 8.53841 79.748 8.00749 79.502 7.63379C 79.2604 7.26009 78.9072 7.07324 78.4424 7.07324C 77.8226 7.07324 77.3965 7.31022 77.1641 7.78418L 77.1641 10.8125C 77.4056 11.3001 77.8363 11.5439 78.4561 11.5439C 79.3994 11.5439 79.8711 10.7715 79.8711 9.22656ZM 86.1533 11.5439C 86.5179 11.5439 86.8141 11.4437 87.042 11.2432C 87.2699 11.0426 87.3883 10.776 87.3975 10.4434L 89.25 10.4434C 89.2454 10.9447 89.1087 11.4049 88.8398 11.8242C 88.571 12.2389 88.2018 12.5625 87.7324 12.7949C 87.2676 13.0228 86.7526 13.1367 86.1875 13.1367C 85.1302 13.1367 84.2962 12.8018 83.6855 12.1318C 83.0749 11.4574 82.7695 10.5277 82.7695 9.34277L 82.7695 9.21289C 82.7695 8.07357 83.0726 7.16439 83.6787 6.48535C 84.2848 5.80631 85.1165 5.4668 86.1738 5.4668C 87.099 5.4668 87.8395 5.73112 88.3955 6.25977C 88.9561 6.78385 89.2409 7.4834 89.25 8.3584L 87.3975 8.3584C 87.3883 7.97559 87.2699 7.66569 87.042 7.42871C 86.8141 7.18717 86.5133 7.06641 86.1396 7.06641C 85.6794 7.06641 85.3307 7.23503 85.0938 7.57227C 84.8613 7.90495 84.7451 8.44727 84.7451 9.19922L 84.7451 9.4043C 84.7451 10.1654 84.8613 10.7122 85.0938 11.0449C 85.3262 11.3776 85.6794 11.5439 86.1533 11.5439ZM 94.835 5.60352L 96.8105 5.60352L 96.8105 13L 94.835 13L 94.835 8.43359L 92.3604 13L 90.3779 13L 90.3779 5.60352L 92.3604 5.60352L 92.3604 10.1631L 94.835 5.60352ZM 104.487 5.60352L 104.487 13L 102.519 13L 102.519 10.4434L 101.268 10.4434L 99.8457 13L 97.8428 13L 99.4561 10.1084C 99.014 9.90332 98.6722 9.62533 98.4307 9.27441C 98.1937 8.9235 98.0752 8.52474 98.0752 8.07812C 98.0752 7.36263 98.3509 6.77702 98.9023 6.32129C 99.4583 5.861 100.201 5.62174 101.131 5.60352L 104.487 5.60352ZM 101.165 9.0625L 102.519 9.0625L 102.519 7.18945L 101.233 7.18945C 100.882 7.18945 100.598 7.28288 100.379 7.46973C 100.16 7.65202 100.051 7.87533 100.051 8.13965C 100.051 8.40397 100.156 8.62272 100.365 8.7959C 100.575 8.96908 100.841 9.05794 101.165 9.0625ZM 116.074 13L 114.092 13L 114.092 7.20312L 111.617 7.20312L 111.617 13L 109.642 13L 109.642 5.60352L 116.074 5.60352L 116.074 13ZM 124.243 9.37012C 124.243 10.5094 123.983 11.4232 123.464 12.1113C 122.949 12.7949 122.252 13.1367 121.372 13.1367C 120.625 13.1367 120.021 12.877 119.561 12.3574L 119.561 15.8438L 117.585 15.8438L 117.585 5.60352L 119.417 5.60352L 119.485 6.32812C 119.964 5.75391 120.588 5.4668 121.358 5.4668C 122.27 5.4668 122.979 5.80404 123.484 6.47852C 123.99 7.15299 124.243 8.08268 124.243 9.26758L 124.243 9.37012ZM 122.268 9.22656C 122.268 8.53841 122.145 8.00749 121.898 7.63379C 121.657 7.26009 121.304 7.07324 120.839 7.07324C 120.219 7.07324 119.793 7.31022 119.561 7.78418L 119.561 10.8125C 119.802 11.3001 120.233 11.5439 120.853 11.5439C 121.796 11.5439 122.268 10.7715 122.268 9.22656ZM 125.166 9.2334C 125.166 8.49967 125.307 7.8457 125.59 7.27148C 125.872 6.69727 126.278 6.25293 126.807 5.93848C 127.34 5.62402 127.957 5.4668 128.659 5.4668C 129.657 5.4668 130.471 5.77214 131.1 6.38281C 131.733 6.99349 132.086 7.82292 132.159 8.87109L 132.173 9.37695C 132.173 10.5117 131.856 11.4232 131.223 12.1113C 130.589 12.7949 129.739 13.1367 128.673 13.1367C 127.606 13.1367 126.754 12.7949 126.116 12.1113C 125.483 11.4277 125.166 10.498 125.166 9.32227L 125.166 9.2334ZM 127.142 9.37695C 127.142 10.0788 127.274 10.6165 127.538 10.9902C 127.802 11.3594 128.181 11.5439 128.673 11.5439C 129.151 11.5439 129.525 11.3617 129.794 10.9971C 130.063 10.6279 130.197 10.04 130.197 9.2334C 130.197 8.54525 130.063 8.01204 129.794 7.63379C 129.525 7.25553 129.147 7.06641 128.659 7.06641C 128.176 7.06641 127.802 7.25553 127.538 7.63379C 127.274 8.00749 127.142 8.58854 127.142 9.37695ZM 133 11.4072C 133.447 10.9333 133.75 10.4639 133.909 9.99902C 134.069 9.53418 134.158 8.87565 134.176 8.02344L 134.23 5.60352L 139.672 5.60352L 139.672 11.4072L 140.738 11.4072L 140.738 15.2217L 138.763 15.2217L 138.763 13L 134.381 13L 134.381 15.2217L 132.364 15.2217L 132.364 11.4072L 133 11.4072ZM 135.331 11.4072L 137.703 11.4072L 137.703 7.2373L 136.165 7.2373L 136.151 8.12598C 136.11 9.48405 135.837 10.5778 135.331 11.4072ZM 144.505 10.2041L 145.872 5.60352L 147.991 5.60352L 145.018 14.1484L 144.854 14.5381C 144.411 15.5042 143.682 15.9873 142.666 15.9873C 142.379 15.9873 142.087 15.944 141.791 15.8574L 141.791 14.3604L 142.092 14.3672C 142.465 14.3672 142.743 14.3102 142.926 14.1963C 143.113 14.0824 143.258 13.8932 143.363 13.6289L 143.596 13.0205L 141.005 5.60352L 143.131 5.60352L 144.505 10.2041ZM 151.669 10.2725L 150.876 10.2725L 150.876 13L 148.9 13L 148.9 5.60352L 150.876 5.60352L 150.876 8.38574L 151.58 8.38574L 153.193 5.60352L 155.688 5.60352L 153.269 9.12402L 155.914 13L 153.282 13L 151.669 10.2725ZM 162.798 7.18945L 160.426 7.18945L 160.426 13L 158.443 13L 158.443 7.18945L 156.112 7.18945L 156.112 5.60352L 162.798 5.60352L 162.798 7.18945ZM 167.973 13C 167.882 12.8223 167.815 12.6012 167.774 12.3369C 167.296 12.8701 166.674 13.1367 165.908 13.1367C 165.184 13.1367 164.582 12.9271 164.104 12.5078C 163.63 12.0885 163.393 11.5599 163.393 10.9219C 163.393 10.138 163.682 9.53646 164.261 9.11719C 164.844 8.69792 165.685 8.486 166.783 8.48145L 167.692 8.48145L 167.692 8.05762C 167.692 7.71582 167.604 7.44238 167.426 7.2373C 167.253 7.03223 166.977 6.92969 166.599 6.92969C 166.266 6.92969 166.004 7.00944 165.812 7.16895C 165.626 7.32845 165.532 7.5472 165.532 7.8252L 163.557 7.8252C 163.557 7.39681 163.689 7.00033 163.953 6.63574C 164.217 6.27116 164.591 5.98633 165.074 5.78125C 165.557 5.57161 166.1 5.4668 166.701 5.4668C 167.613 5.4668 168.335 5.69694 168.868 6.15723C 169.406 6.61296 169.675 7.25553 169.675 8.08496L 169.675 11.291C 169.679 11.9928 169.777 12.5238 169.969 12.8838L 169.969 13L 167.973 13ZM 166.339 11.626C 166.631 11.626 166.899 11.5622 167.146 11.4346C 167.392 11.3024 167.574 11.127 167.692 10.9082L 167.692 9.63672L 166.954 9.63672C 165.965 9.63672 165.439 9.97852 165.375 10.6621L 165.368 10.7783C 165.368 11.0244 165.455 11.2272 165.628 11.3867C 165.801 11.5462 166.038 11.626 166.339 11.626Z"/>
<path id="path6_fill" d="M 33.457 5.78809C 33.457 5.40983 33.3089 5.11361 33.0127 4.89941C 32.7165 4.68066 32.3245 4.57129 31.8369 4.57129C 31.3994 4.57129 31.0348 4.68066 30.7432 4.89941C 30.4561 5.11361 30.3125 5.39388 30.3125 5.74023L 28.2617 5.74023C 28.2617 5.20247 28.4121 4.7194 28.7129 4.29102C 29.0182 3.85807 29.4489 3.52083 30.0049 3.2793C 30.5654 3.03776 31.1761 2.91699 31.8369 2.91699C 32.9854 2.91699 33.8854 3.16309 34.5371 3.65527C 35.1888 4.14746 35.5146 4.84473 35.5146 5.74707C 35.5146 6.18913 35.3802 6.59928 35.1113 6.97754C 34.847 7.35579 34.4688 7.65885 33.9766 7.88672C 34.5234 8.07812 34.9427 8.36979 35.2344 8.76172C 35.526 9.14909 35.6719 9.63216 35.6719 10.2109C 35.6719 11.1042 35.321 11.8151 34.6191 12.3438C 33.9219 12.8678 32.9945 13.1299 31.8369 13.1299C 31.1123 13.1299 30.4606 13.0068 29.8818 12.7607C 29.3031 12.5101 28.8633 12.1706 28.5625 11.7422C 28.2663 11.3092 28.1182 10.8079 28.1182 10.2383L 30.1826 10.2383C 30.1826 10.5938 30.3376 10.8923 30.6475 11.1338C 30.9574 11.3708 31.3538 11.4893 31.8369 11.4893C 32.3838 11.4893 32.8145 11.3662 33.1289 11.1201C 33.4479 10.874 33.6074 10.5618 33.6074 10.1836C 33.6074 9.66406 33.4661 9.29264 33.1836 9.06934C 32.901 8.84147 32.4886 8.72754 31.9463 8.72754L 30.7227 8.72754L 30.7227 7.12109L 31.9873 7.12109C 32.9671 7.10742 33.457 6.66309 33.457 5.78809ZM 41.3457 13C 41.2546 12.8223 41.1885 12.6012 41.1475 12.3369C 40.6689 12.8701 40.0469 13.1367 39.2812 13.1367C 38.5566 13.1367 37.9551 12.9271 37.4766 12.5078C 37.0026 12.0885 36.7656 11.5599 36.7656 10.9219C 36.7656 10.138 37.055 9.53646 37.6338 9.11719C 38.2171 8.69792 39.0579 8.486 40.1562 8.48145L 41.0654 8.48145L 41.0654 8.05762C 41.0654 7.71582 40.9766 7.44238 40.7988 7.2373C 40.6257 7.03223 40.3499 6.92969 39.9717 6.92969C 39.639 6.92969 39.377 7.00944 39.1855 7.16895C 38.9987 7.32845 38.9053 7.5472 38.9053 7.8252L 36.9297 7.8252C 36.9297 7.39681 37.0618 7.00033 37.3262 6.63574C 37.5905 6.27116 37.9642 5.98633 38.4473 5.78125C 38.9303 5.57161 39.4727 5.4668 40.0742 5.4668C 40.9857 5.4668 41.708 5.69694 42.2412 6.15723C 42.779 6.61296 43.0479 7.25553 43.0479 8.08496L 43.0479 11.291C 43.0524 11.9928 43.1504 12.5238 43.3418 12.8838L 43.3418 13L 41.3457 13ZM 39.7119 11.626C 40.0036 11.626 40.2725 11.5622 40.5186 11.4346C 40.7646 11.3024 40.9469 11.127 41.0654 10.9082L 41.0654 9.63672L 40.3271 9.63672C 39.3382 9.63672 38.8118 9.97852 38.748 10.6621L 38.7412 10.7783C 38.7412 11.0244 38.8278 11.2272 39.001 11.3867C 39.1742 11.5462 39.4111 11.626 39.7119 11.626ZM 44.668 11.4072C 45.1146 10.9333 45.4176 10.4639 45.5771 9.99902C 45.7367 9.53418 45.8255 8.87565 45.8438 8.02344L 45.8984 5.60352L 51.3398 5.60352L 51.3398 11.4072L 52.4062 11.4072L 52.4062 15.2217L 50.4307 15.2217L 50.4307 13L 46.0488 13L 46.0488 15.2217L 44.0322 15.2217L 44.0322 11.4072L 44.668 11.4072ZM 46.999 11.4072L 49.3711 11.4072L 49.3711 7.2373L 47.833 7.2373L 47.8193 8.12598C 47.7783 9.48405 47.5049 10.5778 46.999 11.4072ZM 57.6973 13C 57.6061 12.8223 57.54 12.6012 57.499 12.3369C 57.0205 12.8701 56.3984 13.1367 55.6328 13.1367C 54.9082 13.1367 54.3066 12.9271 53.8281 12.5078C 53.3542 12.0885 53.1172 11.5599 53.1172 10.9219C 53.1172 10.138 53.4066 9.53646 53.9854 9.11719C 54.5687 8.69792 55.4095 8.486 56.5078 8.48145L 57.417 8.48145L 57.417 8.05762C 57.417 7.71582 57.3281 7.44238 57.1504 7.2373C 56.9772 7.03223 56.7015 6.92969 56.3232 6.92969C 55.9906 6.92969 55.7285 7.00944 55.5371 7.16895C 55.3503 7.32845 55.2568 7.5472 55.2568 7.8252L 53.2812 7.8252C 53.2812 7.39681 53.4134 7.00033 53.6777 6.63574C 53.9421 6.27116 54.3158 5.98633 54.7988 5.78125C 55.2819 5.57161 55.8242 5.4668 56.4258 5.4668C 57.3372 5.4668 58.0596 5.69694 58.5928 6.15723C 59.1305 6.61296 59.3994 7.25553 59.3994 8.08496L 59.3994 11.291C 59.404 11.9928 59.502 12.5238 59.6934 12.8838L 59.6934 13L 57.6973 13ZM 56.0635 11.626C 56.3551 11.626 56.624 11.5622 56.8701 11.4346C 57.1162 11.3024 57.2985 11.127 57.417 10.9082L 57.417 9.63672L 56.6787 9.63672C 55.6898 9.63672 55.1634 9.97852 55.0996 10.6621L 55.0928 10.7783C 55.0928 11.0244 55.1794 11.2272 55.3525 11.3867C 55.5257 11.5462 55.7627 11.626 56.0635 11.626ZM 67.1514 13L 65.1758 13L 65.1758 10.6758C 64.8066 10.7441 64.4626 10.7783 64.1436 10.7783C 63.027 10.7783 62.1862 10.5413 61.6211 10.0674C 61.056 9.59342 60.7689 8.90072 60.7598 7.98926L 60.7598 5.60352L 62.7354 5.60352L 62.7354 7.98926C 62.7399 8.41764 62.8447 8.72526 63.0498 8.91211C 63.2549 9.0944 63.6195 9.18555 64.1436 9.18555C 64.4717 9.18555 64.8158 9.14681 65.1758 9.06934L 65.1758 5.60352L 67.1514 5.60352L 67.1514 13ZM 73.126 5.60352L 75.1016 5.60352L 75.1016 13L 73.126 13L 73.126 8.43359L 70.6514 13L 68.6689 13L 68.6689 5.60352L 70.6514 5.60352L 70.6514 10.1631L 73.126 5.60352ZM 28.125 29L 26.1426 29L 26.1426 26.1562L 23.6885 26.1562L 23.6885 29L 21.7129 29L 21.7129 21.6035L 23.6885 21.6035L 23.6885 24.5703L 26.1426 24.5703L 26.1426 21.6035L 28.125 21.6035L 28.125 29ZM 33.9424 29C 33.8512 28.8223 33.7852 28.6012 33.7441 28.3369C 33.2656 28.8701 32.6436 29.1367 31.8779 29.1367C 31.1533 29.1367 30.5518 28.9271 30.0732 28.5078C 29.5993 28.0885 29.3623 27.5599 29.3623 26.9219C 29.3623 26.138 29.6517 25.5365 30.2305 25.1172C 30.8138 24.6979 31.6546 24.486 32.7529 24.4814L 33.6621 24.4814L 33.6621 24.0576C 33.6621 23.7158 33.5732 23.4424 33.3955 23.2373C 33.2223 23.0322 32.9466 22.9297 32.5684 22.9297C 32.2357 22.9297 31.9736 23.0094 31.7822 23.1689C 31.5954 23.3285 31.502 23.5472 31.502 23.8252L 29.5264 23.8252C 29.5264 23.3968 29.6585 23.0003 29.9229 22.6357C 30.1872 22.2712 30.5609 21.9863 31.0439 21.7812C 31.527 21.5716 32.0693 21.4668 32.6709 21.4668C 33.5824 21.4668 34.3047 21.6969 34.8379 22.1572C 35.3757 22.613 35.6445 23.2555 35.6445 24.085L 35.6445 27.291C 35.6491 27.9928 35.7471 28.5238 35.9385 28.8838L 35.9385 29L 33.9424 29ZM 32.3086 27.626C 32.6003 27.626 32.8691 27.5622 33.1152 27.4346C 33.3613 27.3024 33.5436 27.127 33.6621 26.9082L 33.6621 25.6367L 32.9238 25.6367C 31.9349 25.6367 31.4085 25.9785 31.3447 26.6621L 31.3379 26.7783C 31.3379 27.0244 31.4245 27.2272 31.5977 27.3867C 31.7708 27.5462 32.0078 27.626 32.3086 27.626ZM 43.7246 27.5439C 44.0892 27.5439 44.3854 27.4437 44.6133 27.2432C 44.8411 27.0426 44.9596 26.776 44.9688 26.4434L 46.8213 26.4434C 46.8167 26.9447 46.68 27.4049 46.4111 27.8242C 46.1423 28.2389 45.7731 28.5625 45.3037 28.7949C 44.8389 29.0228 44.3239 29.1367 43.7588 29.1367C 42.7015 29.1367 41.8675 28.8018 41.2568 28.1318C 40.6462 27.4574 40.3408 26.5277 40.3408 25.3428L 40.3408 25.2129C 40.3408 24.0736 40.6439 23.1644 41.25 22.4854C 41.8561 21.8063 42.6878 21.4668 43.7451 21.4668C 44.6702 21.4668 45.4108 21.7311 45.9668 22.2598C 46.5273 22.7839 46.8122 23.4834 46.8213 24.3584L 44.9688 24.3584C 44.9596 23.9756 44.8411 23.6657 44.6133 23.4287C 44.3854 23.1872 44.0846 23.0664 43.7109 23.0664C 43.2507 23.0664 42.902 23.235 42.665 23.5723C 42.4326 23.9049 42.3164 24.4473 42.3164 25.1992L 42.3164 25.4043C 42.3164 26.1654 42.4326 26.7122 42.665 27.0449C 42.8975 27.3776 43.2507 27.5439 43.7246 27.5439ZM 54.3818 29L 52.3994 29L 52.3994 23.2031L 49.9248 23.2031L 49.9248 29L 47.9492 29L 47.9492 21.6035L 54.3818 21.6035L 54.3818 29ZM 62.5508 25.3701C 62.5508 26.5094 62.291 27.4232 61.7715 28.1113C 61.2565 28.7949 60.5592 29.1367 59.6797 29.1367C 58.9323 29.1367 58.3285 28.877 57.8682 28.3574L 57.8682 31.8438L 55.8926 31.8438L 55.8926 21.6035L 57.7246 21.6035L 57.793 22.3281C 58.2715 21.7539 58.8958 21.4668 59.666 21.4668C 60.5775 21.4668 61.2861 21.804 61.792 22.4785C 62.2979 23.153 62.5508 24.0827 62.5508 25.2676L 62.5508 25.3701ZM 60.5752 25.2266C 60.5752 24.5384 60.4521 24.0075 60.2061 23.6338C 59.9645 23.2601 59.6113 23.0732 59.1465 23.0732C 58.5267 23.0732 58.1006 23.3102 57.8682 23.7842L 57.8682 26.8125C 58.1097 27.3001 58.5404 27.5439 59.1602 27.5439C 60.1035 27.5439 60.5752 26.7715 60.5752 25.2266ZM 68.2383 21.6035L 70.2139 21.6035L 70.2139 29L 68.2383 29L 68.2383 24.4336L 65.7637 29L 63.7812 29L 63.7812 21.6035L 65.7637 21.6035L 65.7637 26.1631L 68.2383 21.6035ZM 78.1367 29L 76.1543 29L 76.1543 26.1562L 73.7002 26.1562L 73.7002 29L 71.7246 29L 71.7246 21.6035L 73.7002 21.6035L 73.7002 24.5703L 76.1543 24.5703L 76.1543 21.6035L 78.1367 21.6035L 78.1367 29ZM 85.8066 23.1895L 83.4346 23.1895L 83.4346 29L 81.4521 29L 81.4521 23.1895L 79.1211 23.1895L 79.1211 21.6035L 85.8066 21.6035L 85.8066 23.1895Z"/>
<path id="path7_fill" d="M 9.8584 4.70801L 6.80957 4.70801L 6.80957 13L 4.75879 13L 4.75879 4.70801L 1.75098 4.70801L 1.75098 3.04688L 9.8584 3.04688L 9.8584 4.70801ZM 16.9473 9.37012C 16.9473 10.5094 16.6875 11.4232 16.168 12.1113C 15.653 12.7949 14.9557 13.1367 14.0762 13.1367C 13.3288 13.1367 12.7249 12.877 12.2646 12.3574L 12.2646 15.8438L 10.2891 15.8438L 10.2891 5.60352L 12.1211 5.60352L 12.1895 6.32812C 12.668 5.75391 13.2923 5.4668 14.0625 5.4668C 14.974 5.4668 15.6826 5.80404 16.1885 6.47852C 16.6943 7.15299 16.9473 8.08268 16.9473 9.26758L 16.9473 9.37012ZM 14.9717 9.22656C 14.9717 8.53841 14.8486 8.00749 14.6025 7.63379C 14.361 7.26009 14.0078 7.07324 13.543 7.07324C 12.9232 7.07324 12.4971 7.31022 12.2646 7.78418L 12.2646 10.8125C 12.5062 11.3001 12.9368 11.5439 13.5566 11.5439C 14.5 11.5439 14.9717 10.7715 14.9717 9.22656ZM 21.582 13.1367C 20.4974 13.1367 19.6133 12.804 18.9297 12.1387C 18.2507 11.4733 17.9111 10.5869 17.9111 9.47949L 17.9111 9.28809C 17.9111 8.54525 18.0547 7.88216 18.3418 7.29883C 18.6289 6.71094 19.0345 6.25977 19.5586 5.94531C 20.0872 5.6263 20.6888 5.4668 21.3633 5.4668C 22.375 5.4668 23.1702 5.78581 23.749 6.42383C 24.3324 7.06185 24.624 7.96647 24.624 9.1377L 24.624 9.94434L 19.9141 9.94434C 19.9779 10.4274 20.1693 10.8148 20.4883 11.1064C 20.8118 11.3981 21.2197 11.5439 21.7119 11.5439C 22.473 11.5439 23.0677 11.2682 23.4961 10.7168L 24.4668 11.8037C 24.1706 12.223 23.7695 12.5511 23.2637 12.7881C 22.7578 13.0205 22.1973 13.1367 21.582 13.1367ZM 21.3564 7.06641C 20.9645 7.06641 20.6455 7.19857 20.3994 7.46289C 20.1579 7.72721 20.0029 8.10547 19.9346 8.59766L 22.6826 8.59766L 22.6826 8.44043C 22.6735 8.00293 22.555 7.66569 22.3271 7.42871C 22.0993 7.18717 21.7757 7.06641 21.3564 7.06641ZM 29.4229 6.01367C 30.3708 6.01367 31.1273 6.32812 31.6924 6.95703C 32.2575 7.58594 32.54 8.44043 32.54 9.52051L 32.54 9.61621C 32.54 10.6826 32.2256 11.5371 31.5967 12.1797C 30.9678 12.8223 30.1224 13.1436 29.0605 13.1436C 27.9941 13.1436 27.1442 12.7972 26.5107 12.1045C 25.8818 11.4072 25.5674 10.4616 25.5674 9.26758L 25.5674 8.93945C 25.5765 7.27604 25.8568 5.97494 26.4082 5.03613C 26.9642 4.09277 27.7982 3.49805 28.9102 3.25195C 29.4935 3.12435 29.8695 2.99902 30.0381 2.87598C 30.2067 2.74837 30.291 2.57292 30.291 2.34961L 31.8906 2.34961C 31.8906 3.0651 31.6969 3.60286 31.3096 3.96289C 30.9268 4.32292 30.2432 4.60091 29.2588 4.79688C 28.6755 4.91536 28.2152 5.14551 27.8779 5.4873C 27.5407 5.8291 27.3128 6.3099 27.1943 6.92969C 27.8232 6.31901 28.5661 6.01367 29.4229 6.01367ZM 29.0469 7.61328C 28.5775 7.61328 28.2083 7.77051 27.9395 8.08496C 27.6751 8.39941 27.543 8.90983 27.543 9.61621C 27.543 10.2451 27.6729 10.7259 27.9326 11.0586C 28.1924 11.3867 28.5684 11.5508 29.0605 11.5508C 29.5391 11.5508 29.9082 11.389 30.168 11.0654C 30.4277 10.7419 30.5599 10.2656 30.5645 9.63672L 30.5645 9.47266C 30.5645 8.86654 30.43 8.40625 30.1611 8.0918C 29.8968 7.77279 29.5254 7.61328 29.0469 7.61328ZM 33.415 9.2334C 33.415 8.49967 33.5563 7.8457 33.8389 7.27148C 34.1214 6.69727 34.527 6.25293 35.0557 5.93848C 35.5889 5.62402 36.2064 5.4668 36.9082 5.4668C 37.9062 5.4668 38.7197 5.77214 39.3486 6.38281C 39.9821 6.99349 40.3353 7.82292 40.4082 8.87109L 40.4219 9.37695C 40.4219 10.5117 40.1051 11.4232 39.4717 12.1113C 38.8382 12.7949 37.9883 13.1367 36.9219 13.1367C 35.8555 13.1367 35.0033 12.7949 34.3652 12.1113C 33.7318 11.4277 33.415 10.498 33.415 9.32227L 33.415 9.2334ZM 35.3906 9.37695C 35.3906 10.0788 35.5228 10.6165 35.7871 10.9902C 36.0514 11.3594 36.4297 11.5439 36.9219 11.5439C 37.4004 11.5439 37.7741 11.3617 38.043 10.9971C 38.3118 10.6279 38.4463 10.04 38.4463 9.2334C 38.4463 8.54525 38.3118 8.01204 38.043 7.63379C 37.7741 7.25553 37.3958 7.06641 36.9082 7.06641C 36.4251 7.06641 36.0514 7.25553 35.7871 7.63379C 35.5228 8.00749 35.3906 8.58854 35.3906 9.37695ZM 41.7686 13L 41.7686 5.60352L 44.8584 5.60352C 45.8656 5.60352 46.638 5.78125 47.1758 6.13672C 47.7135 6.49219 47.9824 7.0026 47.9824 7.66797C 47.9824 8.00977 47.8685 8.31738 47.6406 8.59082C 47.4173 8.8597 47.0892 9.06706 46.6562 9.21289C 47.1849 9.31315 47.5996 9.51139 47.9004 9.80762C 48.2057 10.0993 48.3584 10.4593 48.3584 10.8877C 48.3584 11.5758 48.0986 12.0999 47.5791 12.46C 47.0641 12.82 46.3145 13 45.3301 13L 41.7686 13ZM 43.7441 9.93066L 43.7441 11.4209L 45.3369 11.4209C 46.0342 11.4209 46.3828 11.1771 46.3828 10.6895C 46.3828 10.1927 46.0501 9.93978 45.3848 9.93066L 43.7441 9.93066ZM 43.7441 8.60449L 44.9678 8.60449C 45.6605 8.59538 46.0068 8.37207 46.0068 7.93457C 46.0068 7.66569 45.9111 7.47428 45.7197 7.36035C 45.5329 7.24642 45.2458 7.18945 44.8584 7.18945L 43.7441 7.18945L 43.7441 8.60449ZM 53.8545 13C 53.7633 12.8223 53.6973 12.6012 53.6562 12.3369C 53.1777 12.8701 52.5557 13.1367 51.79 13.1367C 51.0654 13.1367 50.4639 12.9271 49.9854 12.5078C 49.5114 12.0885 49.2744 11.5599 49.2744 10.9219C 49.2744 10.138 49.5638 9.53646 50.1426 9.11719C 50.7259 8.69792 51.5667 8.486 52.665 8.48145L 53.5742 8.48145L 53.5742 8.05762C 53.5742 7.71582 53.4854 7.44238 53.3076 7.2373C 53.1344 7.03223 52.8587 6.92969 52.4805 6.92969C 52.1478 6.92969 51.8857 7.00944 51.6943 7.16895C 51.5075 7.32845 51.4141 7.5472 51.4141 7.8252L 49.4385 7.8252C 49.4385 7.39681 49.5706 7.00033 49.835 6.63574C 50.0993 6.27116 50.473 5.98633 50.9561 5.78125C 51.4391 5.57161 51.9814 5.4668 52.583 5.4668C 53.4945 5.4668 54.2168 5.69694 54.75 6.15723C 55.2878 6.61296 55.5566 7.25553 55.5566 8.08496L 55.5566 11.291C 55.5612 11.9928 55.6592 12.5238 55.8506 12.8838L 55.8506 13L 53.8545 13ZM 52.2207 11.626C 52.5124 11.626 52.7812 11.5622 53.0273 11.4346C 53.2734 11.3024 53.4557 11.127 53.5742 10.9082L 53.5742 9.63672L 52.8359 9.63672C 51.847 9.63672 51.3206 9.97852 51.2568 10.6621L 51.25 10.7783C 51.25 11.0244 51.3366 11.2272 51.5098 11.3867C 51.6829 11.5462 51.9199 11.626 52.2207 11.626ZM 63.4863 13L 61.5039 13L 61.5039 10.1562L 59.0498 10.1562L 59.0498 13L 57.0742 13L 57.0742 5.60352L 59.0498 5.60352L 59.0498 8.57031L 61.5039 8.57031L 61.5039 5.60352L 63.4863 5.60352L 63.4863 13ZM 69.4746 5.60352L 71.4502 5.60352L 71.4502 13L 69.4746 13L 69.4746 8.43359L 67 13L 65.0176 13L 65.0176 5.60352L 67 5.60352L 67 10.1631L 69.4746 5.60352ZM 79.127 5.60352L 79.127 13L 77.1582 13L 77.1582 10.4434L 75.9072 10.4434L 74.4854 13L 72.4824 13L 74.0957 10.1084C 73.6536 9.90332 73.3118 9.62533 73.0703 9.27441C 72.8333 8.9235 72.7148 8.52474 72.7148 8.07812C 72.7148 7.36263 72.9906 6.77702 73.542 6.32129C 74.098 5.861 74.8408 5.62174 75.7705 5.60352L 79.127 5.60352ZM 75.8047 9.0625L 77.1582 9.0625L 77.1582 7.18945L 75.873 7.18945C 75.5221 7.18945 75.2373 7.28288 75.0186 7.46973C 74.7998 7.65202 74.6904 7.87533 74.6904 8.13965C 74.6904 8.40397 74.7952 8.62272 75.0049 8.7959C 75.2145 8.96908 75.4811 9.05794 75.8047 9.0625ZM 9.83789 26.2725L 9.04492 26.2725L 9.04492 29L 7.06934 29L 7.06934 21.6035L 9.04492 21.6035L 9.04492 24.3857L 9.74902 24.3857L 11.3623 21.6035L 13.8574 21.6035L 11.4375 25.124L 14.083 29L 11.4512 29L 9.83789 26.2725ZM 24.7471 29L 22.7646 29L 22.7646 23.2031L 20.29 23.2031L 20.29 29L 18.3145 29L 18.3145 21.6035L 24.7471 21.6035L 24.7471 29ZM 32.916 25.3701C 32.916 26.5094 32.6562 27.4232 32.1367 28.1113C 31.6217 28.7949 30.9245 29.1367 30.0449 29.1367C 29.2975 29.1367 28.6937 28.877 28.2334 28.3574L 28.2334 31.8438L 26.2578 31.8438L 26.2578 21.6035L 28.0898 21.6035L 28.1582 22.3281C 28.6367 21.7539 29.2611 21.4668 30.0312 21.4668C 30.9427 21.4668 31.6514 21.804 32.1572 22.4785C 32.6631 23.153 32.916 24.0827 32.916 25.2676L 32.916 25.3701ZM 30.9404 25.2266C 30.9404 24.5384 30.8174 24.0075 30.5713 23.6338C 30.3298 23.2601 29.9766 23.0732 29.5117 23.0732C 28.8919 23.0732 28.4658 23.3102 28.2334 23.7842L 28.2334 26.8125C 28.4749 27.3001 28.9056 27.5439 29.5254 27.5439C 30.4688 27.5439 30.9404 26.7715 30.9404 25.2266ZM 33.8389 25.2334C 33.8389 24.4997 33.9801 23.8457 34.2627 23.2715C 34.5452 22.6973 34.9508 22.2529 35.4795 21.9385C 36.0127 21.624 36.6302 21.4668 37.332 21.4668C 38.3301 21.4668 39.1436 21.7721 39.7725 22.3828C 40.4059 22.9935 40.7591 23.8229 40.832 24.8711L 40.8457 25.377C 40.8457 26.5117 40.529 27.4232 39.8955 28.1113C 39.262 28.7949 38.4121 29.1367 37.3457 29.1367C 36.2793 29.1367 35.4271 28.7949 34.7891 28.1113C 34.1556 27.4277 33.8389 26.498 33.8389 25.3223L 33.8389 25.2334ZM 35.8145 25.377C 35.8145 26.0788 35.9466 26.6165 36.2109 26.9902C 36.4753 27.3594 36.8535 27.5439 37.3457 27.5439C 37.8242 27.5439 38.1979 27.3617 38.4668 26.9971C 38.7357 26.6279 38.8701 26.04 38.8701 25.2334C 38.8701 24.5452 38.7357 24.012 38.4668 23.6338C 38.1979 23.2555 37.8197 23.0664 37.332 23.0664C 36.849 23.0664 36.4753 23.2555 36.2109 23.6338C 35.9466 24.0075 35.8145 24.5885 35.8145 25.377ZM 41.6729 27.4072C 42.1195 26.9333 42.4225 26.4639 42.582 25.999C 42.7415 25.5342 42.8304 24.8757 42.8486 24.0234L 42.9033 21.6035L 48.3447 21.6035L 48.3447 27.4072L 49.4111 27.4072L 49.4111 31.2217L 47.4355 31.2217L 47.4355 29L 43.0537 29L 43.0537 31.2217L 41.0371 31.2217L 41.0371 27.4072L 41.6729 27.4072ZM 44.0039 27.4072L 46.376 27.4072L 46.376 23.2373L 44.8379 23.2373L 44.8242 24.126C 44.7832 25.484 44.5098 26.5778 44.0039 27.4072ZM 53.1777 26.2041L 54.5449 21.6035L 56.6641 21.6035L 53.6904 30.1484L 53.5264 30.5381C 53.0843 31.5042 52.3551 31.9873 51.3389 31.9873C 51.0518 31.9873 50.7601 31.944 50.4639 31.8574L 50.4639 30.3604L 50.7646 30.3672C 51.1383 30.3672 51.4163 30.3102 51.5986 30.1963C 51.7855 30.0824 51.9313 29.8932 52.0361 29.6289L 52.2686 29.0205L 49.6777 21.6035L 51.8037 21.6035L 53.1777 26.2041ZM 60.3418 26.2725L 59.5488 26.2725L 59.5488 29L 57.5732 29L 57.5732 21.6035L 59.5488 21.6035L 59.5488 24.3857L 60.2529 24.3857L 61.8662 21.6035L 64.3613 21.6035L 61.9414 25.124L 64.5869 29L 61.9551 29L 60.3418 26.2725ZM 71.4707 23.1895L 69.0986 23.1895L 69.0986 29L 67.1162 29L 67.1162 23.1895L 64.7852 23.1895L 64.7852 21.6035L 71.4707 21.6035L 71.4707 23.1895ZM 75.3125 26.2041L 76.6797 21.6035L 78.7988 21.6035L 75.8252 30.1484L 75.6611 30.5381C 75.2191 31.5042 74.4899 31.9873 73.4736 31.9873C 73.1865 31.9873 72.8949 31.944 72.5986 31.8574L 72.5986 30.3604L 72.8994 30.3672C 73.2731 30.3672 73.5511 30.3102 73.7334 30.1963C 73.9202 30.0824 74.0661 29.8932 74.1709 29.6289L 74.4033 29.0205L 71.8125 21.6035L 73.9385 21.6035L 75.3125 26.2041Z"/>
<path id="path8_fill" d="M 20.9512 9.68457C 20.8737 10.7555 20.4772 11.5986 19.7617 12.2139C 19.0508 12.8291 18.112 13.1367 16.9453 13.1367C 15.6693 13.1367 14.6644 12.7083 13.9307 11.8516C 13.2015 10.9902 12.8369 9.8099 12.8369 8.31055L 12.8369 7.70215C 12.8369 6.74512 13.0055 5.90202 13.3428 5.17285C 13.68 4.44369 14.1608 3.88542 14.7852 3.49805C 15.4141 3.10612 16.1432 2.91016 16.9727 2.91016C 18.1211 2.91016 19.0462 3.21777 19.748 3.83301C 20.4499 4.44824 20.8555 5.31185 20.9648 6.42383L 18.9141 6.42383C 18.8639 5.78125 18.6839 5.31641 18.374 5.0293C 18.0687 4.73763 17.6016 4.5918 16.9727 4.5918C 16.2891 4.5918 15.7764 4.83789 15.4346 5.33008C 15.0973 5.81771 14.9242 6.5765 14.915 7.60645L 14.915 8.3584C 14.915 9.43392 15.0768 10.2201 15.4004 10.7168C 15.7285 11.2135 16.2435 11.4619 16.9453 11.4619C 17.5788 11.4619 18.0505 11.3184 18.3604 11.0312C 18.6748 10.7396 18.8548 10.2907 18.9004 9.68457L 20.9512 9.68457ZM 28.6006 13L 26.6182 13L 26.6182 7.20312L 24.1436 7.20312L 24.1436 13L 22.168 13L 22.168 5.60352L 28.6006 5.60352L 28.6006 13ZM 36.7695 9.37012C 36.7695 10.5094 36.5098 11.4232 35.9902 12.1113C 35.4753 12.7949 34.778 13.1367 33.8984 13.1367C 33.151 13.1367 32.5472 12.877 32.0869 12.3574L 32.0869 15.8438L 30.1113 15.8438L 30.1113 5.60352L 31.9434 5.60352L 32.0117 6.32812C 32.4902 5.75391 33.1146 5.4668 33.8848 5.4668C 34.7962 5.4668 35.5049 5.80404 36.0107 6.47852C 36.5166 7.15299 36.7695 8.08268 36.7695 9.26758L 36.7695 9.37012ZM 34.7939 9.22656C 34.7939 8.53841 34.6709 8.00749 34.4248 7.63379C 34.1833 7.26009 33.8301 7.07324 33.3652 7.07324C 32.7454 7.07324 32.3193 7.31022 32.0869 7.78418L 32.0869 10.8125C 32.3285 11.3001 32.7591 11.5439 33.3789 11.5439C 34.3223 11.5439 34.7939 10.7715 34.7939 9.22656ZM 42.457 5.60352L 44.4326 5.60352L 44.4326 13L 42.457 13L 42.457 8.43359L 39.9824 13L 38 13L 38 5.60352L 39.9824 5.60352L 39.9824 10.1631L 42.457 5.60352ZM 52.3555 13L 50.373 13L 50.373 10.1562L 47.9189 10.1562L 47.9189 13L 45.9434 13L 45.9434 5.60352L 47.9189 5.60352L 47.9189 8.57031L 50.373 8.57031L 50.373 5.60352L 52.3555 5.60352L 52.3555 13ZM 60.0254 7.18945L 57.6533 7.18945L 57.6533 13L 55.6709 13L 55.6709 7.18945L 53.3398 7.18945L 53.3398 5.60352L 60.0254 5.60352L 60.0254 7.18945ZM 17.6768 23.5791C 17.6768 24.4268 17.4648 25.1149 17.041 25.6436C 16.6172 26.1722 16.0703 26.4365 15.4004 26.4365C 15.0632 26.4365 14.7487 26.3727 14.457 26.2451C 14.1699 26.113 13.8372 25.8669 13.459 25.5068C 13.0807 25.1423 12.7321 24.96 12.4131 24.96C 12.1488 24.96 11.9346 25.0739 11.7705 25.3018C 11.6064 25.5296 11.5244 25.8213 11.5244 26.1768L 10.0547 26.1631C 10.0547 25.3154 10.2598 24.6341 10.6699 24.1191C 11.0846 23.6042 11.6338 23.3467 12.3174 23.3467C 12.6729 23.3467 12.9964 23.415 13.2881 23.5518C 13.5798 23.6885 13.9102 23.9346 14.2793 24.29C 14.653 24.641 14.9925 24.8164 15.2979 24.8164C 15.5667 24.8164 15.7855 24.6956 15.9541 24.4541C 16.1273 24.2126 16.2139 23.9186 16.2139 23.5723L 17.6768 23.5791ZM 21.0947 23.1484L 22.1475 23.1484C 22.6488 23.1484 23.0202 23.0231 23.2617 22.7725C 23.5033 22.5218 23.624 22.1891 23.624 21.7744C 23.624 21.3734 23.5033 21.0612 23.2617 20.8379C 23.0247 20.6146 22.6966 20.5029 22.2773 20.5029C 21.8991 20.5029 21.5824 20.6077 21.3271 20.8174C 21.0719 21.0225 20.9443 21.2913 20.9443 21.624L 18.9688 21.624C 18.9688 21.1045 19.1077 20.6396 19.3857 20.2295C 19.6683 19.8148 20.0602 19.4912 20.5615 19.2588C 21.0674 19.0264 21.6234 18.9102 22.2295 18.9102C 23.2822 18.9102 24.1071 19.1631 24.7041 19.6689C 25.3011 20.1702 25.5996 20.863 25.5996 21.7471C 25.5996 22.2028 25.4606 22.6221 25.1826 23.0049C 24.9046 23.3877 24.54 23.6816 24.0889 23.8867C 24.6494 24.0872 25.0664 24.388 25.3398 24.7891C 25.6178 25.1901 25.7568 25.6641 25.7568 26.2109C 25.7568 27.0951 25.4333 27.8037 24.7861 28.3369C 24.1436 28.8701 23.2913 29.1367 22.2295 29.1367C 21.236 29.1367 20.4225 28.8747 19.7891 28.3506C 19.1602 27.8265 18.8457 27.1338 18.8457 26.2725L 20.8213 26.2725C 20.8213 26.6462 20.9603 26.9515 21.2383 27.1885C 21.5208 27.4255 21.8672 27.5439 22.2773 27.5439C 22.7467 27.5439 23.1136 27.4209 23.3779 27.1748C 23.6468 26.9242 23.7812 26.5938 23.7812 26.1836C 23.7812 25.1901 23.2344 24.6934 22.1406 24.6934L 21.0947 24.6934L 21.0947 23.1484ZM 33.8232 24.8848C 33.8232 26.2611 33.5384 27.3138 32.9688 28.043C 32.3991 28.7721 31.5651 29.1367 30.4668 29.1367C 29.3822 29.1367 28.5527 28.779 27.9785 28.0635C 27.4043 27.348 27.1104 26.3226 27.0967 24.9873L 27.0967 23.1553C 27.0967 21.7653 27.3838 20.7103 27.958 19.9902C 28.5368 19.2702 29.3685 18.9102 30.4531 18.9102C 31.5378 18.9102 32.3672 19.2679 32.9414 19.9834C 33.5156 20.6943 33.8096 21.7174 33.8232 23.0527L 33.8232 24.8848ZM 31.8477 22.875C 31.8477 22.0501 31.7337 21.4508 31.5059 21.0771C 31.2826 20.6989 30.9316 20.5098 30.4531 20.5098C 29.9883 20.5098 29.6442 20.6898 29.4209 21.0498C 29.2021 21.4053 29.0859 21.9635 29.0723 22.7246L 29.0723 25.1445C 29.0723 25.9557 29.1816 26.5596 29.4004 26.9561C 29.6237 27.348 29.9792 27.5439 30.4668 27.5439C 30.9499 27.5439 31.2985 27.3548 31.5127 26.9766C 31.7269 26.5983 31.8385 26.0195 31.8477 25.2402L 31.8477 22.875ZM 38.834 27.4072C 39.2806 26.9333 39.5837 26.4639 39.7432 25.999C 39.9027 25.5342 39.9915 24.8757 40.0098 24.0234L 40.0645 21.6035L 45.5059 21.6035L 45.5059 27.4072L 46.5723 27.4072L 46.5723 31.2217L 44.5967 31.2217L 44.5967 29L 40.2148 29L 40.2148 31.2217L 38.1982 31.2217L 38.1982 27.4072L 38.834 27.4072ZM 41.165 27.4072L 43.5371 27.4072L 43.5371 23.2373L 41.999 23.2373L 41.9854 24.126C 41.9443 25.484 41.6709 26.5778 41.165 27.4072ZM 53.8662 29L 51.8838 29L 51.8838 26.1562L 49.4297 26.1562L 49.4297 29L 47.4541 29L 47.4541 21.6035L 49.4297 21.6035L 49.4297 24.5703L 51.8838 24.5703L 51.8838 21.6035L 53.8662 21.6035L 53.8662 29ZM 58.8018 29.1367C 57.7171 29.1367 56.833 28.804 56.1494 28.1387C 55.4704 27.4733 55.1309 26.5869 55.1309 25.4795L 55.1309 25.2881C 55.1309 24.5452 55.2744 23.8822 55.5615 23.2988C 55.8486 22.7109 56.2542 22.2598 56.7783 21.9453C 57.307 21.6263 57.9085 21.4668 58.583 21.4668C 59.5947 21.4668 60.39 21.7858 60.9688 22.4238C 61.5521 23.0618 61.8438 23.9665 61.8438 25.1377L 61.8438 25.9443L 57.1338 25.9443C 57.1976 26.4274 57.389 26.8148 57.708 27.1064C 58.0316 27.3981 58.4395 27.5439 58.9316 27.5439C 59.6927 27.5439 60.2874 27.2682 60.7158 26.7168L 61.6865 27.8037C 61.3903 28.223 60.9893 28.5511 60.4834 28.7881C 59.9775 29.0205 59.417 29.1367 58.8018 29.1367ZM 58.5762 23.0664C 58.1842 23.0664 57.8652 23.1986 57.6191 23.4629C 57.3776 23.7272 57.2227 24.1055 57.1543 24.5977L 59.9023 24.5977L 59.9023 24.4404C 59.8932 24.0029 59.7747 23.6657 59.5469 23.4287C 59.319 23.1872 58.9954 23.0664 58.5762 23.0664ZM 67.4287 21.6035L 69.4043 21.6035L 69.4043 29L 67.4287 29L 67.4287 24.4336L 64.9541 29L 62.9717 29L 62.9717 21.6035L 64.9541 21.6035L 64.9541 26.1631L 67.4287 21.6035ZM 68.5908 18.6025C 68.5908 19.2087 68.3721 19.6986 67.9346 20.0723C 67.5016 20.446 66.932 20.6328 66.2256 20.6328C 65.5192 20.6328 64.9473 20.4482 64.5098 20.0791C 64.0768 19.71 63.8604 19.2178 63.8604 18.6025L 65.2617 18.6025C 65.2617 18.8896 65.346 19.113 65.5146 19.2725C 65.6878 19.4274 65.9248 19.5049 66.2256 19.5049C 66.5218 19.5049 66.7542 19.4274 66.9229 19.2725C 67.0915 19.113 67.1758 18.8896 67.1758 18.6025L 68.5908 18.6025Z"/>
<path id="path9_fill" d="M 14.9141 8.68652L 10.9766 8.68652L 10.9766 11.3525L 15.5977 11.3525L 15.5977 13L 8.92578 13L 8.92578 3.04688L 15.584 3.04688L 15.584 4.70801L 10.9766 4.70801L 10.9766 7.08008L 14.9141 7.08008L 14.9141 8.68652ZM 23.7871 10.2588L 22.8916 10.2588L 22.8916 13L 20.916 13L 20.916 10.2588L 20.0342 10.2588L 18.5645 13L 16.1787 13L 18.5098 9.13086L 16.2061 5.60352L 18.6533 5.60352L 20.1914 8.36523L 20.916 8.36523L 20.916 5.60352L 22.8916 5.60352L 22.8916 8.36523L 23.6299 8.36523L 25.1748 5.60352L 27.6221 5.60352L 25.332 9.08301L 27.6836 13L 25.2568 13L 23.7871 10.2588ZM 31.9014 13.1367C 30.8167 13.1367 29.9326 12.804 29.249 12.1387C 28.57 11.4733 28.2305 10.5869 28.2305 9.47949L 28.2305 9.28809C 28.2305 8.54525 28.374 7.88216 28.6611 7.29883C 28.9482 6.71094 29.3538 6.25977 29.8779 5.94531C 30.4066 5.6263 31.0081 5.4668 31.6826 5.4668C 32.6943 5.4668 33.4896 5.78581 34.0684 6.42383C 34.6517 7.06185 34.9434 7.96647 34.9434 9.1377L 34.9434 9.94434L 30.2334 9.94434C 30.2972 10.4274 30.4886 10.8148 30.8076 11.1064C 31.1312 11.3981 31.5391 11.5439 32.0312 11.5439C 32.7923 11.5439 33.387 11.2682 33.8154 10.7168L 34.7861 11.8037C 34.4899 12.223 34.0889 12.5511 33.583 12.7881C 33.0771 13.0205 32.5166 13.1367 31.9014 13.1367ZM 31.6758 7.06641C 31.2839 7.06641 30.9648 7.19857 30.7188 7.46289C 30.4772 7.72721 30.3223 8.10547 30.2539 8.59766L 33.002 8.59766L 33.002 8.44043C 32.9928 8.00293 32.8743 7.66569 32.6465 7.42871C 32.4186 7.18717 32.0951 7.06641 31.6758 7.06641ZM 36.1738 11.4072C 36.6204 10.9333 36.9235 10.4639 37.083 9.99902C 37.2425 9.53418 37.3314 8.87565 37.3496 8.02344L 37.4043 5.60352L 42.8457 5.60352L 42.8457 11.4072L 43.9121 11.4072L 43.9121 15.2217L 41.9365 15.2217L 41.9365 13L 37.5547 13L 37.5547 15.2217L 35.5381 15.2217L 35.5381 11.4072L 36.1738 11.4072ZM 38.5049 11.4072L 40.877 11.4072L 40.877 7.2373L 39.3389 7.2373L 39.3252 8.12598C 39.2842 9.48405 39.0107 10.5778 38.5049 11.4072ZM 51.2061 13L 49.2236 13L 49.2236 10.1562L 46.7695 10.1562L 46.7695 13L 44.7939 13L 44.7939 5.60352L 46.7695 5.60352L 46.7695 8.57031L 49.2236 8.57031L 49.2236 5.60352L 51.2061 5.60352L 51.2061 13ZM 56.1416 13.1367C 55.057 13.1367 54.1729 12.804 53.4893 12.1387C 52.8102 11.4733 52.4707 10.5869 52.4707 9.47949L 52.4707 9.28809C 52.4707 8.54525 52.6143 7.88216 52.9014 7.29883C 53.1885 6.71094 53.5941 6.25977 54.1182 5.94531C 54.6468 5.6263 55.2484 5.4668 55.9229 5.4668C 56.9346 5.4668 57.7298 5.78581 58.3086 6.42383C 58.8919 7.06185 59.1836 7.96647 59.1836 9.1377L 59.1836 9.94434L 54.4736 9.94434C 54.5374 10.4274 54.7288 10.8148 55.0479 11.1064C 55.3714 11.3981 55.7793 11.5439 56.2715 11.5439C 57.0326 11.5439 57.6273 11.2682 58.0557 10.7168L 59.0264 11.8037C 58.7301 12.223 58.3291 12.5511 57.8232 12.7881C 57.3174 13.0205 56.7568 13.1367 56.1416 13.1367ZM 55.916 7.06641C 55.5241 7.06641 55.2051 7.19857 54.959 7.46289C 54.7174 7.72721 54.5625 8.10547 54.4941 8.59766L 57.2422 8.59766L 57.2422 8.44043C 57.2331 8.00293 57.1146 7.66569 56.8867 7.42871C 56.6589 7.18717 56.3353 7.06641 55.916 7.06641ZM 60.4414 13L 60.4414 5.60352L 63.5312 5.60352C 64.5384 5.60352 65.3109 5.78125 65.8486 6.13672C 66.3864 6.49219 66.6553 7.0026 66.6553 7.66797C 66.6553 8.00977 66.5413 8.31738 66.3135 8.59082C 66.0902 8.8597 65.762 9.06706 65.3291 9.21289C 65.8577 9.31315 66.2725 9.51139 66.5732 9.80762C 66.8786 10.0993 67.0312 10.4593 67.0312 10.8877C 67.0312 11.5758 66.7715 12.0999 66.252 12.46C 65.737 12.82 64.9873 13 64.0029 13L 60.4414 13ZM 62.417 9.93066L 62.417 11.4209L 64.0098 11.4209C 64.707 11.4209 65.0557 11.1771 65.0557 10.6895C 65.0557 10.1927 64.723 9.93978 64.0576 9.93066L 62.417 9.93066ZM 62.417 8.60449L 63.6406 8.60449C 64.3333 8.59538 64.6797 8.37207 64.6797 7.93457C 64.6797 7.66569 64.584 7.47428 64.3926 7.36035C 64.2057 7.24642 63.9186 7.18945 63.5312 7.18945L 62.417 7.18945L 62.417 8.60449ZM 74.6533 13L 72.6709 13L 72.6709 10.1562L 70.2168 10.1562L 70.2168 13L 68.2412 13L 68.2412 5.60352L 70.2168 5.60352L 70.2168 8.57031L 72.6709 8.57031L 72.6709 5.60352L 74.6533 5.60352L 74.6533 13ZM 78.2969 7.77051L 79.7119 7.77051C 80.3499 7.77051 80.9105 7.8776 81.3936 8.0918C 81.8766 8.30599 82.2458 8.61361 82.501 9.01465C 82.7607 9.41113 82.8906 9.8737 82.8906 10.4023C 82.8906 11.1816 82.6012 11.8105 82.0225 12.2891C 81.4482 12.763 80.6644 13 79.6709 13L 76.3145 13L 76.3145 5.60352L 78.2969 5.60352L 78.2969 7.77051ZM 86.0352 13L 84.0596 13L 84.0596 5.60352L 86.0352 5.60352L 86.0352 13ZM 78.2969 9.35645L 78.2969 11.4209L 79.6982 11.4209C 80.0902 11.4209 80.391 11.3298 80.6006 11.1475C 80.8102 10.9652 80.915 10.7168 80.915 10.4023C 80.915 10.0833 80.8125 9.8304 80.6074 9.64355C 80.4023 9.45215 80.0993 9.35645 79.6982 9.35645L 78.2969 9.35645ZM 92.2354 5.60352L 94.2109 5.60352L 94.2109 13L 92.2354 13L 92.2354 8.43359L 89.7607 13L 87.7783 13L 87.7783 5.60352L 89.7607 5.60352L 89.7607 10.1631L 92.2354 5.60352ZM 93.3975 2.60254C 93.3975 3.20866 93.1787 3.69857 92.7412 4.07227C 92.3083 4.44596 91.7386 4.63281 91.0322 4.63281C 90.3258 4.63281 89.7539 4.44824 89.3164 4.0791C 88.8835 3.70996 88.667 3.21777 88.667 2.60254L 90.0684 2.60254C 90.0684 2.88965 90.1527 3.11296 90.3213 3.27246C 90.4945 3.42741 90.7314 3.50488 91.0322 3.50488C 91.3285 3.50488 91.5609 3.42741 91.7295 3.27246C 91.8981 3.11296 91.9824 2.88965 91.9824 2.60254L 93.3975 2.60254ZM 33.0293 26.6689L 34.9639 21.6035L 37.4385 21.6035L 37.4385 29L 35.4629 29L 35.4629 24.4609L 33.6924 29L 32.3662 29L 30.6299 24.5361L 30.6299 29L 28.6543 29L 28.6543 21.6035L 31.1084 21.6035L 33.0293 26.6689ZM 43.6182 21.6035L 45.5938 21.6035L 45.5938 29L 43.6182 29L 43.6182 24.4336L 41.1436 29L 39.1611 29L 39.1611 21.6035L 41.1436 21.6035L 41.1436 26.1631L 43.6182 21.6035ZM 53.2432 23.1895L 50.8711 23.1895L 50.8711 29L 48.8887 29L 48.8887 23.1895L 46.5576 23.1895L 46.5576 21.6035L 53.2432 21.6035L 53.2432 23.1895ZM 58.6982 21.6035L 60.6738 21.6035L 60.6738 29L 58.6982 29L 58.6982 24.4336L 56.2236 29L 54.2412 29L 54.2412 21.6035L 56.2236 21.6035L 56.2236 26.1631L 58.6982 21.6035ZM 68.5967 29L 66.6143 29L 66.6143 26.1562L 64.1602 26.1562L 64.1602 29L 62.1846 29L 62.1846 21.6035L 64.1602 21.6035L 64.1602 24.5703L 66.6143 24.5703L 66.6143 21.6035L 68.5967 21.6035L 68.5967 29ZM 75.166 23.2031L 72.1035 23.2031L 72.1035 29L 70.1279 29L 70.1279 21.6035L 75.166 21.6035L 75.166 23.2031Z"/>
</defs>
</svg>
