<svg width="669" height="360" viewBox="0 0 669 360" version="1.1" xmlns="http://www.w3.org/2000/svg" xmlns:xlink="http://www.w3.org/1999/xlink">
<title>&#208;&#161;&#208;&#187;&#208;&#190;&#208;&#185;_4</title>
<desc>Created using Figma</desc>
<g id="Canvas" transform="translate(906 -749)">
<g id="&#208;&#161;&#208;&#187;&#208;&#190;&#208;&#185;_4">
<g id="Vector">
<use xlink:href="#path0_fill" transform="translate(-719.6 749)" fill="url(#paint0_linear)"/>
</g>
<g id="Vector">
<use xlink:href="#path1_fill" transform="translate(-529.6 759.7)" fill="url(#paint1_linear)"/>
</g>
<g id="Vector">
<use xlink:href="#path2_fill" transform="translate(-458.2 949.7)" fill="url(#paint2_linear)"/>
</g>
<g id="Vector">
<use xlink:href="#path3_fill" transform="translate(-880.9 808.1)" fill="url(#paint3_linear)"/>
</g>
<g id="Vector">
<use xlink:href="#path4_fill" transform="translate(-730.6 907.3)" fill="url(#paint4_linear)"/>
</g>
<g id="Vector">
<use xlink:href="#path5_fill" transform="translate(-572.1 949.7)" fill="url(#paint5_linear)"/>
</g>
<g id="Component">
<g id="&#208;&#146;&#208;&#181;&#209;&#128;&#209;&#129;&#208;&#184;&#209;&#143; N">
<use xlink:href="#path6_fill" transform="translate(-652 888.2)" fill="#FFFFFF"/>
</g>
<g id="&#208;&#152;&#209;&#129;&#208;&#191;&#208;&#190;&#208;&#187;&#208;&#189;&#208;&#181;&#208;&#189;&#208;&#184;&#208;&#181;">
<use xlink:href="#path7_fill" transform="translate(-461 815.2)" fill="#FFFFFF"/>
</g>
<g id="&#208;&#159;&#209;&#128;&#208;&#190;&#208;&#181;&#208;&#186;&#209;&#130;&#208;&#184;&#209;&#128;&#208;&#190;&#208;&#178;&#208;&#176;&#208;&#189;&#208;&#184;&#208;&#181;">
<use xlink:href="#path8_fill" transform="translate(-529 750.2)" fill="#FFFFFF"/>
</g>
<g id="&#208;&#159;&#208;&#187;&#208;&#176;&#208;&#189;&#208;&#184;&#209;&#128;&#208;&#190;&#208;&#178;&#208;&#176;&#208;&#189;&#208;&#184;&#208;&#181;">
<use xlink:href="#path9_fill" transform="translate(-820 815.2)" fill="#FFFFFF"/>
</g>
<g id="&#208;&#162;&#209;&#128;&#208;&#181;&#208;&#177;&#208;&#190;&#208;&#178;&#208;&#176;&#208;&#189;&#208;&#184;&#209;&#143;">
<use xlink:href="#path10_fill" transform="translate(-761 748.2)" fill="#FFFFFF"/>
</g>
<g id="&#208;&#157;&#208;&#176;&#209;&#135;&#208;&#176;&#208;&#187;&#209;&#140;&#208;&#189;&#208;&#190;&#208;&#181; &#208;&#191;&#208;&#187;&#208;&#176;&#208;&#189;&#208;&#184;&#209;&#128;&#208;&#190;&#208;&#178;&#208;&#176;&#208;&#189;&#208;&#184;&#208;&#181;">
<use xlink:href="#path11_fill" transform="translate(-906 919.2)" fill="#FFFFFF"/>
</g>
<g id="&#208;&#158;&#209;&#134;&#208;&#181;&#208;&#189;&#208;&#186;&#208;&#176;">
<use xlink:href="#path12_fill" transform="translate(-750 1001.2)" fill="#FFFFFF"/>
</g>
<g id="&#208;&#160;&#208;&#176;&#208;&#183;&#208;&#178;&#208;&#181;&#209;&#128;&#209;&#130;&#209;&#139;&#208;&#178;&#208;&#176;&#208;&#189;&#208;&#184;&#208;&#181;">
<use xlink:href="#path13_fill" transform="translate(-397 963.2)" fill="#FFFFFF"/>
</g>
<g id="&#208;&#162;&#208;&#181;&#209;&#129;&#209;&#130;&#208;&#184;&#209;&#128;&#208;&#190;&#208;&#178;&#208;&#176;&#208;&#189;&#208;&#184;&#208;&#181;">
<use xlink:href="#path14_fill" transform="translate(-479 1059.2)" fill="#FFFFFF"/>
</g>
</g>
</g>
</g>
<defs>
<linearGradient id="paint0_linear" x1="0" y1="0" x2="1" y2="0" gradientUnits="userSpaceOnUse" gradientTransform="matrix(150.451 0 0 150.451 -0.0071 -15.8452)">
<stop offset="0" stop-color="#0E4468"/>
<stop offset="1" stop-color="#088DC1"/>
</linearGradient>
<linearGradient id="paint1_linear" x1="0" y1="0" x2="1" y2="0" gradientUnits="userSpaceOnUse" gradientTransform="matrix(119.022 0 0 119.022 -0.0354 15.7185)">
<stop offset="0" stop-color="#0E4468"/>
<stop offset="1" stop-color="#088DC1"/>
</linearGradient>
<linearGradient id="paint2_linear" x1="0" y1="0" x2="1" y2="0" gradientUnits="userSpaceOnUse" gradientTransform="matrix(-150.449 0 0 150.449 150.361 -15.6162)">
<stop offset="0" stop-color="#0E4468"/>
<stop offset="1" stop-color="#088DC1"/>
</linearGradient>
<linearGradient id="paint3_linear" x1="0" y1="0" x2="1" y2="0" gradientUnits="userSpaceOnUse" gradientTransform="matrix(-150.449 0 0 150.449 150.387 -15.5973)">
<stop offset="0" stop-color="#0E4468"/>
<stop offset="1" stop-color="#088DC1"/>
</linearGradient>
<linearGradient id="paint4_linear" x1="0" y1="0" x2="1" y2="0" gradientUnits="userSpaceOnUse" gradientTransform="matrix(118.931 0 0 118.931 0.0867 15.7067)">
<stop offset="0" stop-color="#0E4468"/>
<stop offset="1" stop-color="#088DC1"/>
</linearGradient>
<linearGradient id="paint5_linear" x1="0" y1="0" x2="1" y2="0" gradientUnits="userSpaceOnUse" gradientTransform="matrix(150.449 0 0 150.449 0.0369 -15.6162)">
<stop offset="0" stop-color="#0E4468"/>
<stop offset="1" stop-color="#088DC1"/>
</linearGradient>
<path id="path0_fill" d="M 150.4 30L 108 3.05176e-06L 108 10.7C 55.6 25.1 14.4 66.3 3.05176e-06 118.7L 37.7 118.7C 43.5 102.8 52.8 88.2 65.2 75.9C 77.5 63.6 92.1 54.3 108 48.4L 108 60L 150.4 30Z"/>
<path id="path1_fill" d="M 108 108C 93.6 55.6 52.4 14.4 -1.2207e-05 0L -1.2207e-05 37.7C 15.9 43.5 30.5 52.8 42.8 65.2C 55.1 77.5 64.4 92.1 70.3 108L 59 108L 89 150.4L 119 108L 108 108Z"/>
<path id="path2_fill" d="M 37.7 0C 43.5 15.9 52.8 30.5 65.2 42.8C 77.5 55.1 92.1 64.4 108 70.3L 108 59.3L 150.4 89.3L 108 119.3L 108 108C 55.6 93.6 14.4 52.4 1.2207e-05 0L 37.7 0Z"/>
<path id="path3_fill" d="M 37.7 -6.10352e-06C 43.5 15.9 52.8 30.5 65.2 42.8C 77.5 55.1 92.1 64.4 108 70.3L 108 59.3L 150.4 89.3L 108 119.3L 108 108.1C 55.6 93.7 14.4 52.5 0 0.1L 37.7 0.1L 37.7 -6.10352e-06Z"/>
<path id="path4_fill" d="M 76.2 85.2C 63.9 72.9 54.6 58.3 48.7 42.4L 60 42.4L 30 6.10352e-06L 3.05176e-06 42.4L 10.9 42.4C 25.3 94.8 66.5 136 118.9 150.4L 118.9 112.7C 103.1 106.8 88.5 97.5 76.2 85.2Z"/>
<path id="path5_fill" d="M 112.7 0C 106.9 15.9 97.6 30.5 85.2 42.8C 72.9 55.1 58.3 64.4 42.4 70.3L 42.4 59.3L -1.2207e-05 89.3L 42.4 119.3L 42.4 108C 94.8 93.6 136 52.4 150.4 0L 112.7 0Z"/>
<path id="path6_fill" d="M 2.28516 33L 2.28516 7.40625L 11.25 7.40625C 14.3555 7.40625 16.7109 8.00391 18.3164 9.19922C 19.9219 10.3828 20.7246 12.123 20.7246 14.4199C 20.7246 15.6738 20.4023 16.7812 19.7578 17.7422C 19.1133 18.6914 18.2168 19.3887 17.0684 19.834C 18.3809 20.1621 19.4121 20.8242 20.1621 21.8203C 20.9238 22.8164 21.3047 24.0352 21.3047 25.4766C 21.3047 27.9375 20.5195 29.8008 18.9492 31.0664C 17.3789 32.332 15.1406 32.9766 12.2344 33L 2.28516 33ZM 7.55859 21.8555L 7.55859 28.7637L 12.0762 28.7637C 13.3184 28.7637 14.2852 28.4707 14.9766 27.8848C 15.6797 27.2871 16.0312 26.4668 16.0312 25.4238C 16.0312 23.0801 14.8184 21.8906 12.3926 21.8555L 7.55859 21.8555ZM 7.55859 18.1289L 11.4609 18.1289C 14.1211 18.082 15.4512 17.0215 15.4512 14.9473C 15.4512 13.7871 15.1113 12.9551 14.4316 12.4512C 13.7637 11.9355 12.7031 11.6777 11.25 11.6777L 7.55859 11.6777L 7.55859 18.1289ZM 33.6973 33.3516C 30.9082 33.3516 28.6348 32.4961 26.877 30.7852C 25.1309 29.0742 24.2578 26.7949 24.2578 23.9473L 24.2578 23.4551C 24.2578 21.5449 24.627 19.8398 25.3652 18.3398C 26.1035 16.8281 27.1465 15.668 28.4941 14.8594C 29.8535 14.0391 31.4004 13.6289 33.1348 13.6289C 35.7363 13.6289 37.7812 14.4492 39.2695 16.0898C 40.7695 17.7305 41.5195 20.0566 41.5195 23.0684L 41.5195 25.1426L 29.4082 25.1426C 29.5723 26.3848 30.0645 27.3809 30.8848 28.1309C 31.7168 28.8809 32.7656 29.2559 34.0312 29.2559C 35.9883 29.2559 37.5176 28.5469 38.6191 27.1289L 41.1152 29.9238C 40.3535 31.002 39.3223 31.8457 38.0215 32.4551C 36.7207 33.0527 35.2793 33.3516 33.6973 33.3516ZM 33.1172 17.7422C 32.1094 17.7422 31.2891 18.082 30.6562 18.7617C 30.0352 19.4414 29.6367 20.4141 29.4609 21.6797L 36.5273 21.6797L 36.5273 21.2754C 36.5039 20.1504 36.1992 19.2832 35.6133 18.6738C 35.0273 18.0527 34.1953 17.7422 33.1172 17.7422ZM 61.541 23.666C 61.541 26.5957 60.873 28.9453 59.5371 30.7148C 58.2129 32.4727 56.4199 33.3516 54.1582 33.3516C 52.2363 33.3516 50.6836 32.6836 49.5 31.3477L 49.5 40.3125L 44.4199 40.3125L 44.4199 13.9805L 49.1309 13.9805L 49.3066 15.8438C 50.5371 14.3672 52.1426 13.6289 54.123 13.6289C 56.4668 13.6289 58.2891 14.4961 59.5898 16.2305C 60.8906 17.9648 61.541 20.3555 61.541 23.4023L 61.541 23.666ZM 56.4609 23.2969C 56.4609 21.5273 56.1445 20.1621 55.5117 19.2012C 54.8906 18.2402 53.9824 17.7598 52.7871 17.7598C 51.1934 17.7598 50.0977 18.3691 49.5 19.5879L 49.5 27.375C 50.1211 28.6289 51.2285 29.2559 52.8223 29.2559C 55.248 29.2559 56.4609 27.2695 56.4609 23.2969ZM 72.6152 29.2559C 73.5527 29.2559 74.3145 28.998 74.9004 28.4824C 75.4863 27.9668 75.791 27.2812 75.8145 26.4258L 80.5781 26.4258C 80.5664 27.7148 80.2148 28.8984 79.5234 29.9766C 78.832 31.043 77.8828 31.875 76.6758 32.4727C 75.4805 33.0586 74.1563 33.3516 72.7031 33.3516C 69.9844 33.3516 67.8398 32.4902 66.2695 30.7676C 64.6992 29.0332 63.9141 26.6426 63.9141 23.5957L 63.9141 23.2617C 63.9141 20.332 64.6934 17.9941 66.252 16.248C 67.8105 14.502 69.9492 13.6289 72.668 13.6289C 75.0469 13.6289 76.9512 14.3086 78.3809 15.668C 79.8223 17.0156 80.5547 18.8145 80.5781 21.0645L 75.8145 21.0645C 75.791 20.0801 75.4863 19.2832 74.9004 18.6738C 74.3145 18.0527 73.541 17.7422 72.5801 17.7422C 71.3965 17.7422 70.5 18.1758 69.8906 19.043C 69.293 19.8984 68.9941 21.293 68.9941 23.2266L 68.9941 23.7539C 68.9941 25.7109 69.293 27.1172 69.8906 27.9727C 70.4883 28.8281 71.3965 29.2559 72.6152 29.2559ZM 94.9395 13.9805L 100.02 13.9805L 100.02 33L 94.9395 33L 94.9395 21.2578L 88.5762 33L 83.4785 33L 83.4785 13.9805L 88.5762 13.9805L 88.5762 25.7051L 94.9395 13.9805ZM 119.76 13.9805L 119.76 33L 114.697 33L 114.697 26.4258L 111.48 26.4258L 107.824 33L 102.674 33L 106.822 25.5645C 105.686 25.0371 104.807 24.3223 104.186 23.4199C 103.576 22.5176 103.271 21.4922 103.271 20.3438C 103.271 18.5039 103.98 16.998 105.398 15.8262C 106.828 14.6426 108.738 14.0273 111.129 13.9805L 119.76 13.9805ZM 111.217 22.875L 114.697 22.875L 114.697 18.0586L 111.393 18.0586C 110.49 18.0586 109.758 18.2988 109.195 18.7793C 108.633 19.248 108.352 19.8223 108.352 20.502C 108.352 21.1816 108.621 21.7441 109.16 22.1895C 109.699 22.6348 110.385 22.8633 111.217 22.875ZM 154.16 33L 148.887 33L 138.621 16.1602L 138.621 33L 133.348 33L 133.348 7.40625L 138.621 7.40625L 148.904 24.2812L 148.904 7.40625L 154.16 7.40625L 154.16 33Z"/>
<path id="path7_fill" d="M 49.9619 3.04688L 52.0195 3.04688L 52.0195 13L 49.9619 13L 49.9619 6.38965L 45.9766 13L 43.9258 13L 43.9258 3.04688L 45.9766 3.04688L 45.9766 9.6709L 49.9619 3.04688ZM 56.7432 11.5439C 57.1077 11.5439 57.404 11.4437 57.6318 11.2432C 57.8597 11.0426 57.9782 10.776 57.9873 10.4434L 59.8398 10.4434C 59.8353 10.9447 59.6986 11.4049 59.4297 11.8242C 59.1608 12.2389 58.7917 12.5625 58.3223 12.7949C 57.8574 13.0228 57.3424 13.1367 56.7773 13.1367C 55.7201 13.1367 54.8861 12.8018 54.2754 12.1318C 53.6647 11.4574 53.3594 10.5277 53.3594 9.34277L 53.3594 9.21289C 53.3594 8.07357 53.6624 7.16439 54.2686 6.48535C 54.8747 5.80631 55.7064 5.4668 56.7637 5.4668C 57.6888 5.4668 58.4294 5.73112 58.9854 6.25977C 59.5459 6.78385 59.8307 7.4834 59.8398 8.3584L 57.9873 8.3584C 57.9782 7.97559 57.8597 7.66569 57.6318 7.42871C 57.404 7.18717 57.1032 7.06641 56.7295 7.06641C 56.2692 7.06641 55.9206 7.23503 55.6836 7.57227C 55.4512 7.90495 55.335 8.44727 55.335 9.19922L 55.335 9.4043C 55.335 10.1654 55.4512 10.7122 55.6836 11.0449C 55.916 11.3776 56.2692 11.5439 56.7432 11.5439ZM 67.4004 13L 65.418 13L 65.418 7.20312L 62.9434 7.20312L 62.9434 13L 60.9678 13L 60.9678 5.60352L 67.4004 5.60352L 67.4004 13ZM 68.6035 9.2334C 68.6035 8.49967 68.7448 7.8457 69.0273 7.27148C 69.3099 6.69727 69.7155 6.25293 70.2441 5.93848C 70.7773 5.62402 71.3949 5.4668 72.0967 5.4668C 73.0947 5.4668 73.9082 5.77214 74.5371 6.38281C 75.1706 6.99349 75.5238 7.82292 75.5967 8.87109L 75.6104 9.37695C 75.6104 10.5117 75.2936 11.4232 74.6602 12.1113C 74.0267 12.7949 73.1768 13.1367 72.1104 13.1367C 71.0439 13.1367 70.1917 12.7949 69.5537 12.1113C 68.9202 11.4277 68.6035 10.498 68.6035 9.32227L 68.6035 9.2334ZM 70.5791 9.37695C 70.5791 10.0788 70.7113 10.6165 70.9756 10.9902C 71.2399 11.3594 71.6182 11.5439 72.1104 11.5439C 72.5889 11.5439 72.9626 11.3617 73.2314 10.9971C 73.5003 10.6279 73.6348 10.04 73.6348 9.2334C 73.6348 8.54525 73.5003 8.01204 73.2314 7.63379C 72.9626 7.25553 72.5843 7.06641 72.0967 7.06641C 71.6136 7.06641 71.2399 7.25553 70.9756 7.63379C 70.7113 8.00749 70.5791 8.58854 70.5791 9.37695ZM 83.1504 5.60352L 83.1504 13L 81.1748 13L 81.1748 7.20312L 79.4316 7.20312L 79.3086 9.48633C 79.2311 10.7031 78.9919 11.5895 78.5908 12.1455C 78.1898 12.7015 77.5928 12.9863 76.7998 13L 76.1299 13L 76.1094 11.3936L 76.3555 11.373C 76.7109 11.3457 76.9707 11.1361 77.1348 10.7441C 77.2988 10.3522 77.4014 9.68457 77.4424 8.74121L 77.5791 5.60352L 83.1504 5.60352ZM 91.0869 13L 89.1045 13L 89.1045 10.1562L 86.6504 10.1562L 86.6504 13L 84.6748 13L 84.6748 5.60352L 86.6504 5.60352L 86.6504 8.57031L 89.1045 8.57031L 89.1045 5.60352L 91.0869 5.60352L 91.0869 13ZM 96.0225 13.1367C 94.9378 13.1367 94.0537 12.804 93.3701 12.1387C 92.6911 11.4733 92.3516 10.5869 92.3516 9.47949L 92.3516 9.28809C 92.3516 8.54525 92.4951 7.88216 92.7822 7.29883C 93.0693 6.71094 93.4749 6.25977 93.999 5.94531C 94.5277 5.6263 95.1292 5.4668 95.8037 5.4668C 96.8154 5.4668 97.6107 5.78581 98.1895 6.42383C 98.7728 7.06185 99.0645 7.96647 99.0645 9.1377L 99.0645 9.94434L 94.3545 9.94434C 94.4183 10.4274 94.6097 10.8148 94.9287 11.1064C 95.2523 11.3981 95.6602 11.5439 96.1523 11.5439C 96.9134 11.5439 97.5081 11.2682 97.9365 10.7168L 98.9072 11.8037C 98.611 12.223 98.21 12.5511 97.7041 12.7881C 97.1982 13.0205 96.6377 13.1367 96.0225 13.1367ZM 95.7969 7.06641C 95.4049 7.06641 95.0859 7.19857 94.8398 7.46289C 94.5983 7.72721 94.4434 8.10547 94.375 8.59766L 97.123 8.59766L 97.123 8.44043C 97.1139 8.00293 96.9954 7.66569 96.7676 7.42871C 96.5397 7.18717 96.2161 7.06641 95.7969 7.06641ZM 106.604 13L 104.622 13L 104.622 10.1562L 102.168 10.1562L 102.168 13L 100.192 13L 100.192 5.60352L 102.168 5.60352L 102.168 8.57031L 104.622 8.57031L 104.622 5.60352L 106.604 5.60352L 106.604 13ZM 112.593 5.60352L 114.568 5.60352L 114.568 13L 112.593 13L 112.593 8.43359L 110.118 13L 108.136 13L 108.136 5.60352L 110.118 5.60352L 110.118 10.1631L 112.593 5.60352ZM 119.483 13.1367C 118.399 13.1367 117.515 12.804 116.831 12.1387C 116.152 11.4733 115.812 10.5869 115.812 9.47949L 115.812 9.28809C 115.812 8.54525 115.956 7.88216 116.243 7.29883C 116.53 6.71094 116.936 6.25977 117.46 5.94531C 117.989 5.6263 118.59 5.4668 119.265 5.4668C 120.276 5.4668 121.072 5.78581 121.65 6.42383C 122.234 7.06185 122.525 7.96647 122.525 9.1377L 122.525 9.94434L 117.815 9.94434C 117.879 10.4274 118.071 10.8148 118.39 11.1064C 118.713 11.3981 119.121 11.5439 119.613 11.5439C 120.374 11.5439 120.969 11.2682 121.397 10.7168L 122.368 11.8037C 122.072 12.223 121.671 12.5511 121.165 12.7881C 120.659 13.0205 120.099 13.1367 119.483 13.1367ZM 119.258 7.06641C 118.866 7.06641 118.547 7.19857 118.301 7.46289C 118.059 7.72721 117.904 8.10547 117.836 8.59766L 120.584 8.59766L 120.584 8.44043C 120.575 8.00293 120.456 7.66569 120.229 7.42871C 120.001 7.18717 119.677 7.06641 119.258 7.06641Z"/>
<path id="path8_fill" d="M 35.5156 13L 33.458 13L 33.458 4.70801L 29.4727 4.70801L 29.4727 13L 27.4219 13L 27.4219 3.04688L 35.5156 3.04688L 35.5156 13ZM 43.8486 9.37012C 43.8486 10.5094 43.5889 11.4232 43.0693 12.1113C 42.5544 12.7949 41.8571 13.1367 40.9775 13.1367C 40.2301 13.1367 39.6263 12.877 39.166 12.3574L 39.166 15.8438L 37.1904 15.8438L 37.1904 5.60352L 39.0225 5.60352L 39.0908 6.32812C 39.5693 5.75391 40.1937 5.4668 40.9639 5.4668C 41.8753 5.4668 42.584 5.80404 43.0898 6.47852C 43.5957 7.15299 43.8486 8.08268 43.8486 9.26758L 43.8486 9.37012ZM 41.873 9.22656C 41.873 8.53841 41.75 8.00749 41.5039 7.63379C 41.2624 7.26009 40.9092 7.07324 40.4443 7.07324C 39.8245 7.07324 39.3984 7.31022 39.166 7.78418L 39.166 10.8125C 39.4076 11.3001 39.8382 11.5439 40.458 11.5439C 41.4014 11.5439 41.873 10.7715 41.873 9.22656ZM 44.7715 9.2334C 44.7715 8.49967 44.9128 7.8457 45.1953 7.27148C 45.4779 6.69727 45.8835 6.25293 46.4121 5.93848C 46.9453 5.62402 47.5628 5.4668 48.2646 5.4668C 49.2627 5.4668 50.0762 5.77214 50.7051 6.38281C 51.3385 6.99349 51.6917 7.82292 51.7646 8.87109L 51.7783 9.37695C 51.7783 10.5117 51.4616 11.4232 50.8281 12.1113C 50.1947 12.7949 49.3447 13.1367 48.2783 13.1367C 47.2119 13.1367 46.3597 12.7949 45.7217 12.1113C 45.0882 11.4277 44.7715 10.498 44.7715 9.32227L 44.7715 9.2334ZM 46.7471 9.37695C 46.7471 10.0788 46.8792 10.6165 47.1436 10.9902C 47.4079 11.3594 47.7861 11.5439 48.2783 11.5439C 48.7568 11.5439 49.1305 11.3617 49.3994 10.9971C 49.6683 10.6279 49.8027 10.04 49.8027 9.2334C 49.8027 8.54525 49.6683 8.01204 49.3994 7.63379C 49.1305 7.25553 48.7523 7.06641 48.2646 7.06641C 47.7816 7.06641 47.4079 7.25553 47.1436 7.63379C 46.8792 8.00749 46.7471 8.58854 46.7471 9.37695ZM 56.3994 13.1367C 55.3148 13.1367 54.4307 12.804 53.7471 12.1387C 53.068 11.4733 52.7285 10.5869 52.7285 9.47949L 52.7285 9.28809C 52.7285 8.54525 52.8721 7.88216 53.1592 7.29883C 53.4463 6.71094 53.8519 6.25977 54.376 5.94531C 54.9046 5.6263 55.5062 5.4668 56.1807 5.4668C 57.1924 5.4668 57.9876 5.78581 58.5664 6.42383C 59.1497 7.06185 59.4414 7.96647 59.4414 9.1377L 59.4414 9.94434L 54.7314 9.94434C 54.7952 10.4274 54.9867 10.8148 55.3057 11.1064C 55.6292 11.3981 56.0371 11.5439 56.5293 11.5439C 57.2904 11.5439 57.8851 11.2682 58.3135 10.7168L 59.2842 11.8037C 58.988 12.223 58.5869 12.5511 58.0811 12.7881C 57.5752 13.0205 57.0146 13.1367 56.3994 13.1367ZM 56.1738 7.06641C 55.7819 7.06641 55.4629 7.19857 55.2168 7.46289C 54.9753 7.72721 54.8203 8.10547 54.752 8.59766L 57.5 8.59766L 57.5 8.44043C 57.4909 8.00293 57.3724 7.66569 57.1445 7.42871C 56.9167 7.18717 56.5931 7.06641 56.1738 7.06641ZM 63.4678 10.2725L 62.6748 10.2725L 62.6748 13L 60.6992 13L 60.6992 5.60352L 62.6748 5.60352L 62.6748 8.38574L 63.3789 8.38574L 64.9922 5.60352L 67.4873 5.60352L 65.0674 9.12402L 67.7129 13L 65.0811 13L 63.4678 10.2725ZM 74.5967 7.18945L 72.2246 7.18945L 72.2246 13L 70.2422 13L 70.2422 7.18945L 67.9111 7.18945L 67.9111 5.60352L 74.5967 5.60352L 74.5967 7.18945ZM 80.0518 5.60352L 82.0273 5.60352L 82.0273 13L 80.0518 13L 80.0518 8.43359L 77.5771 13L 75.5947 13L 75.5947 5.60352L 77.5771 5.60352L 77.5771 10.1631L 80.0518 5.60352ZM 90.1963 9.37012C 90.1963 10.5094 89.9365 11.4232 89.417 12.1113C 88.902 12.7949 88.2048 13.1367 87.3252 13.1367C 86.5778 13.1367 85.974 12.877 85.5137 12.3574L 85.5137 15.8438L 83.5381 15.8438L 83.5381 5.60352L 85.3701 5.60352L 85.4385 6.32812C 85.917 5.75391 86.5413 5.4668 87.3115 5.4668C 88.223 5.4668 88.9316 5.80404 89.4375 6.47852C 89.9434 7.15299 90.1963 8.08268 90.1963 9.26758L 90.1963 9.37012ZM 88.2207 9.22656C 88.2207 8.53841 88.0977 8.00749 87.8516 7.63379C 87.61 7.26009 87.2568 7.07324 86.792 7.07324C 86.1722 7.07324 85.7461 7.31022 85.5137 7.78418L 85.5137 10.8125C 85.7552 11.3001 86.1859 11.5439 86.8057 11.5439C 87.749 11.5439 88.2207 10.7715 88.2207 9.22656ZM 91.1191 9.2334C 91.1191 8.49967 91.2604 7.8457 91.543 7.27148C 91.8255 6.69727 92.2311 6.25293 92.7598 5.93848C 93.293 5.62402 93.9105 5.4668 94.6123 5.4668C 95.6104 5.4668 96.4238 5.77214 97.0527 6.38281C 97.6862 6.99349 98.0394 7.82292 98.1123 8.87109L 98.126 9.37695C 98.126 10.5117 97.8092 11.4232 97.1758 12.1113C 96.5423 12.7949 95.6924 13.1367 94.626 13.1367C 93.5596 13.1367 92.7074 12.7949 92.0693 12.1113C 91.4359 11.4277 91.1191 10.498 91.1191 9.32227L 91.1191 9.2334ZM 93.0947 9.37695C 93.0947 10.0788 93.2269 10.6165 93.4912 10.9902C 93.7555 11.3594 94.1338 11.5439 94.626 11.5439C 95.1045 11.5439 95.4782 11.3617 95.7471 10.9971C 96.016 10.6279 96.1504 10.04 96.1504 9.2334C 96.1504 8.54525 96.016 8.01204 95.7471 7.63379C 95.4782 7.25553 95.0999 7.06641 94.6123 7.06641C 94.1292 7.06641 93.7555 7.25553 93.4912 7.63379C 93.2269 8.00749 93.0947 8.58854 93.0947 9.37695ZM 99.4727 13L 99.4727 5.60352L 102.562 5.60352C 103.57 5.60352 104.342 5.78125 104.88 6.13672C 105.418 6.49219 105.687 7.0026 105.687 7.66797C 105.687 8.00977 105.573 8.31738 105.345 8.59082C 105.121 8.8597 104.793 9.06706 104.36 9.21289C 104.889 9.31315 105.304 9.51139 105.604 9.80762C 105.91 10.0993 106.062 10.4593 106.062 10.8877C 106.062 11.5758 105.803 12.0999 105.283 12.46C 104.768 12.82 104.019 13 103.034 13L 99.4727 13ZM 101.448 9.93066L 101.448 11.4209L 103.041 11.4209C 103.738 11.4209 104.087 11.1771 104.087 10.6895C 104.087 10.1927 103.754 9.93978 103.089 9.93066L 101.448 9.93066ZM 101.448 8.60449L 102.672 8.60449C 103.365 8.59538 103.711 8.37207 103.711 7.93457C 103.711 7.66569 103.615 7.47428 103.424 7.36035C 103.237 7.24642 102.95 7.18945 102.562 7.18945L 101.448 7.18945L 101.448 8.60449ZM 111.559 13C 111.467 12.8223 111.401 12.6012 111.36 12.3369C 110.882 12.8701 110.26 13.1367 109.494 13.1367C 108.77 13.1367 108.168 12.9271 107.689 12.5078C 107.215 12.0885 106.979 11.5599 106.979 10.9219C 106.979 10.138 107.268 9.53646 107.847 9.11719C 108.43 8.69792 109.271 8.486 110.369 8.48145L 111.278 8.48145L 111.278 8.05762C 111.278 7.71582 111.189 7.44238 111.012 7.2373C 110.839 7.03223 110.563 6.92969 110.185 6.92969C 109.852 6.92969 109.59 7.00944 109.398 7.16895C 109.212 7.32845 109.118 7.5472 109.118 7.8252L 107.143 7.8252C 107.143 7.39681 107.275 7.00033 107.539 6.63574C 107.803 6.27116 108.177 5.98633 108.66 5.78125C 109.143 5.57161 109.686 5.4668 110.287 5.4668C 111.199 5.4668 111.921 5.69694 112.454 6.15723C 112.992 6.61296 113.261 7.25553 113.261 8.08496L 113.261 11.291C 113.265 11.9928 113.363 12.5238 113.555 12.8838L 113.555 13L 111.559 13ZM 109.925 11.626C 110.216 11.626 110.485 11.5622 110.731 11.4346C 110.978 11.3024 111.16 11.127 111.278 10.9082L 111.278 9.63672L 110.54 9.63672C 109.551 9.63672 109.025 9.97852 108.961 10.6621L 108.954 10.7783C 108.954 11.0244 109.041 11.2272 109.214 11.3867C 109.387 11.5462 109.624 11.626 109.925 11.626ZM 121.19 13L 119.208 13L 119.208 10.1562L 116.754 10.1562L 116.754 13L 114.778 13L 114.778 5.60352L 116.754 5.60352L 116.754 8.57031L 119.208 8.57031L 119.208 5.60352L 121.19 5.60352L 121.19 13ZM 127.179 5.60352L 129.154 5.60352L 129.154 13L 127.179 13L 127.179 8.43359L 124.704 13L 122.722 13L 122.722 5.60352L 124.704 5.60352L 124.704 10.1631L 127.179 5.60352ZM 134.069 13.1367C 132.985 13.1367 132.101 12.804 131.417 12.1387C 130.738 11.4733 130.398 10.5869 130.398 9.47949L 130.398 9.28809C 130.398 8.54525 130.542 7.88216 130.829 7.29883C 131.116 6.71094 131.522 6.25977 132.046 5.94531C 132.575 5.6263 133.176 5.4668 133.851 5.4668C 134.862 5.4668 135.658 5.78581 136.236 6.42383C 136.82 7.06185 137.111 7.96647 137.111 9.1377L 137.111 9.94434L 132.401 9.94434C 132.465 10.4274 132.657 10.8148 132.976 11.1064C 133.299 11.3981 133.707 11.5439 134.199 11.5439C 134.96 11.5439 135.555 11.2682 135.983 10.7168L 136.954 11.8037C 136.658 12.223 136.257 12.5511 135.751 12.7881C 135.245 13.0205 134.685 13.1367 134.069 13.1367ZM 133.844 7.06641C 133.452 7.06641 133.133 7.19857 132.887 7.46289C 132.645 7.72721 132.49 8.10547 132.422 8.59766L 135.17 8.59766L 135.17 8.44043C 135.161 8.00293 135.042 7.66569 134.814 7.42871C 134.587 7.18717 134.263 7.06641 133.844 7.06641Z"/>
<path id="path9_fill" d="M 25.0146 13L 22.957 13L 22.957 4.70801L 18.9717 4.70801L 18.9717 13L 16.9209 13L 16.9209 3.04688L 25.0146 3.04688L 25.0146 13ZM 33.1221 5.60352L 33.1221 13L 31.1465 13L 31.1465 7.20312L 29.4033 7.20312L 29.2803 9.48633C 29.2028 10.7031 28.9635 11.5895 28.5625 12.1455C 28.1615 12.7015 27.5645 12.9863 26.7715 13L 26.1016 13L 26.0811 11.3936L 26.3271 11.373C 26.6826 11.3457 26.9424 11.1361 27.1064 10.7441C 27.2705 10.3522 27.373 9.68457 27.4141 8.74121L 27.5508 5.60352L 33.1221 5.60352ZM 38.9326 13C 38.8415 12.8223 38.7754 12.6012 38.7344 12.3369C 38.2559 12.8701 37.6338 13.1367 36.8682 13.1367C 36.1436 13.1367 35.542 12.9271 35.0635 12.5078C 34.5895 12.0885 34.3525 11.5599 34.3525 10.9219C 34.3525 10.138 34.6419 9.53646 35.2207 9.11719C 35.804 8.69792 36.6449 8.486 37.7432 8.48145L 38.6523 8.48145L 38.6523 8.05762C 38.6523 7.71582 38.5635 7.44238 38.3857 7.2373C 38.2126 7.03223 37.9368 6.92969 37.5586 6.92969C 37.2259 6.92969 36.9639 7.00944 36.7725 7.16895C 36.5856 7.32845 36.4922 7.5472 36.4922 7.8252L 34.5166 7.8252C 34.5166 7.39681 34.6488 7.00033 34.9131 6.63574C 35.1774 6.27116 35.5511 5.98633 36.0342 5.78125C 36.5173 5.57161 37.0596 5.4668 37.6611 5.4668C 38.5726 5.4668 39.2949 5.69694 39.8281 6.15723C 40.3659 6.61296 40.6348 7.25553 40.6348 8.08496L 40.6348 11.291C 40.6393 11.9928 40.7373 12.5238 40.9287 12.8838L 40.9287 13L 38.9326 13ZM 37.2988 11.626C 37.5905 11.626 37.8594 11.5622 38.1055 11.4346C 38.3516 11.3024 38.5339 11.127 38.6523 10.9082L 38.6523 9.63672L 37.9141 9.63672C 36.9251 9.63672 36.3988 9.97852 36.335 10.6621L 36.3281 10.7783C 36.3281 11.0244 36.4147 11.2272 36.5879 11.3867C 36.7611 11.5462 36.998 11.626 37.2988 11.626ZM 48.5645 13L 46.582 13L 46.582 10.1562L 44.1279 10.1562L 44.1279 13L 42.1523 13L 42.1523 5.60352L 44.1279 5.60352L 44.1279 8.57031L 46.582 8.57031L 46.582 5.60352L 48.5645 5.60352L 48.5645 13ZM 54.5527 5.60352L 56.5283 5.60352L 56.5283 13L 54.5527 13L 54.5527 8.43359L 52.0781 13L 50.0957 13L 50.0957 5.60352L 52.0781 5.60352L 52.0781 10.1631L 54.5527 5.60352ZM 64.6973 9.37012C 64.6973 10.5094 64.4375 11.4232 63.918 12.1113C 63.403 12.7949 62.7057 13.1367 61.8262 13.1367C 61.0788 13.1367 60.4749 12.877 60.0146 12.3574L 60.0146 15.8438L 58.0391 15.8438L 58.0391 5.60352L 59.8711 5.60352L 59.9395 6.32812C 60.418 5.75391 61.0423 5.4668 61.8125 5.4668C 62.724 5.4668 63.4326 5.80404 63.9385 6.47852C 64.4443 7.15299 64.6973 8.08268 64.6973 9.26758L 64.6973 9.37012ZM 62.7217 9.22656C 62.7217 8.53841 62.5986 8.00749 62.3525 7.63379C 62.111 7.26009 61.7578 7.07324 61.293 7.07324C 60.6732 7.07324 60.2471 7.31022 60.0146 7.78418L 60.0146 10.8125C 60.2562 11.3001 60.6868 11.5439 61.3066 11.5439C 62.25 11.5439 62.7217 10.7715 62.7217 9.22656ZM 65.6201 9.2334C 65.6201 8.49967 65.7614 7.8457 66.0439 7.27148C 66.3265 6.69727 66.7321 6.25293 67.2607 5.93848C 67.7939 5.62402 68.4115 5.4668 69.1133 5.4668C 70.1113 5.4668 70.9248 5.77214 71.5537 6.38281C 72.1872 6.99349 72.5404 7.82292 72.6133 8.87109L 72.627 9.37695C 72.627 10.5117 72.3102 11.4232 71.6768 12.1113C 71.0433 12.7949 70.1934 13.1367 69.127 13.1367C 68.0605 13.1367 67.2083 12.7949 66.5703 12.1113C 65.9368 11.4277 65.6201 10.498 65.6201 9.32227L 65.6201 9.2334ZM 67.5957 9.37695C 67.5957 10.0788 67.7279 10.6165 67.9922 10.9902C 68.2565 11.3594 68.6348 11.5439 69.127 11.5439C 69.6055 11.5439 69.9792 11.3617 70.248 10.9971C 70.5169 10.6279 70.6514 10.04 70.6514 9.2334C 70.6514 8.54525 70.5169 8.01204 70.248 7.63379C 69.9792 7.25553 69.6009 7.06641 69.1133 7.06641C 68.6302 7.06641 68.2565 7.25553 67.9922 7.63379C 67.7279 8.00749 67.5957 8.58854 67.5957 9.37695ZM 73.9736 13L 73.9736 5.60352L 77.0635 5.60352C 78.0706 5.60352 78.8431 5.78125 79.3809 6.13672C 79.9186 6.49219 80.1875 7.0026 80.1875 7.66797C 80.1875 8.00977 80.0736 8.31738 79.8457 8.59082C 79.6224 8.8597 79.2943 9.06706 78.8613 9.21289C 79.39 9.31315 79.8047 9.51139 80.1055 9.80762C 80.4108 10.0993 80.5635 10.4593 80.5635 10.8877C 80.5635 11.5758 80.3037 12.0999 79.7842 12.46C 79.2692 12.82 78.5195 13 77.5352 13L 73.9736 13ZM 75.9492 9.93066L 75.9492 11.4209L 77.542 11.4209C 78.2393 11.4209 78.5879 11.1771 78.5879 10.6895C 78.5879 10.1927 78.2552 9.93978 77.5898 9.93066L 75.9492 9.93066ZM 75.9492 8.60449L 77.1729 8.60449C 77.8656 8.59538 78.2119 8.37207 78.2119 7.93457C 78.2119 7.66569 78.1162 7.47428 77.9248 7.36035C 77.738 7.24642 77.4508 7.18945 77.0635 7.18945L 75.9492 7.18945L 75.9492 8.60449ZM 86.0596 13C 85.9684 12.8223 85.9023 12.6012 85.8613 12.3369C 85.3828 12.8701 84.7607 13.1367 83.9951 13.1367C 83.2705 13.1367 82.6689 12.9271 82.1904 12.5078C 81.7165 12.0885 81.4795 11.5599 81.4795 10.9219C 81.4795 10.138 81.7689 9.53646 82.3477 9.11719C 82.931 8.69792 83.7718 8.486 84.8701 8.48145L 85.7793 8.48145L 85.7793 8.05762C 85.7793 7.71582 85.6904 7.44238 85.5127 7.2373C 85.3395 7.03223 85.0638 6.92969 84.6855 6.92969C 84.3529 6.92969 84.0908 7.00944 83.8994 7.16895C 83.7126 7.32845 83.6191 7.5472 83.6191 7.8252L 81.6436 7.8252C 81.6436 7.39681 81.7757 7.00033 82.04 6.63574C 82.3044 6.27116 82.6781 5.98633 83.1611 5.78125C 83.6442 5.57161 84.1865 5.4668 84.7881 5.4668C 85.6995 5.4668 86.4219 5.69694 86.9551 6.15723C 87.4928 6.61296 87.7617 7.25553 87.7617 8.08496L 87.7617 11.291C 87.7663 11.9928 87.8643 12.5238 88.0557 12.8838L 88.0557 13L 86.0596 13ZM 84.4258 11.626C 84.7174 11.626 84.9863 11.5622 85.2324 11.4346C 85.4785 11.3024 85.6608 11.127 85.7793 10.9082L 85.7793 9.63672L 85.041 9.63672C 84.0521 9.63672 83.5257 9.97852 83.4619 10.6621L 83.4551 10.7783C 83.4551 11.0244 83.5417 11.2272 83.7148 11.3867C 83.888 11.5462 84.125 11.626 84.4258 11.626ZM 95.6914 13L 93.709 13L 93.709 10.1562L 91.2549 10.1562L 91.2549 13L 89.2793 13L 89.2793 5.60352L 91.2549 5.60352L 91.2549 8.57031L 93.709 8.57031L 93.709 5.60352L 95.6914 5.60352L 95.6914 13ZM 101.68 5.60352L 103.655 5.60352L 103.655 13L 101.68 13L 101.68 8.43359L 99.2051 13L 97.2227 13L 97.2227 5.60352L 99.2051 5.60352L 99.2051 10.1631L 101.68 5.60352ZM 108.57 13.1367C 107.486 13.1367 106.602 12.804 105.918 12.1387C 105.239 11.4733 104.899 10.5869 104.899 9.47949L 104.899 9.28809C 104.899 8.54525 105.043 7.88216 105.33 7.29883C 105.617 6.71094 106.023 6.25977 106.547 5.94531C 107.076 5.6263 107.677 5.4668 108.352 5.4668C 109.363 5.4668 110.159 5.78581 110.737 6.42383C 111.321 7.06185 111.612 7.96647 111.612 9.1377L 111.612 9.94434L 106.902 9.94434C 106.966 10.4274 107.158 10.8148 107.477 11.1064C 107.8 11.3981 108.208 11.5439 108.7 11.5439C 109.461 11.5439 110.056 11.2682 110.484 10.7168L 111.455 11.8037C 111.159 12.223 110.758 12.5511 110.252 12.7881C 109.746 13.0205 109.186 13.1367 108.57 13.1367ZM 108.345 7.06641C 107.953 7.06641 107.634 7.19857 107.388 7.46289C 107.146 7.72721 106.991 8.10547 106.923 8.59766L 109.671 8.59766L 109.671 8.44043C 109.662 8.00293 109.543 7.66569 109.315 7.42871C 109.088 7.18717 108.764 7.06641 108.345 7.06641Z"/>
<path id="path10_fill" d="M 43.6016 4.70801L 40.5527 4.70801L 40.5527 13L 38.502 13L 38.502 4.70801L 35.4941 4.70801L 35.4941 3.04688L 43.6016 3.04688L 43.6016 4.70801ZM 50.6904 9.37012C 50.6904 10.5094 50.4307 11.4232 49.9111 12.1113C 49.3962 12.7949 48.6989 13.1367 47.8193 13.1367C 47.0719 13.1367 46.4681 12.877 46.0078 12.3574L 46.0078 15.8438L 44.0322 15.8438L 44.0322 5.60352L 45.8643 5.60352L 45.9326 6.32812C 46.4111 5.75391 47.0355 5.4668 47.8057 5.4668C 48.7171 5.4668 49.4258 5.80404 49.9316 6.47852C 50.4375 7.15299 50.6904 8.08268 50.6904 9.26758L 50.6904 9.37012ZM 48.7148 9.22656C 48.7148 8.53841 48.5918 8.00749 48.3457 7.63379C 48.1042 7.26009 47.751 7.07324 47.2861 7.07324C 46.6663 7.07324 46.2402 7.31022 46.0078 7.78418L 46.0078 10.8125C 46.2493 11.3001 46.68 11.5439 47.2998 11.5439C 48.2432 11.5439 48.7148 10.7715 48.7148 9.22656ZM 55.3252 13.1367C 54.2406 13.1367 53.3564 12.804 52.6729 12.1387C 51.9938 11.4733 51.6543 10.5869 51.6543 9.47949L 51.6543 9.28809C 51.6543 8.54525 51.7979 7.88216 52.085 7.29883C 52.3721 6.71094 52.7777 6.25977 53.3018 5.94531C 53.8304 5.6263 54.432 5.4668 55.1064 5.4668C 56.1182 5.4668 56.9134 5.78581 57.4922 6.42383C 58.0755 7.06185 58.3672 7.96647 58.3672 9.1377L 58.3672 9.94434L 53.6572 9.94434C 53.721 10.4274 53.9124 10.8148 54.2314 11.1064C 54.555 11.3981 54.9629 11.5439 55.4551 11.5439C 56.2161 11.5439 56.8109 11.2682 57.2393 10.7168L 58.21 11.8037C 57.9137 12.223 57.5127 12.5511 57.0068 12.7881C 56.501 13.0205 55.9404 13.1367 55.3252 13.1367ZM 55.0996 7.06641C 54.7077 7.06641 54.3887 7.19857 54.1426 7.46289C 53.901 7.72721 53.7461 8.10547 53.6777 8.59766L 56.4258 8.59766L 56.4258 8.44043C 56.4167 8.00293 56.2982 7.66569 56.0703 7.42871C 55.8424 7.18717 55.5189 7.06641 55.0996 7.06641ZM 63.166 6.01367C 64.1139 6.01367 64.8704 6.32812 65.4355 6.95703C 66.0007 7.58594 66.2832 8.44043 66.2832 9.52051L 66.2832 9.61621C 66.2832 10.6826 65.9688 11.5371 65.3398 12.1797C 64.7109 12.8223 63.8656 13.1436 62.8037 13.1436C 61.7373 13.1436 60.8874 12.7972 60.2539 12.1045C 59.625 11.4072 59.3105 10.4616 59.3105 9.26758L 59.3105 8.93945C 59.3197 7.27604 59.5999 5.97494 60.1514 5.03613C 60.7074 4.09277 61.5413 3.49805 62.6533 3.25195C 63.2367 3.12435 63.6126 2.99902 63.7812 2.87598C 63.9499 2.74837 64.0342 2.57292 64.0342 2.34961L 65.6338 2.34961C 65.6338 3.0651 65.4401 3.60286 65.0527 3.96289C 64.6699 4.32292 63.9863 4.60091 63.002 4.79688C 62.4186 4.91536 61.9583 5.14551 61.6211 5.4873C 61.2839 5.8291 61.056 6.3099 60.9375 6.92969C 61.5664 6.31901 62.3092 6.01367 63.166 6.01367ZM 62.79 7.61328C 62.3206 7.61328 61.9515 7.77051 61.6826 8.08496C 61.4183 8.39941 61.2861 8.90983 61.2861 9.61621C 61.2861 10.2451 61.416 10.7259 61.6758 11.0586C 61.9355 11.3867 62.3115 11.5508 62.8037 11.5508C 63.2822 11.5508 63.6514 11.389 63.9111 11.0654C 64.1709 10.7419 64.3031 10.2656 64.3076 9.63672L 64.3076 9.47266C 64.3076 8.86654 64.1732 8.40625 63.9043 8.0918C 63.64 7.77279 63.2686 7.61328 62.79 7.61328ZM 67.1582 9.2334C 67.1582 8.49967 67.2995 7.8457 67.582 7.27148C 67.8646 6.69727 68.2702 6.25293 68.7988 5.93848C 69.332 5.62402 69.9495 5.4668 70.6514 5.4668C 71.6494 5.4668 72.4629 5.77214 73.0918 6.38281C 73.7253 6.99349 74.0785 7.82292 74.1514 8.87109L 74.165 9.37695C 74.165 10.5117 73.8483 11.4232 73.2148 12.1113C 72.5814 12.7949 71.7314 13.1367 70.665 13.1367C 69.5986 13.1367 68.7464 12.7949 68.1084 12.1113C 67.4749 11.4277 67.1582 10.498 67.1582 9.32227L 67.1582 9.2334ZM 69.1338 9.37695C 69.1338 10.0788 69.266 10.6165 69.5303 10.9902C 69.7946 11.3594 70.1729 11.5439 70.665 11.5439C 71.1436 11.5439 71.5173 11.3617 71.7861 10.9971C 72.055 10.6279 72.1895 10.04 72.1895 9.2334C 72.1895 8.54525 72.055 8.01204 71.7861 7.63379C 71.5173 7.25553 71.139 7.06641 70.6514 7.06641C 70.1683 7.06641 69.7946 7.25553 69.5303 7.63379C 69.266 8.00749 69.1338 8.58854 69.1338 9.37695ZM 75.5117 13L 75.5117 5.60352L 78.6016 5.60352C 79.6087 5.60352 80.3812 5.78125 80.9189 6.13672C 81.4567 6.49219 81.7256 7.0026 81.7256 7.66797C 81.7256 8.00977 81.6117 8.31738 81.3838 8.59082C 81.1605 8.8597 80.8324 9.06706 80.3994 9.21289C 80.9281 9.31315 81.3428 9.51139 81.6436 9.80762C 81.9489 10.0993 82.1016 10.4593 82.1016 10.8877C 82.1016 11.5758 81.8418 12.0999 81.3223 12.46C 80.8073 12.82 80.0576 13 79.0732 13L 75.5117 13ZM 77.4873 9.93066L 77.4873 11.4209L 79.0801 11.4209C 79.7773 11.4209 80.126 11.1771 80.126 10.6895C 80.126 10.1927 79.7933 9.93978 79.1279 9.93066L 77.4873 9.93066ZM 77.4873 8.60449L 78.7109 8.60449C 79.4036 8.59538 79.75 8.37207 79.75 7.93457C 79.75 7.66569 79.6543 7.47428 79.4629 7.36035C 79.276 7.24642 78.9889 7.18945 78.6016 7.18945L 77.4873 7.18945L 77.4873 8.60449ZM 87.5977 13C 87.5065 12.8223 87.4404 12.6012 87.3994 12.3369C 86.9209 12.8701 86.2988 13.1367 85.5332 13.1367C 84.8086 13.1367 84.207 12.9271 83.7285 12.5078C 83.2546 12.0885 83.0176 11.5599 83.0176 10.9219C 83.0176 10.138 83.307 9.53646 83.8857 9.11719C 84.4691 8.69792 85.3099 8.486 86.4082 8.48145L 87.3174 8.48145L 87.3174 8.05762C 87.3174 7.71582 87.2285 7.44238 87.0508 7.2373C 86.8776 7.03223 86.6019 6.92969 86.2236 6.92969C 85.891 6.92969 85.6289 7.00944 85.4375 7.16895C 85.2507 7.32845 85.1572 7.5472 85.1572 7.8252L 83.1816 7.8252C 83.1816 7.39681 83.3138 7.00033 83.5781 6.63574C 83.8424 6.27116 84.2161 5.98633 84.6992 5.78125C 85.1823 5.57161 85.7246 5.4668 86.3262 5.4668C 87.2376 5.4668 87.96 5.69694 88.4932 6.15723C 89.0309 6.61296 89.2998 7.25553 89.2998 8.08496L 89.2998 11.291C 89.3044 11.9928 89.4023 12.5238 89.5938 12.8838L 89.5938 13L 87.5977 13ZM 85.9639 11.626C 86.2555 11.626 86.5244 11.5622 86.7705 11.4346C 87.0166 11.3024 87.1989 11.127 87.3174 10.9082L 87.3174 9.63672L 86.5791 9.63672C 85.5902 9.63672 85.0638 9.97852 85 10.6621L 84.9932 10.7783C 84.9932 11.0244 85.0798 11.2272 85.2529 11.3867C 85.4261 11.5462 85.6631 11.626 85.9639 11.626ZM 97.2295 13L 95.2471 13L 95.2471 10.1562L 92.793 10.1562L 92.793 13L 90.8174 13L 90.8174 5.60352L 92.793 5.60352L 92.793 8.57031L 95.2471 8.57031L 95.2471 5.60352L 97.2295 5.60352L 97.2295 13ZM 103.218 5.60352L 105.193 5.60352L 105.193 13L 103.218 13L 103.218 8.43359L 100.743 13L 98.7607 13L 98.7607 5.60352L 100.743 5.60352L 100.743 10.1631L 103.218 5.60352ZM 112.87 5.60352L 112.87 13L 110.901 13L 110.901 10.4434L 109.65 10.4434L 108.229 13L 106.226 13L 107.839 10.1084C 107.397 9.90332 107.055 9.62533 106.813 9.27441C 106.576 8.9235 106.458 8.52474 106.458 8.07812C 106.458 7.36263 106.734 6.77702 107.285 6.32129C 107.841 5.861 108.584 5.62174 109.514 5.60352L 112.87 5.60352ZM 109.548 9.0625L 110.901 9.0625L 110.901 7.18945L 109.616 7.18945C 109.265 7.18945 108.98 7.28288 108.762 7.46973C 108.543 7.65202 108.434 7.87533 108.434 8.13965C 108.434 8.40397 108.538 8.62272 108.748 8.7959C 108.958 8.96908 109.224 9.05794 109.548 9.0625Z"/>
<path id="path11_fill" d="M 52.3096 13L 50.2588 13L 50.2588 8.73438L 46.2598 8.73438L 46.2598 13L 44.209 13L 44.209 3.04688L 46.2598 3.04688L 46.2598 7.08008L 50.2588 7.08008L 50.2588 3.04688L 52.3096 3.04688L 52.3096 13ZM 58.2637 13C 58.1725 12.8223 58.1064 12.6012 58.0654 12.3369C 57.5869 12.8701 56.9648 13.1367 56.1992 13.1367C 55.4746 13.1367 54.873 12.9271 54.3945 12.5078C 53.9206 12.0885 53.6836 11.5599 53.6836 10.9219C 53.6836 10.138 53.973 9.53646 54.5518 9.11719C 55.1351 8.69792 55.9759 8.486 57.0742 8.48145L 57.9834 8.48145L 57.9834 8.05762C 57.9834 7.71582 57.8945 7.44238 57.7168 7.2373C 57.5436 7.03223 57.2679 6.92969 56.8896 6.92969C 56.557 6.92969 56.2949 7.00944 56.1035 7.16895C 55.9167 7.32845 55.8232 7.5472 55.8232 7.8252L 53.8477 7.8252C 53.8477 7.39681 53.9798 7.00033 54.2441 6.63574C 54.5085 6.27116 54.8822 5.98633 55.3652 5.78125C 55.8483 5.57161 56.3906 5.4668 56.9922 5.4668C 57.9036 5.4668 58.626 5.69694 59.1592 6.15723C 59.6969 6.61296 59.9658 7.25553 59.9658 8.08496L 59.9658 11.291C 59.9704 11.9928 60.0684 12.5238 60.2598 12.8838L 60.2598 13L 58.2637 13ZM 56.6299 11.626C 56.9215 11.626 57.1904 11.5622 57.4365 11.4346C 57.6826 11.3024 57.8649 11.127 57.9834 10.9082L 57.9834 9.63672L 57.2451 9.63672C 56.2562 9.63672 55.7298 9.97852 55.666 10.6621L 55.6592 10.7783C 55.6592 11.0244 55.7458 11.2272 55.9189 11.3867C 56.0921 11.5462 56.3291 11.626 56.6299 11.626ZM 67.7178 13L 65.7422 13L 65.7422 10.6758C 65.373 10.7441 65.029 10.7783 64.71 10.7783C 63.5934 10.7783 62.7526 10.5413 62.1875 10.0674C 61.6224 9.59342 61.3353 8.90072 61.3262 7.98926L 61.3262 5.60352L 63.3018 5.60352L 63.3018 7.98926C 63.3063 8.41764 63.4111 8.72526 63.6162 8.91211C 63.8213 9.0944 64.1859 9.18555 64.71 9.18555C 65.0381 9.18555 65.3822 9.14681 65.7422 9.06934L 65.7422 5.60352L 67.7178 5.60352L 67.7178 13ZM 73.5215 13C 73.4303 12.8223 73.3643 12.6012 73.3232 12.3369C 72.8447 12.8701 72.2227 13.1367 71.457 13.1367C 70.7324 13.1367 70.1309 12.9271 69.6523 12.5078C 69.1784 12.0885 68.9414 11.5599 68.9414 10.9219C 68.9414 10.138 69.2308 9.53646 69.8096 9.11719C 70.3929 8.69792 71.2337 8.486 72.332 8.48145L 73.2412 8.48145L 73.2412 8.05762C 73.2412 7.71582 73.1523 7.44238 72.9746 7.2373C 72.8014 7.03223 72.5257 6.92969 72.1475 6.92969C 71.8148 6.92969 71.5527 7.00944 71.3613 7.16895C 71.1745 7.32845 71.0811 7.5472 71.0811 7.8252L 69.1055 7.8252C 69.1055 7.39681 69.2376 7.00033 69.502 6.63574C 69.7663 6.27116 70.14 5.98633 70.623 5.78125C 71.1061 5.57161 71.6484 5.4668 72.25 5.4668C 73.1615 5.4668 73.8838 5.69694 74.417 6.15723C 74.9548 6.61296 75.2236 7.25553 75.2236 8.08496L 75.2236 11.291C 75.2282 11.9928 75.3262 12.5238 75.5176 12.8838L 75.5176 13L 73.5215 13ZM 71.8877 11.626C 72.1794 11.626 72.4482 11.5622 72.6943 11.4346C 72.9404 11.3024 73.1227 11.127 73.2412 10.9082L 73.2412 9.63672L 72.5029 9.63672C 71.514 9.63672 70.9876 9.97852 70.9238 10.6621L 70.917 10.7783C 70.917 11.0244 71.0036 11.2272 71.1768 11.3867C 71.3499 11.5462 71.5869 11.626 71.8877 11.626ZM 83.1738 5.60352L 83.1738 13L 81.1982 13L 81.1982 7.20312L 79.4551 7.20312L 79.332 9.48633C 79.2546 10.7031 79.0153 11.5895 78.6143 12.1455C 78.2132 12.7015 77.6162 12.9863 76.8232 13L 76.1533 13L 76.1328 11.3936L 76.3789 11.373C 76.7344 11.3457 76.9941 11.1361 77.1582 10.7441C 77.3223 10.3522 77.4248 9.68457 77.4658 8.74121L 77.6025 5.60352L 83.1738 5.60352ZM 86.8105 7.77051L 88.2256 7.77051C 88.8636 7.77051 89.4242 7.8776 89.9072 8.0918C 90.3903 8.30599 90.7594 8.61361 91.0146 9.01465C 91.2744 9.41113 91.4043 9.8737 91.4043 10.4023C 91.4043 11.1816 91.1149 11.8105 90.5361 12.2891C 89.9619 12.763 89.1781 13 88.1846 13L 84.8281 13L 84.8281 5.60352L 86.8105 5.60352L 86.8105 7.77051ZM 86.8105 9.35645L 86.8105 11.4209L 88.2119 11.4209C 88.6038 11.4209 88.9046 11.3298 89.1143 11.1475C 89.3239 10.9652 89.4287 10.7168 89.4287 10.4023C 89.4287 10.0833 89.3262 9.8304 89.1211 9.64355C 88.916 9.45215 88.613 9.35645 88.2119 9.35645L 86.8105 9.35645ZM 98.9307 13L 96.9482 13L 96.9482 10.1562L 94.4941 10.1562L 94.4941 13L 92.5186 13L 92.5186 5.60352L 94.4941 5.60352L 94.4941 8.57031L 96.9482 8.57031L 96.9482 5.60352L 98.9307 5.60352L 98.9307 13ZM 100.154 9.2334C 100.154 8.49967 100.296 7.8457 100.578 7.27148C 100.861 6.69727 101.266 6.25293 101.795 5.93848C 102.328 5.62402 102.946 5.4668 103.647 5.4668C 104.646 5.4668 105.459 5.77214 106.088 6.38281C 106.721 6.99349 107.075 7.82292 107.147 8.87109L 107.161 9.37695C 107.161 10.5117 106.844 11.4232 106.211 12.1113C 105.577 12.7949 104.728 13.1367 103.661 13.1367C 102.595 13.1367 101.743 12.7949 101.104 12.1113C 100.471 11.4277 100.154 10.498 100.154 9.32227L 100.154 9.2334ZM 102.13 9.37695C 102.13 10.0788 102.262 10.6165 102.526 10.9902C 102.791 11.3594 103.169 11.5439 103.661 11.5439C 104.14 11.5439 104.513 11.3617 104.782 10.9971C 105.051 10.6279 105.186 10.04 105.186 9.2334C 105.186 8.54525 105.051 8.01204 104.782 7.63379C 104.513 7.25553 104.135 7.06641 103.647 7.06641C 103.164 7.06641 102.791 7.25553 102.526 7.63379C 102.262 8.00749 102.13 8.58854 102.13 9.37695ZM 111.782 13.1367C 110.698 13.1367 109.813 12.804 109.13 12.1387C 108.451 11.4733 108.111 10.5869 108.111 9.47949L 108.111 9.28809C 108.111 8.54525 108.255 7.88216 108.542 7.29883C 108.829 6.71094 109.235 6.25977 109.759 5.94531C 110.287 5.6263 110.889 5.4668 111.563 5.4668C 112.575 5.4668 113.37 5.78581 113.949 6.42383C 114.533 7.06185 114.824 7.96647 114.824 9.1377L 114.824 9.94434L 110.114 9.94434C 110.178 10.4274 110.369 10.8148 110.688 11.1064C 111.012 11.3981 111.42 11.5439 111.912 11.5439C 112.673 11.5439 113.268 11.2682 113.696 10.7168L 114.667 11.8037C 114.371 12.223 113.97 12.5511 113.464 12.7881C 112.958 13.0205 112.397 13.1367 111.782 13.1367ZM 111.557 7.06641C 111.165 7.06641 110.846 7.19857 110.6 7.46289C 110.358 7.72721 110.203 8.10547 110.135 8.59766L 112.883 8.59766L 112.883 8.44043C 112.874 8.00293 112.755 7.66569 112.527 7.42871C 112.299 7.18717 111.976 7.06641 111.557 7.06641ZM 41.1943 29L 39.2119 29L 39.2119 23.2031L 36.7373 23.2031L 36.7373 29L 34.7617 29L 34.7617 21.6035L 41.1943 21.6035L 41.1943 29ZM 49.1377 21.6035L 49.1377 29L 47.1621 29L 47.1621 23.2031L 45.4189 23.2031L 45.2959 25.4863C 45.2184 26.7031 44.9792 27.5895 44.5781 28.1455C 44.1771 28.7015 43.5801 28.9863 42.7871 29L 42.1172 29L 42.0967 27.3936L 42.3428 27.373C 42.6982 27.3457 42.958 27.1361 43.1221 26.7441C 43.2861 26.3522 43.3887 25.6846 43.4297 24.7412L 43.5664 21.6035L 49.1377 21.6035ZM 54.9482 29C 54.8571 28.8223 54.791 28.6012 54.75 28.3369C 54.2715 28.8701 53.6494 29.1367 52.8838 29.1367C 52.1592 29.1367 51.5576 28.9271 51.0791 28.5078C 50.6051 28.0885 50.3682 27.5599 50.3682 26.9219C 50.3682 26.138 50.6576 25.5365 51.2363 25.1172C 51.8197 24.6979 52.6605 24.486 53.7588 24.4814L 54.668 24.4814L 54.668 24.0576C 54.668 23.7158 54.5791 23.4424 54.4014 23.2373C 54.2282 23.0322 53.9525 22.9297 53.5742 22.9297C 53.2415 22.9297 52.9795 23.0094 52.7881 23.1689C 52.6012 23.3285 52.5078 23.5472 52.5078 23.8252L 50.5322 23.8252C 50.5322 23.3968 50.6644 23.0003 50.9287 22.6357C 51.193 22.2712 51.5667 21.9863 52.0498 21.7812C 52.5329 21.5716 53.0752 21.4668 53.6768 21.4668C 54.5882 21.4668 55.3105 21.6969 55.8438 22.1572C 56.3815 22.613 56.6504 23.2555 56.6504 24.085L 56.6504 27.291C 56.6549 27.9928 56.7529 28.5238 56.9443 28.8838L 56.9443 29L 54.9482 29ZM 53.3145 27.626C 53.6061 27.626 53.875 27.5622 54.1211 27.4346C 54.3672 27.3024 54.5495 27.127 54.668 26.9082L 54.668 25.6367L 53.9297 25.6367C 52.9408 25.6367 52.4144 25.9785 52.3506 26.6621L 52.3438 26.7783C 52.3438 27.0244 52.4303 27.2272 52.6035 27.3867C 52.7767 27.5462 53.0137 27.626 53.3145 27.626ZM 64.5801 29L 62.5977 29L 62.5977 26.1562L 60.1436 26.1562L 60.1436 29L 58.168 29L 58.168 21.6035L 60.1436 21.6035L 60.1436 24.5703L 62.5977 24.5703L 62.5977 21.6035L 64.5801 21.6035L 64.5801 29ZM 70.5684 21.6035L 72.5439 21.6035L 72.5439 29L 70.5684 29L 70.5684 24.4336L 68.0938 29L 66.1113 29L 66.1113 21.6035L 68.0938 21.6035L 68.0938 26.1631L 70.5684 21.6035ZM 80.7129 25.3701C 80.7129 26.5094 80.4531 27.4232 79.9336 28.1113C 79.4186 28.7949 78.7214 29.1367 77.8418 29.1367C 77.0944 29.1367 76.4906 28.877 76.0303 28.3574L 76.0303 31.8438L 74.0547 31.8438L 74.0547 21.6035L 75.8867 21.6035L 75.9551 22.3281C 76.4336 21.7539 77.0579 21.4668 77.8281 21.4668C 78.7396 21.4668 79.4482 21.804 79.9541 22.4785C 80.46 23.153 80.7129 24.0827 80.7129 25.2676L 80.7129 25.3701ZM 78.7373 25.2266C 78.7373 24.5384 78.6143 24.0075 78.3682 23.6338C 78.1266 23.2601 77.7734 23.0732 77.3086 23.0732C 76.6888 23.0732 76.2627 23.3102 76.0303 23.7842L 76.0303 26.8125C 76.2718 27.3001 76.7025 27.5439 77.3223 27.5439C 78.2656 27.5439 78.7373 26.7715 78.7373 25.2266ZM 81.6357 25.2334C 81.6357 24.4997 81.777 23.8457 82.0596 23.2715C 82.3421 22.6973 82.7477 22.2529 83.2764 21.9385C 83.8096 21.624 84.4271 21.4668 85.1289 21.4668C 86.127 21.4668 86.9404 21.7721 87.5693 22.3828C 88.2028 22.9935 88.556 23.8229 88.6289 24.8711L 88.6426 25.377C 88.6426 26.5117 88.3258 27.4232 87.6924 28.1113C 87.0589 28.7949 86.209 29.1367 85.1426 29.1367C 84.0762 29.1367 83.224 28.7949 82.5859 28.1113C 81.9525 27.4277 81.6357 26.498 81.6357 25.3223L 81.6357 25.2334ZM 83.6113 25.377C 83.6113 26.0788 83.7435 26.6165 84.0078 26.9902C 84.2721 27.3594 84.6504 27.5439 85.1426 27.5439C 85.6211 27.5439 85.9948 27.3617 86.2637 26.9971C 86.5326 26.6279 86.667 26.04 86.667 25.2334C 86.667 24.5452 86.5326 24.012 86.2637 23.6338C 85.9948 23.2555 85.6165 23.0664 85.1289 23.0664C 84.6458 23.0664 84.2721 23.2555 84.0078 23.6338C 83.7435 24.0075 83.6113 24.5885 83.6113 25.377ZM 89.9893 29L 89.9893 21.6035L 93.0791 21.6035C 94.0863 21.6035 94.8587 21.7812 95.3965 22.1367C 95.9342 22.4922 96.2031 23.0026 96.2031 23.668C 96.2031 24.0098 96.0892 24.3174 95.8613 24.5908C 95.638 24.8597 95.3099 25.0671 94.877 25.2129C 95.4056 25.3132 95.8203 25.5114 96.1211 25.8076C 96.4264 26.0993 96.5791 26.4593 96.5791 26.8877C 96.5791 27.5758 96.3193 28.0999 95.7998 28.46C 95.2848 28.82 94.5352 29 93.5508 29L 89.9893 29ZM 91.9648 25.9307L 91.9648 27.4209L 93.5576 27.4209C 94.2549 27.4209 94.6035 27.1771 94.6035 26.6895C 94.6035 26.1927 94.2708 25.9398 93.6055 25.9307L 91.9648 25.9307ZM 91.9648 24.6045L 93.1885 24.6045C 93.8812 24.5954 94.2275 24.3721 94.2275 23.9346C 94.2275 23.6657 94.1318 23.4743 93.9404 23.3604C 93.7536 23.2464 93.4665 23.1895 93.0791 23.1895L 91.9648 23.1895L 91.9648 24.6045ZM 102.075 29C 101.984 28.8223 101.918 28.6012 101.877 28.3369C 101.398 28.8701 100.776 29.1367 100.011 29.1367C 99.2861 29.1367 98.6846 28.9271 98.2061 28.5078C 97.7321 28.0885 97.4951 27.5599 97.4951 26.9219C 97.4951 26.138 97.7845 25.5365 98.3633 25.1172C 98.9466 24.6979 99.7874 24.486 100.886 24.4814L 101.795 24.4814L 101.795 24.0576C 101.795 23.7158 101.706 23.4424 101.528 23.2373C 101.355 23.0322 101.079 22.9297 100.701 22.9297C 100.368 22.9297 100.106 23.0094 99.915 23.1689C 99.7282 23.3285 99.6348 23.5472 99.6348 23.8252L 97.6592 23.8252C 97.6592 23.3968 97.7913 23.0003 98.0557 22.6357C 98.32 22.2712 98.6937 21.9863 99.1768 21.7812C 99.6598 21.5716 100.202 21.4668 100.804 21.4668C 101.715 21.4668 102.438 21.6969 102.971 22.1572C 103.508 22.613 103.777 23.2555 103.777 24.085L 103.777 27.291C 103.782 27.9928 103.88 28.5238 104.071 28.8838L 104.071 29L 102.075 29ZM 100.441 27.626C 100.733 27.626 101.002 27.5622 101.248 27.4346C 101.494 27.3024 101.676 27.127 101.795 26.9082L 101.795 25.6367L 101.057 25.6367C 100.068 25.6367 99.5413 25.9785 99.4775 26.6621L 99.4707 26.7783C 99.4707 27.0244 99.5573 27.2272 99.7305 27.3867C 99.9036 27.5462 100.141 27.626 100.441 27.626ZM 111.707 29L 109.725 29L 109.725 26.1562L 107.271 26.1562L 107.271 29L 105.295 29L 105.295 21.6035L 107.271 21.6035L 107.271 24.5703L 109.725 24.5703L 109.725 21.6035L 111.707 21.6035L 111.707 29ZM 117.695 21.6035L 119.671 21.6035L 119.671 29L 117.695 29L 117.695 24.4336L 115.221 29L 113.238 29L 113.238 21.6035L 115.221 21.6035L 115.221 26.1631L 117.695 21.6035ZM 124.586 29.1367C 123.501 29.1367 122.617 28.804 121.934 28.1387C 121.255 27.4733 120.915 26.5869 120.915 25.4795L 120.915 25.2881C 120.915 24.5452 121.059 23.8822 121.346 23.2988C 121.633 22.7109 122.038 22.2598 122.562 21.9453C 123.091 21.6263 123.693 21.4668 124.367 21.4668C 125.379 21.4668 126.174 21.7858 126.753 22.4238C 127.336 23.0618 127.628 23.9665 127.628 25.1377L 127.628 25.9443L 122.918 25.9443C 122.982 26.4274 123.173 26.8148 123.492 27.1064C 123.816 27.3981 124.224 27.5439 124.716 27.5439C 125.477 27.5439 126.072 27.2682 126.5 26.7168L 127.471 27.8037C 127.174 28.223 126.773 28.5511 126.268 28.7881C 125.762 29.0205 125.201 29.1367 124.586 29.1367ZM 124.36 23.0664C 123.968 23.0664 123.649 23.1986 123.403 23.4629C 123.162 23.7272 123.007 24.1055 122.938 24.5977L 125.687 24.5977L 125.687 24.4404C 125.677 24.0029 125.559 23.6657 125.331 23.4287C 125.103 23.1872 124.78 23.0664 124.36 23.0664Z"/>
<path id="path12_fill" d="M 9.06445 8.24902C 9.06445 9.22884 8.89128 10.0879 8.54492 10.8262C 8.19857 11.5645 7.70182 12.1341 7.05469 12.5352C 6.41211 12.9362 5.67383 13.1367 4.83984 13.1367C 4.01497 13.1367 3.27897 12.9385 2.63184 12.542C 1.9847 12.1455 1.4834 11.5804 1.12793 10.8467C 0.772461 10.1084 0.592448 9.26074 0.587891 8.30371L 0.587891 7.81152C 0.587891 6.83171 0.763346 5.97038 1.11426 5.22754C 1.46973 4.48014 1.96875 3.9082 2.61133 3.51172C 3.25846 3.11068 3.99674 2.91016 4.82617 2.91016C 5.6556 2.91016 6.3916 3.11068 7.03418 3.51172C 7.68131 3.9082 8.18034 4.48014 8.53125 5.22754C 8.88672 5.97038 9.06445 6.82943 9.06445 7.80469L 9.06445 8.24902ZM 6.98633 7.79785C 6.98633 6.75423 6.79948 5.96126 6.42578 5.41895C 6.05208 4.87663 5.51888 4.60547 4.82617 4.60547C 4.13802 4.60547 3.6071 4.87435 3.2334 5.41211C 2.8597 5.94531 2.67057 6.72917 2.66602 7.76367L 2.66602 8.24902C 2.66602 9.2653 2.85286 10.0537 3.22656 10.6143C 3.60026 11.1748 4.13802 11.4551 4.83984 11.4551C 5.52799 11.4551 6.05664 11.1862 6.42578 10.6484C 6.79492 10.1061 6.98177 9.31771 6.98633 8.2832L 6.98633 7.79785ZM 10.4248 5.60352L 12.4004 5.60352L 12.4004 11.4072L 14.875 11.4072L 14.875 5.60352L 16.8574 5.60352L 16.8574 11.4209L 17.9648 11.4209L 17.8281 15.1943L 15.9893 15.1943L 15.9893 13L 10.4248 13L 10.4248 5.60352ZM 22.3604 13.1367C 21.2757 13.1367 20.3916 12.804 19.708 12.1387C 19.029 11.4733 18.6895 10.5869 18.6895 9.47949L 18.6895 9.28809C 18.6895 8.54525 18.833 7.88216 19.1201 7.29883C 19.4072 6.71094 19.8128 6.25977 20.3369 5.94531C 20.8656 5.6263 21.4671 5.4668 22.1416 5.4668C 23.1533 5.4668 23.9486 5.78581 24.5273 6.42383C 25.1107 7.06185 25.4023 7.96647 25.4023 9.1377L 25.4023 9.94434L 20.6924 9.94434C 20.7562 10.4274 20.9476 10.8148 21.2666 11.1064C 21.5902 11.3981 21.998 11.5439 22.4902 11.5439C 23.2513 11.5439 23.846 11.2682 24.2744 10.7168L 25.2451 11.8037C 24.9489 12.223 24.5479 12.5511 24.042 12.7881C 23.5361 13.0205 22.9756 13.1367 22.3604 13.1367ZM 22.1348 7.06641C 21.7428 7.06641 21.4238 7.19857 21.1777 7.46289C 20.9362 7.72721 20.7812 8.10547 20.7129 8.59766L 23.4609 8.59766L 23.4609 8.44043C 23.4518 8.00293 23.3333 7.66569 23.1055 7.42871C 22.8776 7.18717 22.554 7.06641 22.1348 7.06641ZM 32.9424 13L 30.96 13L 30.96 10.1562L 28.5059 10.1562L 28.5059 13L 26.5303 13L 26.5303 5.60352L 28.5059 5.60352L 28.5059 8.57031L 30.96 8.57031L 30.96 5.60352L 32.9424 5.60352L 32.9424 13ZM 37.3721 10.2725L 36.5791 10.2725L 36.5791 13L 34.6035 13L 34.6035 5.60352L 36.5791 5.60352L 36.5791 8.38574L 37.2832 8.38574L 38.8965 5.60352L 41.3916 5.60352L 38.9717 9.12402L 41.6172 13L 38.9854 13L 37.3721 10.2725ZM 46.6484 13C 46.5573 12.8223 46.4912 12.6012 46.4502 12.3369C 45.9717 12.8701 45.3496 13.1367 44.584 13.1367C 43.8594 13.1367 43.2578 12.9271 42.7793 12.5078C 42.3053 12.0885 42.0684 11.5599 42.0684 10.9219C 42.0684 10.138 42.3577 9.53646 42.9365 9.11719C 43.5199 8.69792 44.3607 8.486 45.459 8.48145L 46.3682 8.48145L 46.3682 8.05762C 46.3682 7.71582 46.2793 7.44238 46.1016 7.2373C 45.9284 7.03223 45.6527 6.92969 45.2744 6.92969C 44.9417 6.92969 44.6797 7.00944 44.4883 7.16895C 44.3014 7.32845 44.208 7.5472 44.208 7.8252L 42.2324 7.8252C 42.2324 7.39681 42.3646 7.00033 42.6289 6.63574C 42.8932 6.27116 43.2669 5.98633 43.75 5.78125C 44.2331 5.57161 44.7754 5.4668 45.377 5.4668C 46.2884 5.4668 47.0107 5.69694 47.5439 6.15723C 48.0817 6.61296 48.3506 7.25553 48.3506 8.08496L 48.3506 11.291C 48.3551 11.9928 48.4531 12.5238 48.6445 12.8838L 48.6445 13L 46.6484 13ZM 45.0146 11.626C 45.3063 11.626 45.5752 11.5622 45.8213 11.4346C 46.0674 11.3024 46.2497 11.127 46.3682 10.9082L 46.3682 9.63672L 45.6299 9.63672C 44.641 9.63672 44.1146 9.97852 44.0508 10.6621L 44.0439 10.7783C 44.0439 11.0244 44.1305 11.2272 44.3037 11.3867C 44.4769 11.5462 44.7139 11.626 45.0146 11.626Z"/>
<path id="path13_fill" d="M 2.93945 9.49316L 2.93945 13L 0.888672 13L 0.888672 3.04688L 4.77148 3.04688C 5.51888 3.04688 6.17513 3.18359 6.74023 3.45703C 7.3099 3.73047 7.7474 4.12012 8.05273 4.62598C 8.35807 5.12728 8.51074 5.69922 8.51074 6.3418C 8.51074 7.31706 8.17578 8.08724 7.50586 8.65234C 6.84049 9.21289 5.91764 9.49316 4.7373 9.49316L 2.93945 9.49316ZM 2.93945 7.83203L 4.77148 7.83203C 5.3138 7.83203 5.72624 7.70443 6.00879 7.44922C 6.2959 7.19401 6.43945 6.82943 6.43945 6.35547C 6.43945 5.86784 6.2959 5.47363 6.00879 5.17285C 5.72168 4.87207 5.3252 4.71712 4.81934 4.70801L 2.93945 4.70801L 2.93945 7.83203ZM 14 13C 13.9089 12.8223 13.8428 12.6012 13.8018 12.3369C 13.3232 12.8701 12.7012 13.1367 11.9355 13.1367C 11.2109 13.1367 10.6094 12.9271 10.1309 12.5078C 9.6569 12.0885 9.41992 11.5599 9.41992 10.9219C 9.41992 10.138 9.70931 9.53646 10.2881 9.11719C 10.8714 8.69792 11.7122 8.486 12.8105 8.48145L 13.7197 8.48145L 13.7197 8.05762C 13.7197 7.71582 13.6309 7.44238 13.4531 7.2373C 13.2799 7.03223 13.0042 6.92969 12.626 6.92969C 12.2933 6.92969 12.0312 7.00944 11.8398 7.16895C 11.653 7.32845 11.5596 7.5472 11.5596 7.8252L 9.58398 7.8252C 9.58398 7.39681 9.71615 7.00033 9.98047 6.63574C 10.2448 6.27116 10.6185 5.98633 11.1016 5.78125C 11.5846 5.57161 12.127 5.4668 12.7285 5.4668C 13.64 5.4668 14.3623 5.69694 14.8955 6.15723C 15.4333 6.61296 15.7021 7.25553 15.7021 8.08496L 15.7021 11.291C 15.7067 11.9928 15.8047 12.5238 15.9961 12.8838L 15.9961 13L 14 13ZM 12.3662 11.626C 12.6579 11.626 12.9268 11.5622 13.1729 11.4346C 13.4189 11.3024 13.6012 11.127 13.7197 10.9082L 13.7197 9.63672L 12.9814 9.63672C 11.9925 9.63672 11.4661 9.97852 11.4023 10.6621L 11.3955 10.7783C 11.3955 11.0244 11.4821 11.2272 11.6553 11.3867C 11.8285 11.5462 12.0654 11.626 12.3662 11.626ZM 21.1025 7.78418C 21.1025 7.52441 21.016 7.32389 20.8428 7.18262C 20.6742 7.03678 20.4326 6.96387 20.1182 6.96387C 19.7946 6.96387 19.5303 7.03223 19.3252 7.16895C 19.1247 7.30111 19.0244 7.49023 19.0244 7.73633L 17.0488 7.73633C 17.0488 7.06641 17.3268 6.52181 17.8828 6.10254C 18.4388 5.68327 19.1497 5.47363 20.0156 5.47363C 20.9681 5.47363 21.7155 5.66048 22.2578 6.03418C 22.8047 6.40788 23.0781 6.9388 23.0781 7.62695C 23.0781 7.95508 22.9779 8.25814 22.7773 8.53613C 22.5814 8.80957 22.3034 9.02832 21.9434 9.19238C 22.7865 9.48861 23.208 10.0605 23.208 10.9082C 23.208 11.5872 22.9163 12.1296 22.333 12.5352C 21.7542 12.9362 20.9818 13.1367 20.0156 13.1367C 19.1178 13.1367 18.3796 12.9271 17.8008 12.5078C 17.222 12.0885 16.9326 11.5234 16.9326 10.8125L 18.9082 10.8125C 18.9082 11.0632 19.0199 11.266 19.2432 11.4209C 19.4665 11.5758 19.7581 11.6533 20.1182 11.6533C 20.4691 11.6533 20.7425 11.5713 20.9385 11.4072C 21.1344 11.2432 21.2324 11.029 21.2324 10.7646C 21.2324 10.4411 21.139 10.2109 20.9521 10.0742C 20.7653 9.93294 20.485 9.8623 20.1113 9.8623L 19.0381 9.8623L 19.0381 8.57715L 20.1797 8.57715C 20.7949 8.55892 21.1025 8.2946 21.1025 7.78418ZM 24.541 13L 24.541 5.60352L 27.6309 5.60352C 28.638 5.60352 29.4105 5.78125 29.9482 6.13672C 30.486 6.49219 30.7549 7.0026 30.7549 7.66797C 30.7549 8.00977 30.641 8.31738 30.4131 8.59082C 30.1898 8.8597 29.8617 9.06706 29.4287 9.21289C 29.9574 9.31315 30.3721 9.51139 30.6729 9.80762C 30.9782 10.0993 31.1309 10.4593 31.1309 10.8877C 31.1309 11.5758 30.8711 12.0999 30.3516 12.46C 29.8366 12.82 29.0869 13 28.1025 13L 24.541 13ZM 26.5166 9.93066L 26.5166 11.4209L 28.1094 11.4209C 28.8066 11.4209 29.1553 11.1771 29.1553 10.6895C 29.1553 10.1927 28.8226 9.93978 28.1572 9.93066L 26.5166 9.93066ZM 26.5166 8.60449L 27.7402 8.60449C 28.4329 8.59538 28.7793 8.37207 28.7793 7.93457C 28.7793 7.66569 28.6836 7.47428 28.4922 7.36035C 28.3053 7.24642 28.0182 7.18945 27.6309 7.18945L 26.5166 7.18945L 26.5166 8.60449ZM 35.7451 13.1367C 34.6605 13.1367 33.7764 12.804 33.0928 12.1387C 32.4137 11.4733 32.0742 10.5869 32.0742 9.47949L 32.0742 9.28809C 32.0742 8.54525 32.2178 7.88216 32.5049 7.29883C 32.792 6.71094 33.1976 6.25977 33.7217 5.94531C 34.2503 5.6263 34.8519 5.4668 35.5264 5.4668C 36.5381 5.4668 37.3333 5.78581 37.9121 6.42383C 38.4954 7.06185 38.7871 7.96647 38.7871 9.1377L 38.7871 9.94434L 34.0771 9.94434C 34.141 10.4274 34.3324 10.8148 34.6514 11.1064C 34.9749 11.3981 35.3828 11.5439 35.875 11.5439C 36.6361 11.5439 37.2308 11.2682 37.6592 10.7168L 38.6299 11.8037C 38.3337 12.223 37.9326 12.5511 37.4268 12.7881C 36.9209 13.0205 36.3604 13.1367 35.7451 13.1367ZM 35.5195 7.06641C 35.1276 7.06641 34.8086 7.19857 34.5625 7.46289C 34.321 7.72721 34.166 8.10547 34.0977 8.59766L 36.8457 8.59766L 36.8457 8.44043C 36.8366 8.00293 36.7181 7.66569 36.4902 7.42871C 36.2624 7.18717 35.9388 7.06641 35.5195 7.06641ZM 46.5732 9.37012C 46.5732 10.5094 46.3135 11.4232 45.7939 12.1113C 45.279 12.7949 44.5817 13.1367 43.7021 13.1367C 42.9548 13.1367 42.3509 12.877 41.8906 12.3574L 41.8906 15.8438L 39.915 15.8438L 39.915 5.60352L 41.7471 5.60352L 41.8154 6.32812C 42.2939 5.75391 42.9183 5.4668 43.6885 5.4668C 44.5999 5.4668 45.3086 5.80404 45.8145 6.47852C 46.3203 7.15299 46.5732 8.08268 46.5732 9.26758L 46.5732 9.37012ZM 44.5977 9.22656C 44.5977 8.53841 44.4746 8.00749 44.2285 7.63379C 43.987 7.26009 43.6338 7.07324 43.1689 7.07324C 42.5492 7.07324 42.123 7.31022 41.8906 7.78418L 41.8906 10.8125C 42.1322 11.3001 42.5628 11.5439 43.1826 11.5439C 44.126 11.5439 44.5977 10.7715 44.5977 9.22656ZM 53.6553 7.18945L 51.2832 7.18945L 51.2832 13L 49.3008 13L 49.3008 7.18945L 46.9697 7.18945L 46.9697 5.60352L 53.6553 5.60352L 53.6553 7.18945ZM 56.7656 7.77051L 58.1807 7.77051C 58.8187 7.77051 59.3792 7.8776 59.8623 8.0918C 60.3454 8.30599 60.7145 8.61361 60.9697 9.01465C 61.2295 9.41113 61.3594 9.8737 61.3594 10.4023C 61.3594 11.1816 61.07 11.8105 60.4912 12.2891C 59.917 12.763 59.1331 13 58.1396 13L 54.7832 13L 54.7832 5.60352L 56.7656 5.60352L 56.7656 7.77051ZM 64.5039 13L 62.5283 13L 62.5283 5.60352L 64.5039 5.60352L 64.5039 13ZM 56.7656 9.35645L 56.7656 11.4209L 58.167 11.4209C 58.5589 11.4209 58.8597 11.3298 59.0693 11.1475C 59.279 10.9652 59.3838 10.7168 59.3838 10.4023C 59.3838 10.0833 59.2812 9.8304 59.0762 9.64355C 58.8711 9.45215 58.568 9.35645 58.167 9.35645L 56.7656 9.35645ZM 66.377 13L 66.377 5.60352L 69.4668 5.60352C 70.474 5.60352 71.2464 5.78125 71.7842 6.13672C 72.3219 6.49219 72.5908 7.0026 72.5908 7.66797C 72.5908 8.00977 72.4769 8.31738 72.249 8.59082C 72.0257 8.8597 71.6976 9.06706 71.2646 9.21289C 71.7933 9.31315 72.208 9.51139 72.5088 9.80762C 72.8141 10.0993 72.9668 10.4593 72.9668 10.8877C 72.9668 11.5758 72.707 12.0999 72.1875 12.46C 71.6725 12.82 70.9229 13 69.9385 13L 66.377 13ZM 68.3525 9.93066L 68.3525 11.4209L 69.9453 11.4209C 70.6426 11.4209 70.9912 11.1771 70.9912 10.6895C 70.9912 10.1927 70.6585 9.93978 69.9932 9.93066L 68.3525 9.93066ZM 68.3525 8.60449L 69.5762 8.60449C 70.2689 8.59538 70.6152 8.37207 70.6152 7.93457C 70.6152 7.66569 70.5195 7.47428 70.3281 7.36035C 70.1413 7.24642 69.8542 7.18945 69.4668 7.18945L 68.3525 7.18945L 68.3525 8.60449ZM 78.4629 13C 78.3717 12.8223 78.3057 12.6012 78.2646 12.3369C 77.7861 12.8701 77.1641 13.1367 76.3984 13.1367C 75.6738 13.1367 75.0723 12.9271 74.5938 12.5078C 74.1198 12.0885 73.8828 11.5599 73.8828 10.9219C 73.8828 10.138 74.1722 9.53646 74.751 9.11719C 75.3343 8.69792 76.1751 8.486 77.2734 8.48145L 78.1826 8.48145L 78.1826 8.05762C 78.1826 7.71582 78.0938 7.44238 77.916 7.2373C 77.7428 7.03223 77.4671 6.92969 77.0889 6.92969C 76.7562 6.92969 76.4941 7.00944 76.3027 7.16895C 76.1159 7.32845 76.0225 7.5472 76.0225 7.8252L 74.0469 7.8252C 74.0469 7.39681 74.179 7.00033 74.4434 6.63574C 74.7077 6.27116 75.0814 5.98633 75.5645 5.78125C 76.0475 5.57161 76.5898 5.4668 77.1914 5.4668C 78.1029 5.4668 78.8252 5.69694 79.3584 6.15723C 79.8962 6.61296 80.165 7.25553 80.165 8.08496L 80.165 11.291C 80.1696 11.9928 80.2676 12.5238 80.459 12.8838L 80.459 13L 78.4629 13ZM 76.8291 11.626C 77.1208 11.626 77.3896 11.5622 77.6357 11.4346C 77.8818 11.3024 78.0641 11.127 78.1826 10.9082L 78.1826 9.63672L 77.4443 9.63672C 76.4554 9.63672 75.929 9.97852 75.8652 10.6621L 75.8584 10.7783C 75.8584 11.0244 75.945 11.2272 76.1182 11.3867C 76.2913 11.5462 76.5283 11.626 76.8291 11.626ZM 88.0947 13L 86.1123 13L 86.1123 10.1562L 83.6582 10.1562L 83.6582 13L 81.6826 13L 81.6826 5.60352L 83.6582 5.60352L 83.6582 8.57031L 86.1123 8.57031L 86.1123 5.60352L 88.0947 5.60352L 88.0947 13ZM 94.083 5.60352L 96.0586 5.60352L 96.0586 13L 94.083 13L 94.083 8.43359L 91.6084 13L 89.626 13L 89.626 5.60352L 91.6084 5.60352L 91.6084 10.1631L 94.083 5.60352ZM 100.974 13.1367C 99.889 13.1367 99.0049 12.804 98.3213 12.1387C 97.6423 11.4733 97.3027 10.5869 97.3027 9.47949L 97.3027 9.28809C 97.3027 8.54525 97.4463 7.88216 97.7334 7.29883C 98.0205 6.71094 98.4261 6.25977 98.9502 5.94531C 99.4788 5.6263 100.08 5.4668 100.755 5.4668C 101.767 5.4668 102.562 5.78581 103.141 6.42383C 103.724 7.06185 104.016 7.96647 104.016 9.1377L 104.016 9.94434L 99.3057 9.94434C 99.3695 10.4274 99.5609 10.8148 99.8799 11.1064C 100.203 11.3981 100.611 11.5439 101.104 11.5439C 101.865 11.5439 102.459 11.2682 102.888 10.7168L 103.858 11.8037C 103.562 12.223 103.161 12.5511 102.655 12.7881C 102.149 13.0205 101.589 13.1367 100.974 13.1367ZM 100.748 7.06641C 100.356 7.06641 100.037 7.19857 99.791 7.46289C 99.5495 7.72721 99.3945 8.10547 99.3262 8.59766L 102.074 8.59766L 102.074 8.44043C 102.065 8.00293 101.947 7.66569 101.719 7.42871C 101.491 7.18717 101.167 7.06641 100.748 7.06641Z"/>
<path id="path14_fill" d="M 8.38086 4.70801L 5.33203 4.70801L 5.33203 13L 3.28125 13L 3.28125 4.70801L 0.273438 4.70801L 0.273438 3.04688L 8.38086 3.04688L 8.38086 4.70801ZM 12.2158 13.1367C 11.1312 13.1367 10.2471 12.804 9.56348 12.1387C 8.88444 11.4733 8.54492 10.5869 8.54492 9.47949L 8.54492 9.28809C 8.54492 8.54525 8.68848 7.88216 8.97559 7.29883C 9.2627 6.71094 9.66829 6.25977 10.1924 5.94531C 10.721 5.6263 11.3226 5.4668 11.9971 5.4668C 13.0088 5.4668 13.804 5.78581 14.3828 6.42383C 14.9661 7.06185 15.2578 7.96647 15.2578 9.1377L 15.2578 9.94434L 10.5479 9.94434C 10.6117 10.4274 10.8031 10.8148 11.1221 11.1064C 11.4456 11.3981 11.8535 11.5439 12.3457 11.5439C 13.1068 11.5439 13.7015 11.2682 14.1299 10.7168L 15.1006 11.8037C 14.8044 12.223 14.4033 12.5511 13.8975 12.7881C 13.3916 13.0205 12.8311 13.1367 12.2158 13.1367ZM 11.9902 7.06641C 11.5983 7.06641 11.2793 7.19857 11.0332 7.46289C 10.7917 7.72721 10.6367 8.10547 10.5684 8.59766L 13.3164 8.59766L 13.3164 8.44043C 13.3073 8.00293 13.1888 7.66569 12.9609 7.42871C 12.7331 7.18717 12.4095 7.06641 11.9902 7.06641ZM 19.4619 11.5439C 19.8265 11.5439 20.1227 11.4437 20.3506 11.2432C 20.5785 11.0426 20.6969 10.776 20.7061 10.4434L 22.5586 10.4434C 22.554 10.9447 22.4173 11.4049 22.1484 11.8242C 21.8796 12.2389 21.5104 12.5625 21.041 12.7949C 20.5762 13.0228 20.0612 13.1367 19.4961 13.1367C 18.4388 13.1367 17.6048 12.8018 16.9941 12.1318C 16.3835 11.4574 16.0781 10.5277 16.0781 9.34277L 16.0781 9.21289C 16.0781 8.07357 16.3812 7.16439 16.9873 6.48535C 17.5934 5.80631 18.4251 5.4668 19.4824 5.4668C 20.4076 5.4668 21.1481 5.73112 21.7041 6.25977C 22.2646 6.78385 22.5495 7.4834 22.5586 8.3584L 20.7061 8.3584C 20.6969 7.97559 20.5785 7.66569 20.3506 7.42871C 20.1227 7.18717 19.8219 7.06641 19.4482 7.06641C 18.988 7.06641 18.6393 7.23503 18.4023 7.57227C 18.1699 7.90495 18.0537 8.44727 18.0537 9.19922L 18.0537 9.4043C 18.0537 10.1654 18.1699 10.7122 18.4023 11.0449C 18.6348 11.3776 18.988 11.5439 19.4619 11.5439ZM 29.8252 7.18945L 27.4531 7.18945L 27.4531 13L 25.4707 13L 25.4707 7.18945L 23.1396 7.18945L 23.1396 5.60352L 29.8252 5.60352L 29.8252 7.18945ZM 35.2803 5.60352L 37.2559 5.60352L 37.2559 13L 35.2803 13L 35.2803 8.43359L 32.8057 13L 30.8232 13L 30.8232 5.60352L 32.8057 5.60352L 32.8057 10.1631L 35.2803 5.60352ZM 45.4248 9.37012C 45.4248 10.5094 45.165 11.4232 44.6455 12.1113C 44.1305 12.7949 43.4333 13.1367 42.5537 13.1367C 41.8063 13.1367 41.2025 12.877 40.7422 12.3574L 40.7422 15.8438L 38.7666 15.8438L 38.7666 5.60352L 40.5986 5.60352L 40.667 6.32812C 41.1455 5.75391 41.7699 5.4668 42.54 5.4668C 43.4515 5.4668 44.1602 5.80404 44.666 6.47852C 45.1719 7.15299 45.4248 8.08268 45.4248 9.26758L 45.4248 9.37012ZM 43.4492 9.22656C 43.4492 8.53841 43.3262 8.00749 43.0801 7.63379C 42.8385 7.26009 42.4854 7.07324 42.0205 7.07324C 41.4007 7.07324 40.9746 7.31022 40.7422 7.78418L 40.7422 10.8125C 40.9837 11.3001 41.4144 11.5439 42.0342 11.5439C 42.9775 11.5439 43.4492 10.7715 43.4492 9.22656ZM 46.3477 9.2334C 46.3477 8.49967 46.4889 7.8457 46.7715 7.27148C 47.054 6.69727 47.4596 6.25293 47.9883 5.93848C 48.5215 5.62402 49.139 5.4668 49.8408 5.4668C 50.8389 5.4668 51.6523 5.77214 52.2812 6.38281C 52.9147 6.99349 53.2679 7.82292 53.3408 8.87109L 53.3545 9.37695C 53.3545 10.5117 53.0378 11.4232 52.4043 12.1113C 51.7708 12.7949 50.9209 13.1367 49.8545 13.1367C 48.7881 13.1367 47.9359 12.7949 47.2979 12.1113C 46.6644 11.4277 46.3477 10.498 46.3477 9.32227L 46.3477 9.2334ZM 48.3232 9.37695C 48.3232 10.0788 48.4554 10.6165 48.7197 10.9902C 48.984 11.3594 49.3623 11.5439 49.8545 11.5439C 50.333 11.5439 50.7067 11.3617 50.9756 10.9971C 51.2445 10.6279 51.3789 10.04 51.3789 9.2334C 51.3789 8.54525 51.2445 8.01204 50.9756 7.63379C 50.7067 7.25553 50.3285 7.06641 49.8408 7.06641C 49.3577 7.06641 48.984 7.25553 48.7197 7.63379C 48.4554 8.00749 48.3232 8.58854 48.3232 9.37695ZM 54.7012 13L 54.7012 5.60352L 57.791 5.60352C 58.7982 5.60352 59.5706 5.78125 60.1084 6.13672C 60.6462 6.49219 60.915 7.0026 60.915 7.66797C 60.915 8.00977 60.8011 8.31738 60.5732 8.59082C 60.3499 8.8597 60.0218 9.06706 59.5889 9.21289C 60.1175 9.31315 60.5322 9.51139 60.833 9.80762C 61.1383 10.0993 61.291 10.4593 61.291 10.8877C 61.291 11.5758 61.0312 12.0999 60.5117 12.46C 59.9967 12.82 59.2471 13 58.2627 13L 54.7012 13ZM 56.6768 9.93066L 56.6768 11.4209L 58.2695 11.4209C 58.9668 11.4209 59.3154 11.1771 59.3154 10.6895C 59.3154 10.1927 58.9827 9.93978 58.3174 9.93066L 56.6768 9.93066ZM 56.6768 8.60449L 57.9004 8.60449C 58.5931 8.59538 58.9395 8.37207 58.9395 7.93457C 58.9395 7.66569 58.8438 7.47428 58.6523 7.36035C 58.4655 7.24642 58.1784 7.18945 57.791 7.18945L 56.6768 7.18945L 56.6768 8.60449ZM 66.7871 13C 66.696 12.8223 66.6299 12.6012 66.5889 12.3369C 66.1104 12.8701 65.4883 13.1367 64.7227 13.1367C 63.998 13.1367 63.3965 12.9271 62.918 12.5078C 62.444 12.0885 62.207 11.5599 62.207 10.9219C 62.207 10.138 62.4964 9.53646 63.0752 9.11719C 63.6585 8.69792 64.4993 8.486 65.5977 8.48145L 66.5068 8.48145L 66.5068 8.05762C 66.5068 7.71582 66.418 7.44238 66.2402 7.2373C 66.0671 7.03223 65.7913 6.92969 65.4131 6.92969C 65.0804 6.92969 64.8184 7.00944 64.627 7.16895C 64.4401 7.32845 64.3467 7.5472 64.3467 7.8252L 62.3711 7.8252C 62.3711 7.39681 62.5033 7.00033 62.7676 6.63574C 63.0319 6.27116 63.4056 5.98633 63.8887 5.78125C 64.3717 5.57161 64.9141 5.4668 65.5156 5.4668C 66.4271 5.4668 67.1494 5.69694 67.6826 6.15723C 68.2204 6.61296 68.4893 7.25553 68.4893 8.08496L 68.4893 11.291C 68.4938 11.9928 68.5918 12.5238 68.7832 12.8838L 68.7832 13L 66.7871 13ZM 65.1533 11.626C 65.445 11.626 65.7139 11.5622 65.96 11.4346C 66.2061 11.3024 66.3883 11.127 66.5068 10.9082L 66.5068 9.63672L 65.7686 9.63672C 64.7796 9.63672 64.2533 9.97852 64.1895 10.6621L 64.1826 10.7783C 64.1826 11.0244 64.2692 11.2272 64.4424 11.3867C 64.6156 11.5462 64.8525 11.626 65.1533 11.626ZM 76.4189 13L 74.4365 13L 74.4365 10.1562L 71.9824 10.1562L 71.9824 13L 70.0068 13L 70.0068 5.60352L 71.9824 5.60352L 71.9824 8.57031L 74.4365 8.57031L 74.4365 5.60352L 76.4189 5.60352L 76.4189 13ZM 82.4072 5.60352L 84.3828 5.60352L 84.3828 13L 82.4072 13L 82.4072 8.43359L 79.9326 13L 77.9502 13L 77.9502 5.60352L 79.9326 5.60352L 79.9326 10.1631L 82.4072 5.60352ZM 89.2979 13.1367C 88.2132 13.1367 87.3291 12.804 86.6455 12.1387C 85.9665 11.4733 85.627 10.5869 85.627 9.47949L 85.627 9.28809C 85.627 8.54525 85.7705 7.88216 86.0576 7.29883C 86.3447 6.71094 86.7503 6.25977 87.2744 5.94531C 87.8031 5.6263 88.4046 5.4668 89.0791 5.4668C 90.0908 5.4668 90.8861 5.78581 91.4648 6.42383C 92.0482 7.06185 92.3398 7.96647 92.3398 9.1377L 92.3398 9.94434L 87.6299 9.94434C 87.6937 10.4274 87.8851 10.8148 88.2041 11.1064C 88.5277 11.3981 88.9355 11.5439 89.4277 11.5439C 90.1888 11.5439 90.7835 11.2682 91.2119 10.7168L 92.1826 11.8037C 91.8864 12.223 91.4854 12.5511 90.9795 12.7881C 90.4736 13.0205 89.9131 13.1367 89.2979 13.1367ZM 89.0723 7.06641C 88.6803 7.06641 88.3613 7.19857 88.1152 7.46289C 87.8737 7.72721 87.7188 8.10547 87.6504 8.59766L 90.3984 8.59766L 90.3984 8.44043C 90.3893 8.00293 90.2708 7.66569 90.043 7.42871C 89.8151 7.18717 89.4915 7.06641 89.0723 7.06641Z"/>
</defs>
</svg>
